playfair-display_black-italic.sfdir
StartChar: exclam
Encoding: 33 33 677
Width: 713
Flags: W
LayerCount: 2
Back
Fore
SplineSet
308 701 m 0,1,2
 308 786 308 786 301 905 c 0,3,4
 294 1071 294 1071 294 1122 c 0,5,6
 294 1239 294 1239 321.5 1348 c 128,-1,7
 349 1457 349 1457 414.5 1529.5 c 128,-1,8
 480 1602 480 1602 587 1602 c 0,9,10
 669 1602 669 1602 714 1554.5 c 128,-1,11
 759 1507 759 1507 759 1413 c 0,12,13
 759 1340 759 1340 732.5 1261.5 c 128,-1,14
 706 1183 706 1183 666.5 1107.5 c 128,-1,15
 627 1032 627 1032 557 912 c 0,16,17
 465 756 465 756 407.5 641 c 128,-1,18
 350 526 350 526 314 401 c 1,19,-1
 278 408 l 1,20,0
 308 538 308 538 308 701 c 0,1,2
103 218.5 m 128,-1,22
 133 268 133 268 185 296 c 128,-1,23
 237 324 237 324 302 324 c 0,24,25
 381 324 381 324 422.5 288.5 c 128,-1,26
 464 253 464 253 464 184 c 0,27,28
 464 130 464 130 433 81 c 128,-1,29
 402 32 402 32 349 1.5 c 128,-1,30
 296 -29 296 -29 233 -29 c 0,31,32
 154 -29 154 -29 113.5 5.5 c 128,-1,33
 73 40 73 40 73 106 c 0,34,21
 73 169 73 169 103 218.5 c 128,-1,22
EndSplineSet
Substitution2: "'smcp' Lowercase to Small Capitals lookup 24 subtable" exclam.smcp
Substitution2: "'c2sc' Capitals to Small Capitals lookup 23 subtable" exclam.smcp
Substitution2: "'aalt' Access All Alternates lookup 0 subtable" exclam.smcp
EndChar
StartChar: numbersign
Encoding: 35 35 679
Width: 1262
Flags: W
LayerCount: 2
Back
Fore
SplineSet
803 547 m 1,0,-1
 1097 547 l 1,1,-1
 1076 506 l 1,2,-1
 784 506 l 1,3,-1
 646 207 l 1,4,-1
 597 207 l 1,5,-1
 735 506 l 1,6,-1
 401 506 l 1,7,-1
 263 207 l 1,8,-1
 214 207 l 1,9,-1
 352 506 l 1,10,-1
 52 506 l 1,11,-1
 71 547 l 1,12,-1
 371 547 l 1,13,-1
 530 889 l 1,14,-1
 230 889 l 1,15,-1
 247 930 l 1,16,-1
 549 930 l 1,17,-1
 689 1233 l 1,18,-1
 738 1233 l 1,19,-1
 598 930 l 1,20,-1
 932 930 l 1,21,-1
 1072 1233 l 1,22,-1
 1121 1233 l 1,23,-1
 981 930 l 1,24,-1
 1273 930 l 1,25,-1
 1256 889 l 1,26,-1
 962 889 l 1,27,-1
 803 547 l 1,0,-1
579 889 m 1,28,-1
 420 547 l 1,29,-1
 754 547 l 1,30,-1
 913 889 l 1,31,-1
 579 889 l 1,28,-1
EndSplineSet
EndChar
StartChar: dollar
Encoding: 36 36 719
Width: 1329
Flags: W
LayerCount: 2
Back
Fore
SplineSet
1031 940 m 128,-1,1
 983 995 983 995 983 1085 c 0,2,3
 983 1164 983 1164 1014.5 1235 c 128,-1,4
 1046 1306 1046 1306 1090 1374 c 1,5,6
 1050 1399 1050 1399 982 1416 c 1,7,-1
 843 915 l 2,8,9
 842 916 842 916 865 896 c 0,10,11
 972 803 972 803 1038.5 736.5 c 128,-1,12
 1105 670 1105 670 1151.5 590.5 c 128,-1,13
 1198 511 1198 511 1198 426 c 0,14,15
 1198 259 1198 259 1102 158.5 c 128,-1,16
 1006 58 1006 58 867 16 c 128,-1,17
 728 -26 728 -26 581 -29 c 1,18,-1
 514 -270 l 1,19,-1
 469 -270 l 1,20,-1
 536 -29 l 1,21,22
 468 -28 468 -28 411 -20 c 1,23,-1
 342 -270 l 1,24,-1
 297 -270 l 1,25,-1
 368 -13 l 1,26,27
 262 8 262 8 164 66 c 0,28,29
 10 157 10 157 10 322 c 0,30,31
 10 391 10 391 32 446 c 128,-1,32
 54 501 54 501 95 533 c 128,-1,33
 136 565 136 565 190 565 c 0,34,35
 269 565 269 565 317 510 c 128,-1,36
 365 455 365 455 365 365 c 0,37,38
 365 286 365 286 333.5 215 c 128,-1,39
 302 144 302 144 258 76 c 1,40,41
 309 45 309 45 380 30 c 1,42,-1
 532 577 l 1,43,44
 444 659 444 659 385 724.5 c 128,-1,45
 326 790 326 790 287 866 c 128,-1,46
 248 942 248 942 248 1022 c 0,47,48
 248 1187 248 1187 329 1289.5 c 128,-1,49
 410 1392 410 1392 531.5 1435 c 128,-1,50
 653 1478 653 1478 783 1479 c 1,51,-1
 850 1720 l 1,52,-1
 895 1720 l 1,53,-1
 828 1478 l 1,54,55
 898 1476 898 1476 952 1468 c 1,56,-1
 1022 1720 l 1,57,-1
 1067 1720 l 1,58,-1
 995 1460 l 1,59,60
 1092 1439 1092 1439 1184 1384 c 0,61,62
 1337 1293 1337 1293 1337 1128 c 0,63,64
 1337 1059 1337 1059 1315 1004 c 128,-1,65
 1293 949 1293 949 1252 917 c 128,-1,66
 1211 885 1211 885 1157 885 c 0,67,0
 1079 885 1079 885 1031 940 c 128,-1,1
819 1432 m 2,69,-1
 815 1432 l 1,70,-1
 707 1042 l 1,71,72
 735 1011 735 1011 807 947 c 1,73,-1
 940 1424 l 1,74,68
 879 1432 879 1432 819 1432 c 2,69,-1
672 1080 m 1,76,-1
 769 1428 l 1,77,78
 694 1416 694 1416 646 1369 c 128,-1,79
 598 1322 598 1322 598 1245 c 0,80,75
 598 1170 598 1170 672 1080 c 1,76,-1
549 18 m 1,81,-1
 669 449 l 1,82,83
 638 480 638 480 568 544 c 1,84,-1
 424 24 l 1,85,86
 469 18 469 18 522 18 c 2,87,-1
 549 18 l 1,81,-1
704 412 m 1,89,-1
 595 21 l 1,90,91
 710 33 710 33 756.5 83 c 128,-1,92
 803 133 803 133 803 219 c 0,93,88
 803 303 803 303 704 412 c 1,89,-1
EndSplineSet
Substitution2: "'smcp' Lowercase to Small Capitals lookup 24 subtable" dollar.smcp
Substitution2: "'c2sc' Capitals to Small Capitals lookup 23 subtable" dollar.smcp
Substitution2: "'aalt' Access All Alternates lookup 0 subtable" dollar.smcp
EndChar
StartChar: percent
Encoding: 37 37 739
Width: 1671
Flags: W
LayerCount: 2
Back
Fore
SplineSet
58 -113 m 1,0,-1
 27 -86 l 1,1,-1
 1733 1688 l 1,2,-1
 1764 1661 l 1,3,-1
 58 -113 l 1,0,-1
292 1344 m 128,-1,5
 356 1439 356 1439 467.5 1499 c 128,-1,6
 579 1559 579 1559 714 1559 c 256,7,8
 849 1559 849 1559 926 1491.5 c 128,-1,9
 1003 1424 1003 1424 1003 1305 c 0,10,11
 1003 1207 1003 1207 939.5 1112 c 128,-1,12
 876 1017 876 1017 765 957 c 128,-1,13
 654 897 654 897 519 897 c 0,14,15
 383 897 383 897 305.5 963.5 c 128,-1,16
 228 1030 228 1030 228 1151 c 0,17,4
 228 1249 228 1249 292 1344 c 128,-1,5
586.5 1452 m 128,-1,19
 539 1372 539 1372 513.5 1258.5 c 128,-1,20
 488 1145 488 1145 488 1051 c 0,21,22
 488 991 488 991 500 957.5 c 128,-1,23
 512 924 512 924 534 924 c 0,24,25
 597 924 597 924 644.5 1004 c 128,-1,26
 692 1084 692 1084 717 1198 c 128,-1,27
 742 1312 742 1312 742 1407 c 0,28,29
 742 1466 742 1466 730.5 1499 c 128,-1,30
 719 1532 719 1532 697 1532 c 0,31,18
 634 1532 634 1532 586.5 1452 c 128,-1,19
821 418 m 128,-1,33
 885 513 885 513 996.5 573 c 128,-1,34
 1108 633 1108 633 1242 633 c 0,35,36
 1377 633 1377 633 1454 566 c 128,-1,37
 1531 499 1531 499 1531 379 c 0,38,39
 1531 281 1531 281 1467.5 186 c 128,-1,40
 1404 91 1404 91 1293 31 c 128,-1,41
 1182 -29 1182 -29 1048 -29 c 0,42,43
 911 -29 911 -29 834 37.5 c 128,-1,44
 757 104 757 104 757 225 c 0,45,32
 757 323 757 323 821 418 c 128,-1,33
1115.5 526 m 128,-1,47
 1068 446 1068 446 1042.5 332.5 c 128,-1,48
 1017 219 1017 219 1017 125 c 0,49,50
 1017 65 1017 65 1028.5 31.5 c 128,-1,51
 1040 -2 1040 -2 1062 -2 c 0,52,53
 1125 -2 1125 -2 1172.5 78 c 128,-1,54
 1220 158 1220 158 1245.5 272 c 128,-1,55
 1271 386 1271 386 1271 481 c 0,56,57
 1271 539 1271 539 1259 572.5 c 128,-1,58
 1247 606 1247 606 1226 606 c 0,59,46
 1163 606 1163 606 1115.5 526 c 128,-1,47
EndSplineSet
EndChar
StartChar: ampersand
Encoding: 38 38 760
Width: 1831
Flags: W
LayerCount: 2
Back
Fore
SplineSet
1871.5 963 m 128,-1,1
 1817 875 1817 875 1714.5 815.5 c 128,-1,2
 1612 756 1612 756 1451 707 c 1,3,4
 1498 630 1498 630 1498 530 c 0,5,6
 1498 397 1498 397 1412 268 c 128,-1,7
 1326 139 1326 139 1149.5 55 c 128,-1,8
 973 -29 973 -29 718 -29 c 0,9,10
 526 -29 526 -29 374 22 c 128,-1,11
 222 73 222 73 134 177 c 128,-1,12
 46 281 46 281 46 432 c 0,13,14
 46 571 46 571 121 686.5 c 128,-1,15
 196 802 196 802 337 883 c 128,-1,16
 478 964 478 964 671 999 c 1,17,18
 566 1027 566 1027 516 1080.5 c 128,-1,19
 466 1134 466 1134 466 1202 c 0,20,21
 466 1278 466 1278 522 1331.5 c 128,-1,22
 578 1385 578 1385 668.5 1411.5 c 128,-1,23
 759 1438 759 1438 861 1438 c 0,24,25
 994 1438 994 1438 1058.5 1395.5 c 128,-1,26
 1123 1353 1123 1353 1123 1282 c 0,27,28
 1123 1238 1123 1238 1100.5 1207.5 c 128,-1,29
 1078 1177 1078 1177 1044 1162 c 128,-1,30
 1010 1147 1010 1147 976 1147 c 1,31,-1
 974 1184 l 1,32,33
 1017 1184 1017 1184 1046.5 1211 c 128,-1,34
 1076 1238 1076 1238 1076 1276 c 0,35,36
 1076 1312 1076 1312 1046 1334 c 128,-1,37
 1016 1356 1016 1356 964 1356 c 0,38,39
 897 1356 897 1356 834.5 1320.5 c 128,-1,40
 772 1285 772 1285 732.5 1220 c 128,-1,41
 693 1155 693 1155 693 1073 c 0,42,43
 693 1042 693 1042 699 1012 c 1,44,45
 774 1024 774 1024 828 1024 c 0,46,47
 902 1024 902 1024 902 981 c 0,48,49
 902 959 902 959 883.5 948.5 c 128,-1,50
 865 938 865 938 839 938 c 0,51,52
 790 938 790 938 697 983 c 1,53,54
 639 957 639 957 590.5 891 c 128,-1,55
 542 825 542 825 514 734.5 c 128,-1,56
 486 644 486 644 486 547 c 0,57,58
 486 358 486 358 596 261 c 128,-1,59
 706 164 706 164 917 164 c 0,60,61
 1053 164 1053 164 1175.5 204 c 128,-1,62
 1298 244 1298 244 1376.5 329.5 c 128,-1,63
 1455 415 1455 415 1455 545 c 0,64,65
 1455 631 1455 631 1417 696 c 1,66,67
 1247 644 1247 644 1162 619 c 2,68,-1
 984 565 l 2,69,70
 892 538 892 538 850 500.5 c 128,-1,71
 808 463 808 463 808 410 c 0,72,73
 808 356 808 356 844.5 333.5 c 128,-1,74
 881 311 881 311 935 311 c 0,75,76
 1015 311 1015 311 1072 352 c 128,-1,77
 1129 393 1129 393 1152 442 c 1,78,-1
 1187 428 l 1,79,80
 1171 390 1171 390 1136 353.5 c 128,-1,81
 1101 317 1101 317 1047.5 292.5 c 128,-1,82
 994 268 994 268 927 268 c 0,83,84
 859 268 859 268 799.5 294.5 c 128,-1,85
 740 321 740 321 702.5 378.5 c 128,-1,86
 665 436 665 436 665 522 c 0,87,88
 665 652 665 652 757 748.5 c 128,-1,89
 849 845 849 845 1035 901 c 2,90,-1
 1279 975 l 1,91,-1
 1578 1065 l 1,92,-1
 1599 1071 l 2,93,94
 1678 1095 1678 1095 1728 1116.5 c 128,-1,95
 1778 1138 1778 1138 1815 1177.5 c 128,-1,96
 1852 1217 1852 1217 1852 1278 c 0,97,98
 1852 1329 1852 1329 1825 1367 c 128,-1,99
 1798 1405 1798 1405 1752 1424.5 c 128,-1,100
 1706 1444 1706 1444 1650 1444 c 0,101,102
 1617 1444 1617 1444 1594 1436 c 1,103,104
 1713 1390 1713 1390 1713 1288 c 0,105,106
 1713 1236 1713 1236 1682 1197.5 c 128,-1,107
 1651 1159 1651 1159 1601.5 1138.5 c 128,-1,108
 1552 1118 1552 1118 1498 1118 c 0,109,110
 1445 1118 1445 1118 1402.5 1138.5 c 128,-1,111
 1360 1159 1360 1159 1336 1195.5 c 128,-1,112
 1312 1232 1312 1232 1312 1278 c 0,113,114
 1312 1339 1312 1339 1350.5 1382.5 c 128,-1,115
 1389 1426 1389 1426 1455 1450 c 0,116,117
 1525 1479 1525 1479 1633 1479 c 0,118,119
 1926 1479 1926 1479 1926 1180 c 0,120,0
 1926 1051 1926 1051 1871.5 963 c 128,-1,1
EndSplineSet
Substitution2: "'smcp' Lowercase to Small Capitals lookup 24 subtable" ampersand.smcp
Substitution2: "'c2sc' Capitals to Small Capitals lookup 23 subtable" ampersand.smcp
Substitution2: "'aalt' Access All Alternates lookup 0 subtable" ampersand.smcp
EndChar
StartChar: quotesingle
Encoding: 39 39 685
Width: 524
Flags: W
LayerCount: 2
Back
Fore
SplineSet
601 1292 m 128,-1,1
 582 1248 582 1248 554.5 1208.5 c 128,-1,2
 527 1169 527 1169 480 1107 c 0,3,4
 402 1007 402 1007 376 958 c 1,5,-1
 347 958 l 1,6,7
 336 1034 336 1034 304 1135 c 0,8,9
 289 1186 289 1186 282 1216 c 128,-1,10
 275 1246 275 1246 275 1278 c 0,11,12
 275 1335 275 1335 301.5 1385 c 128,-1,13
 328 1435 328 1435 376.5 1465 c 128,-1,14
 425 1495 425 1495 486 1495 c 0,15,16
 545 1495 545 1495 581.5 1464 c 128,-1,17
 618 1433 618 1433 620 1378 c 0,18,0
 620 1336 620 1336 601 1292 c 128,-1,1
EndSplineSet
EndChar
StartChar: parenright
Encoding: 41 41 643
Width: 862
Flags: W
LayerCount: 2
Back
Fore
SplineSet
597 1402 m 128,-1,1
 698 1281 698 1281 754.5 1138 c 128,-1,2
 811 995 811 995 811 821 c 0,3,4
 811 599 811 599 681 377.5 c 128,-1,5
 551 156 551 156 322.5 -37 c 128,-1,6
 94 -230 94 -230 -199 -373 c 1,7,-1
 -219 -346 l 1,8,9
 -6 -185 -6 -185 140.5 -5 c 128,-1,10
 287 175 287 175 368 403 c 128,-1,11
 449 631 449 631 449 915 c 0,12,13
 449 1112 449 1112 414.5 1273 c 128,-1,14
 380 1434 380 1434 305 1624 c 1,15,-1
 342 1651 l 1,16,0
 496 1523 496 1523 597 1402 c 128,-1,1
EndSplineSet
Substitution2: "'case' Case-Sensitive Forms lookup 25 subtable" parenright.case
Substitution2: "'smcp' Lowercase to Small Capitals lookup 24 subtable" parenright.smcp
Substitution2: "'c2sc' Capitals to Small Capitals lookup 23 subtable" parenright.smcp
AlternateSubs2: "'aalt' Access All Alternates lookup 1 subtable" parenright.smcp parenright.case
EndChar
StartChar: asterisk
Encoding: 42 42 671
Width: 977
Flags: W
LayerCount: 2
Back
Fore
SplineSet
1041 1236 m 0,1,2
 1041 1163 1041 1163 957 1122 c 0,3,4
 922 1104 922 1104 878.5 1096 c 128,-1,5
 835 1088 835 1088 750 1078 c 0,6,7
 591 1056 591 1056 627 1062 c 1,8,9
 687 1053 687 1053 736 1047 c 0,10,11
 818 1036 818 1036 859.5 1027.5 c 128,-1,12
 901 1019 901 1019 927 1001 c 0,13,14
 966 976 966 976 966 935 c 256,15,16
 966 894 966 894 927 846 c 0,17,18
 877 783 877 783 819 783 c 0,19,20
 789 783 789 783 763 801 c 256,21,22
 737 819 737 819 716 852 c 128,-1,23
 695 885 695 885 663 949 c 0,24,25
 625 1023 625 1023 613 1044 c 1,26,27
 622 987 622 987 631 939 c 0,28,29
 633 925 633 925 641 877.5 c 128,-1,30
 649 830 649 830 649 795 c 0,31,32
 649 764 649 764 642 739 c 0,33,34
 628 682 628 682 588 655.5 c 128,-1,35
 548 629 548 629 501 629 c 0,36,37
 459 629 459 629 432.5 647 c 128,-1,38
 406 665 406 665 406 704 c 0,39,40
 406 717 406 717 411 739 c 0,41,42
 420 775 420 775 444.5 816.5 c 128,-1,43
 469 858 469 858 519 932 c 0,44,45
 566 1002 566 1002 594 1045 c 1,46,47
 557 1010 557 1010 495 948 c 0,48,49
 430 883 430 883 393 850 c 128,-1,50
 356 817 356 817 323 799 c 0,51,52
 286 781 286 781 258 781 c 0,53,54
 228 781 228 781 207.5 799 c 128,-1,55
 187 817 187 817 179 844 c 0,56,57
 172 862 172 862 172 885 c 0,58,59
 172 958 172 958 255 999 c 0,60,61
 291 1017 291 1017 335.5 1025.5 c 128,-1,62
 380 1034 380 1034 466 1043 c 0,63,64
 488 1046 488 1046 519 1049.5 c 128,-1,65
 550 1053 550 1053 591 1059 c 1,66,67
 535 1067 535 1067 479 1074 c 0,68,69
 395 1085 395 1085 353 1093.5 c 128,-1,70
 311 1102 311 1102 286 1120 c 0,71,72
 247 1145 247 1145 247 1187 c 0,73,74
 247 1230 247 1230 286 1276 c 0,75,76
 336 1339 336 1339 394 1339 c 0,77,78
 424 1339 424 1339 450 1321 c 256,79,80
 476 1303 476 1303 496.5 1270.5 c 128,-1,81
 517 1238 517 1238 551 1171 c 0,82,83
 582 1109 582 1109 601 1073 c 1,84,85
 597 1102 597 1102 583 1181 c 0,86,87
 564 1289 564 1289 564 1328 c 0,88,89
 564 1356 564 1356 570 1382 c 0,90,91
 585 1439 585 1439 625 1466 c 128,-1,92
 665 1493 665 1493 714 1493 c 0,93,94
 754 1493 754 1493 780 1474 c 128,-1,95
 806 1455 806 1455 806 1416 c 0,96,97
 806 1398 806 1398 802 1382 c 0,98,99
 793 1347 793 1347 769.5 1307.5 c 128,-1,100
 746 1268 746 1268 698 1197 c 0,101,102
 663 1145 663 1145 621 1080 c 1,103,104
 656 1113 656 1113 715 1172 c 0,105,106
 779 1236 779 1236 817.5 1270.5 c 128,-1,107
 856 1305 856 1305 890 1323 c 0,108,109
 928 1341 928 1341 955 1341 c 0,110,111
 985 1341 985 1341 1005 1323.5 c 128,-1,112
 1025 1306 1025 1306 1033 1278 c 0,113,0
 1041 1257 1041 1257 1041 1236 c 0,1,2
EndSplineSet
EndChar
StartChar: plus
Encoding: 43 43 741
Width: 1165
Flags: W
LayerCount: 2
Back
Fore
SplineSet
726 1241 m 1,0,-1
 800 1241 l 1,1,-1
 663 758 l 1,2,-1
 1138 758 l 1,3,-1
 1119 696 l 1,4,-1
 644 696 l 1,5,-1
 507 215 l 1,6,-1
 433 215 l 1,7,-1
 570 696 l 1,8,-1
 93 696 l 1,9,-1
 112 758 l 1,10,-1
 589 758 l 1,11,-1
 726 1241 l 1,0,-1
EndSplineSet
EndChar
StartChar: comma
Encoding: 44 44 675
Width: 635
Flags: W
LayerCount: 2
Back
Fore
SplineSet
311 -104.5 m 128,-1,1
 229 -221 229 -221 86 -283 c 1,2,-1
 76 -246 l 1,3,4
 166 -208 166 -208 230.5 -133 c 128,-1,5
 295 -58 295 -58 301 35 c 1,6,7
 240 -29 240 -29 158 -29 c 0,8,9
 81 -29 81 -29 39.5 5.5 c 128,-1,10
 -2 40 -2 40 -2 106 c 0,11,12
 -2 169 -2 169 28 218.5 c 128,-1,13
 58 268 58 268 110 296 c 128,-1,14
 162 324 162 324 227 324 c 0,15,16
 393 324 393 324 393 156 c 0,17,0
 393 12 393 12 311 -104.5 c 128,-1,1
EndSplineSet
EndChar
StartChar: period
Encoding: 46 46 680
Width: 618
Flags: W
LayerCount: 2
Back
Fore
SplineSet
28 218.5 m 128,-1,1
 58 268 58 268 110 296 c 128,-1,2
 162 324 162 324 227 324 c 0,3,4
 306 324 306 324 347.5 288.5 c 128,-1,5
 389 253 389 253 389 184 c 0,6,7
 389 130 389 130 358 81 c 128,-1,8
 327 32 327 32 274 1.5 c 128,-1,9
 221 -29 221 -29 158 -29 c 0,10,11
 79 -29 79 -29 38.5 5.5 c 128,-1,12
 -2 40 -2 40 -2 106 c 0,13,0
 -2 169 -2 169 28 218.5 c 128,-1,1
EndSplineSet
EndChar
StartChar: slash
Encoding: 47 47 687
Width: 934
Flags: W
LayerCount: 2
Back
Fore
SplineSet
1094 1479 m 1,0,-1
 -29 -29 l 1,1,-1
 -96 -29 l 1,2,-1
 1026 1479 l 1,3,-1
 1094 1479 l 1,0,-1
EndSplineSet
Substitution2: "'frac' Diagonal Fractions lookup 16 subtable" fraction
Substitution2: "'aalt' Access All Alternates lookup 0 subtable" fraction
EndChar
StartChar: zero
Encoding: 48 48 572
Width: 1350
Flags: W
LayerCount: 2
Back
Fore
SplineSet
1057 1045.5 m 128,-1,1
 1160 999 1160 999 1215.5 913 c 128,-1,2
 1271 827 1271 827 1271 711 c 0,3,4
 1271 528 1271 528 1164 356.5 c 128,-1,5
 1057 185 1057 185 877.5 78 c 128,-1,6
 698 -29 698 -29 495 -29 c 0,7,8
 356 -29 356 -29 253 17.5 c 128,-1,9
 150 64 150 64 94 150 c 128,-1,10
 38 236 38 236 38 352 c 0,11,12
 38 535 38 535 144.5 706.5 c 128,-1,13
 251 878 251 878 430 985 c 128,-1,14
 609 1092 609 1092 814 1092 c 0,15,0
 954 1092 954 1092 1057 1045.5 c 128,-1,1
587.5 941 m 128,-1,17
 502 827 502 827 456.5 651 c 128,-1,18
 411 475 411 475 411 297 c 0,19,20
 411 153 411 153 442.5 80.5 c 128,-1,21
 474 8 474 8 523 8 c 0,22,23
 635 8 635 8 720.5 122.5 c 128,-1,24
 806 237 806 237 852 413.5 c 128,-1,25
 898 590 898 590 898 766 c 0,26,27
 898 911 898 911 866.5 983 c 128,-1,28
 835 1055 835 1055 785 1055 c 0,29,16
 673 1055 673 1055 587.5 941 c 128,-1,17
EndSplineSet
Substitution2: "'case' Case-Sensitive Forms lookup 25 subtable" zero.lf
Substitution2: "'lnum' Lining Figures lookup 20 subtable" zero.lf
Substitution2: "'frac' Diagonal Fractions lookup 17 subtable" zero.numr
Substitution2: "'dnom' Denominators lookup 15 subtable" zero.dnom
Substitution2: "'numr' Numerators lookup 14 subtable" zero.numr
Substitution2: "'sups' Superscript lookup 13 subtable" zero.sups
Substitution2: "'sinf' Scientific Inferiors lookup 12 subtable" zero.subs
Substitution2: "'subs' Subscript lookup 11 subtable" zero.subs
AlternateSubs2: "'aalt' Access All Alternates lookup 1 subtable" zero.subs zero.sups zero.numr zero.dnom zero.lf
EndChar
StartChar: one
Encoding: 49 49 573
Width: 801
Flags: W
LayerCount: 2
Back
Fore
SplineSet
81 0 m 1,0,-1
 335 850 l 1,1,2
 267 829 267 829 85 791 c 1,3,-1
 91 834 l 1,4,5
 244 867 244 867 360.5 908 c 128,-1,6
 477 949 477 949 558 990.5 c 128,-1,7
 639 1032 639 1032 728 1085 c 1,8,-1
 769 1085 l 1,9,-1
 443 0 l 1,10,-1
 81 0 l 1,0,-1
EndSplineSet
Substitution2: "'case' Case-Sensitive Forms lookup 25 subtable" one.lf
Substitution2: "'lnum' Lining Figures lookup 20 subtable" one.lf
Substitution2: "'frac' Diagonal Fractions lookup 17 subtable" one.numr
Substitution2: "'dnom' Denominators lookup 15 subtable" one.dnom
Substitution2: "'numr' Numerators lookup 14 subtable" one.numr
Substitution2: "'sups' Superscript lookup 13 subtable" onesuperior
Substitution2: "'sinf' Scientific Inferiors lookup 12 subtable" one.subs
Substitution2: "'subs' Subscript lookup 11 subtable" one.subs
AlternateSubs2: "'aalt' Access All Alternates lookup 1 subtable" one.subs onesuperior one.numr one.dnom one.lf
EndChar
StartChar: two
Encoding: 50 50 574
Width: 1139
Flags: W
LayerCount: 2
Back
Fore
SplineSet
864.5 1064 m 128,-1,1
 946 1036 946 1036 990 985 c 128,-1,2
 1034 934 1034 934 1034 868 c 0,3,4
 1034 784 1034 784 966.5 709 c 128,-1,5
 899 634 899 634 805 575 c 128,-1,6
 711 516 711 516 563 437 c 0,7,8
 541 425 541 425 473 388.5 c 128,-1,9
 405 352 405 352 362 322 c 1,10,11
 403 322 403 322 499 297 c 0,12,13
 623 264 623 264 698 264 c 0,14,15
 786 264 786 264 841.5 289.5 c 128,-1,16
 897 315 897 315 897 362 c 0,17,18
 897 416 897 416 831 453 c 1,19,-1
 852 479 l 1,20,21
 914 444 914 444 940.5 401 c 128,-1,22
 967 358 967 358 967 297 c 0,23,24
 967 217 967 217 928.5 146.5 c 128,-1,25
 890 76 890 76 808.5 32 c 128,-1,26
 727 -12 727 -12 606 -12 c 0,27,28
 535 -12 535 -12 404 17 c 0,29,30
 326 34 326 34 274 42 c 128,-1,31
 222 50 222 50 162 50 c 0,32,33
 99 50 99 50 54.5 38.5 c 128,-1,34
 10 27 10 27 -55 0 c 1,35,-1
 -45 43 l 1,36,37
 -21 63 -21 63 59 123 c 0,38,39
 226 249 226 249 352 358.5 c 128,-1,40
 478 468 478 468 579 604.5 c 128,-1,41
 680 741 680 741 680 868 c 0,42,43
 680 948 680 948 638 987 c 128,-1,44
 596 1026 596 1026 524 1026 c 0,45,46
 441 1026 441 1026 359 980.5 c 128,-1,47
 277 935 277 935 224.5 863 c 128,-1,48
 172 791 172 791 172 717 c 0,49,50
 172 667 172 667 199.5 642.5 c 128,-1,51
 227 618 227 618 289 618 c 0,52,53
 344 618 344 618 386 638 c 128,-1,54
 428 658 428 658 479 702 c 1,55,-1
 504 674 l 1,56,57
 450 623 450 623 390.5 599 c 128,-1,58
 331 575 331 575 276 575 c 0,59,60
 213 575 213 575 168 606 c 128,-1,61
 123 637 123 637 123 715 c 0,62,63
 123 807 123 807 192 894 c 128,-1,64
 261 981 261 981 386.5 1036.5 c 128,-1,65
 512 1092 512 1092 672 1092 c 0,66,0
 783 1092 783 1092 864.5 1064 c 128,-1,1
EndSplineSet
Substitution2: "'case' Case-Sensitive Forms lookup 25 subtable" two.lf
Substitution2: "'lnum' Lining Figures lookup 20 subtable" two.lf
Substitution2: "'frac' Diagonal Fractions lookup 17 subtable" two.numr
Substitution2: "'dnom' Denominators lookup 15 subtable" two.dnom
Substitution2: "'numr' Numerators lookup 14 subtable" two.numr
Substitution2: "'sups' Superscript lookup 13 subtable" twosuperior
Substitution2: "'sinf' Scientific Inferiors lookup 12 subtable" two.subs
Substitution2: "'subs' Subscript lookup 11 subtable" two.subs
AlternateSubs2: "'aalt' Access All Alternates lookup 1 subtable" two.subs twosuperior two.numr two.dnom two.lf
EndChar
StartChar: three
Encoding: 51 51 575
Width: 1104
Flags: W
LayerCount: 2
Back
Fore
SplineSet
842 1066 m 128,-1,1
 927 1040 927 1040 972.5 993 c 128,-1,2
 1018 946 1018 946 1018 885 c 0,3,4
 1018 793 1018 793 942 717.5 c 128,-1,5
 866 642 866 642 750.5 590.5 c 128,-1,6
 635 539 635 539 512 512 c 1,7,8
 710 509 710 509 826 446.5 c 128,-1,9
 942 384 942 384 942 248 c 0,10,11
 942 90 942 90 760.5 -36 c 128,-1,12
 579 -162 579 -162 313.5 -234 c 128,-1,13
 48 -306 48 -306 -186 -309 c 1,14,-1
 -176 -272 l 1,15,16
 -5 -261 -5 -261 166.5 -192.5 c 128,-1,17
 338 -124 338 -124 452.5 0 c 128,-1,18
 567 124 567 124 567 293 c 0,19,20
 567 375 567 375 543 425 c 128,-1,21
 519 475 519 475 475 479 c 1,22,23
 427 460 427 460 403 452 c 128,-1,24
 379 444 379 444 356 444 c 0,25,26
 320 444 320 444 320 465 c 0,27,28
 320 467 320 467 322 475 c 0,29,30
 330 513 330 513 419 513 c 0,31,32
 445 513 445 513 459 512 c 1,33,34
 559 558 559 558 619.5 636.5 c 128,-1,35
 680 715 680 715 680 821 c 0,36,37
 680 908 680 908 626 957 c 128,-1,38
 572 1006 572 1006 473 1006 c 0,39,40
 400 1006 400 1006 332.5 973 c 128,-1,41
 265 940 265 940 223.5 886.5 c 128,-1,42
 182 833 182 833 182 778 c 0,43,44
 182 728 182 728 210 704 c 128,-1,45
 238 680 238 680 301 680 c 0,46,47
 370 680 370 680 428 711 c 1,48,-1
 451 680 l 1,49,50
 371 637 371 637 287 637 c 0,51,52
 224 637 224 637 178.5 668 c 128,-1,53
 133 699 133 699 133 776 c 0,54,55
 133 851 133 851 201 924.5 c 128,-1,56
 269 998 269 998 386.5 1045 c 128,-1,57
 504 1092 504 1092 643 1092 c 0,58,0
 757 1092 757 1092 842 1066 c 128,-1,1
EndSplineSet
Substitution2: "'case' Case-Sensitive Forms lookup 25 subtable" three.lf
Substitution2: "'lnum' Lining Figures lookup 20 subtable" three.lf
Substitution2: "'frac' Diagonal Fractions lookup 17 subtable" three.numr
Substitution2: "'dnom' Denominators lookup 15 subtable" three.dnom
Substitution2: "'numr' Numerators lookup 14 subtable" three.numr
Substitution2: "'sups' Superscript lookup 13 subtable" threesuperior
Substitution2: "'sinf' Scientific Inferiors lookup 12 subtable" three.subs
Substitution2: "'subs' Subscript lookup 11 subtable" three.subs
AlternateSubs2: "'aalt' Access All Alternates lookup 1 subtable" three.subs threesuperior three.numr three.dnom three.lf
EndChar
StartChar: four
Encoding: 52 52 576
Width: 1124
Flags: W
LayerCount: 2
Back
Fore
SplineSet
715 111 m 1,0,-1
 608 -289 l 1,1,-1
 246 -289 l 1,2,-1
 354 111 l 1,3,-1
 -127 111 l 1,4,-1
 -115 154 l 1,5,-1
 926 1092 l 1,6,-1
 979 1092 l 1,7,-1
 727 154 l 1,8,-1
 989 154 l 1,9,-1
 977 111 l 1,10,-1
 715 111 l 1,0,-1
501 654 m 1,11,-1
 -54 154 l 1,12,-1
 366 154 l 1,13,-1
 501 654 l 1,11,-1
EndSplineSet
Substitution2: "'case' Case-Sensitive Forms lookup 25 subtable" four.lf
Substitution2: "'lnum' Lining Figures lookup 20 subtable" four.lf
Substitution2: "'frac' Diagonal Fractions lookup 17 subtable" four.numr
Substitution2: "'dnom' Denominators lookup 15 subtable" four.dnom
Substitution2: "'numr' Numerators lookup 14 subtable" four.numr
Substitution2: "'sups' Superscript lookup 13 subtable" four.sups
Substitution2: "'sinf' Scientific Inferiors lookup 12 subtable" four.subs
Substitution2: "'subs' Subscript lookup 11 subtable" four.subs
AlternateSubs2: "'aalt' Access All Alternates lookup 1 subtable" four.subs four.sups four.numr four.dnom four.lf
EndChar
StartChar: five
Encoding: 53 53 577
Width: 983
Flags: W
LayerCount: 2
Back
Fore
SplineSet
780.5 846.5 m 128,-1,1
 699 760 699 760 596 760 c 0,2,3
 566 760 566 760 533 769 c 128,-1,4
 500 778 500 778 449 797 c 0,5,6
 354 832 354 832 312 832 c 0,7,8
 299 832 299 832 293 831 c 1,9,-1
 129 461 l 1,10,11
 262 535 262 535 465 535 c 0,12,13
 840 535 840 535 840 285 c 0,14,15
 840 112 840 112 674 -20 c 128,-1,16
 508 -152 508 -152 267 -225 c 128,-1,17
 26 -298 26 -298 -190 -303 c 1,18,-1
 -180 -266 l 1,19,20
 -36 -266 -36 -266 113.5 -198 c 128,-1,21
 263 -130 263 -130 362 -5.5 c 128,-1,22
 461 119 461 119 461 281 c 0,23,24
 461 376 461 376 420 424.5 c 128,-1,25
 379 473 379 473 285 473 c 0,26,27
 197 473 197 473 100 418 c 1,28,-1
 80 428 l 1,29,-1
 348 1061 l 1,30,31
 411 1064 411 1064 518 1037 c 0,32,33
 573 1023 573 1023 610.5 1016.5 c 128,-1,34
 648 1010 648 1010 690 1010 c 0,35,36
 762 1010 762 1010 810 1030 c 128,-1,37
 858 1050 858 1050 893 1102 c 1,38,-1
 918 1087 l 1,39,0
 862 933 862 933 780.5 846.5 c 128,-1,1
EndSplineSet
Substitution2: "'case' Case-Sensitive Forms lookup 25 subtable" five.lf
Substitution2: "'lnum' Lining Figures lookup 20 subtable" five.lf
Substitution2: "'frac' Diagonal Fractions lookup 17 subtable" five.numr
Substitution2: "'dnom' Denominators lookup 15 subtable" five.dnom
Substitution2: "'numr' Numerators lookup 14 subtable" five.numr
Substitution2: "'sups' Superscript lookup 13 subtable" five.sups
Substitution2: "'sinf' Scientific Inferiors lookup 12 subtable" five.subs
Substitution2: "'subs' Subscript lookup 11 subtable" five.subs
AlternateSubs2: "'aalt' Access All Alternates lookup 1 subtable" five.subs five.sups five.numr five.dnom five.lf
EndChar
StartChar: six
Encoding: 54 54 578
Width: 1214
Flags: W
LayerCount: 2
Back
Fore
SplineSet
805 1222 m 128,-1,1
 634 1060 634 1060 524.5 804 c 128,-1,2
 415 548 415 548 415 231 c 0,3,4
 415 145 415 145 423.5 97.5 c 128,-1,5
 432 50 432 50 449.5 31 c 128,-1,6
 467 12 467 12 495 12 c 0,7,8
 567 12 567 12 629.5 112 c 128,-1,9
 692 212 692 212 729.5 355 c 128,-1,10
 767 498 767 498 767 612 c 0,11,12
 767 700 767 700 744.5 738 c 128,-1,13
 722 776 722 776 687 776 c 0,14,15
 645 776 645 776 604 730 c 128,-1,16
 563 684 563 684 538 590 c 1,17,-1
 503 600 l 1,18,19
 544 757 544 757 627 827 c 128,-1,20
 710 897 710 897 833 897 c 0,21,22
 923 897 923 897 993 862 c 128,-1,23
 1063 827 1063 827 1103.5 756.5 c 128,-1,24
 1144 686 1144 686 1144 586 c 0,25,26
 1144 428 1144 428 1047 286 c 128,-1,27
 950 144 950 144 786 57.5 c 128,-1,28
 622 -29 622 -29 431 -29 c 0,29,30
 44 -29 44 -29 44 354 c 0,31,32
 44 629 44 629 224.5 874.5 c 128,-1,33
 405 1120 405 1120 665 1281.5 c 128,-1,34
 925 1443 925 1443 1146 1479 c 1,35,-1
 1158 1438 l 1,36,0
 976 1384 976 1384 805 1222 c 128,-1,1
EndSplineSet
Substitution2: "'case' Case-Sensitive Forms lookup 25 subtable" six.lf
Substitution2: "'lnum' Lining Figures lookup 20 subtable" six.lf
Substitution2: "'frac' Diagonal Fractions lookup 17 subtable" six.numr
Substitution2: "'dnom' Denominators lookup 15 subtable" six.dnom
Substitution2: "'numr' Numerators lookup 14 subtable" six.numr
Substitution2: "'sups' Superscript lookup 13 subtable" six.sups
Substitution2: "'sinf' Scientific Inferiors lookup 12 subtable" six.subs
Substitution2: "'subs' Subscript lookup 11 subtable" six.subs
AlternateSubs2: "'aalt' Access All Alternates lookup 1 subtable" six.subs six.sups six.numr six.dnom six.lf
EndChar
StartChar: seven
Encoding: 55 55 579
Width: 1053
Flags: W
LayerCount: 2
Back
Fore
SplineSet
852 675 m 128,-1,1
 747 543 747 543 675.5 395 c 128,-1,2
 604 247 604 247 548 25 c 0,3,4
 525 -70 525 -70 521 -104 c 2,5,-1
 515 -137 l 2,6,7
 501 -210 501 -210 444.5 -256.5 c 128,-1,8
 388 -303 388 -303 294 -303 c 0,9,10
 133 -303 133 -303 133 -156 c 0,11,12
 133 -115 133 -115 146 -66 c 0,13,14
 181 62 181 62 286 201 c 128,-1,15
 391 340 391 340 517 462.5 c 128,-1,16
 643 585 643 585 838 759 c 0,17,18
 999 901 999 901 1069 970 c 1,19,20
 1013 934 1013 934 923 874 c 0,21,22
 839 817 839 817 792.5 789.5 c 128,-1,23
 746 762 746 762 696.5 745.5 c 128,-1,24
 647 729 647 729 591 729 c 0,25,26
 546 729 546 729 513 737.5 c 128,-1,27
 480 746 480 746 430 765 c 0,28,29
 353 797 353 797 298 797 c 0,30,31
 240 797 240 797 203.5 770 c 128,-1,32
 167 743 167 743 167 686 c 0,33,34
 167 615 167 615 226 568.5 c 128,-1,35
 285 522 285 522 390 498 c 1,36,-1
 380 463 l 1,37,38
 77 525 77 525 77 762 c 0,39,40
 77 843 77 843 112.5 913.5 c 128,-1,41
 148 984 148 984 225 1028.5 c 128,-1,42
 302 1073 302 1073 419 1073 c 0,43,44
 479 1073 479 1073 530 1063 c 128,-1,45
 581 1053 581 1053 663 1031 c 0,46,47
 747 1008 747 1008 812 995.5 c 128,-1,48
 877 983 877 983 954 983 c 0,49,50
 1010 983 1010 983 1052.5 999.5 c 128,-1,51
 1095 1016 1095 1016 1127 1061 c 1,52,-1
 1187 1061 l 1,53,0
 957 807 957 807 852 675 c 128,-1,1
EndSplineSet
Substitution2: "'case' Case-Sensitive Forms lookup 25 subtable" seven.lf
Substitution2: "'lnum' Lining Figures lookup 20 subtable" seven.lf
Substitution2: "'frac' Diagonal Fractions lookup 17 subtable" seven.numr
Substitution2: "'dnom' Denominators lookup 15 subtable" seven.dnom
Substitution2: "'numr' Numerators lookup 14 subtable" seven.numr
Substitution2: "'sups' Superscript lookup 13 subtable" seven.sups
Substitution2: "'sinf' Scientific Inferiors lookup 12 subtable" seven.subs
Substitution2: "'subs' Subscript lookup 11 subtable" seven.subs
AlternateSubs2: "'aalt' Access All Alternates lookup 1 subtable" seven.subs seven.sups seven.numr seven.dnom seven.lf
EndChar
StartChar: eight
Encoding: 56 56 580
Width: 1219
Flags: W
LayerCount: 2
Back
Fore
SplineSet
809 844 m 1,1,-1
 852 807 l 2,2,3
 926 743 926 743 970 697 c 128,-1,4
 1014 651 1014 651 1044.5 589 c 128,-1,5
 1075 527 1075 527 1075 451 c 0,6,7
 1075 317 1075 317 981.5 207 c 128,-1,8
 888 97 888 97 734 34 c 128,-1,9
 580 -29 580 -29 408 -29 c 0,10,11
 287 -29 287 -29 189.5 0 c 128,-1,12
 92 29 92 29 34.5 90 c 128,-1,13
 -23 151 -23 151 -23 242 c 0,14,15
 -23 389 -23 389 131 514 c 128,-1,16
 285 639 285 639 514 725 c 1,17,18
 447 788 447 788 406.5 833.5 c 128,-1,19
 366 879 366 879 338.5 937.5 c 128,-1,20
 311 996 311 996 311 1067 c 0,21,22
 311 1187 311 1187 390.5 1281 c 128,-1,23
 470 1375 470 1375 602 1427 c 128,-1,24
 734 1479 734 1479 885 1479 c 0,25,26
 1052 1479 1052 1479 1157 1422.5 c 128,-1,27
 1262 1366 1262 1366 1262 1257 c 0,28,0
 1262 1046 1262 1046 809 844 c 1,1,-1
875 1054.5 m 128,-1,30
 911 1163 911 1163 911 1278 c 0,31,32
 911 1442 911 1442 825 1442 c 0,33,34
 778 1442 778 1442 733.5 1400 c 128,-1,35
 689 1358 689 1358 661 1291.5 c 128,-1,36
 633 1225 633 1225 633 1155 c 0,37,38
 633 1070 633 1070 671.5 1003.5 c 128,-1,39
 710 937 710 937 780 871 c 1,40,29
 839 946 839 946 875 1054.5 c 128,-1,30
592 57 m 128,-1,42
 655 106 655 106 694 185.5 c 128,-1,43
 733 265 733 265 733 352 c 0,44,45
 733 426 733 426 707 487.5 c 128,-1,46
 681 549 681 549 640.5 597 c 128,-1,47
 600 645 600 645 538 702 c 1,48,49
 452 618 452 618 397 486 c 128,-1,50
 342 354 342 354 342 207 c 0,51,52
 342 111 342 111 370 59.5 c 128,-1,53
 398 8 398 8 463 8 c 0,54,41
 529 8 529 8 592 57 c 128,-1,42
EndSplineSet
Substitution2: "'case' Case-Sensitive Forms lookup 25 subtable" eight.lf
Substitution2: "'lnum' Lining Figures lookup 20 subtable" eight.lf
Substitution2: "'frac' Diagonal Fractions lookup 17 subtable" eight.numr
Substitution2: "'dnom' Denominators lookup 15 subtable" eight.dnom
Substitution2: "'numr' Numerators lookup 14 subtable" eight.numr
Substitution2: "'sups' Superscript lookup 13 subtable" eight.sups
Substitution2: "'sinf' Scientific Inferiors lookup 12 subtable" eight.subs
Substitution2: "'subs' Subscript lookup 11 subtable" eight.subs
AlternateSubs2: "'aalt' Access All Alternates lookup 1 subtable" eight.subs eight.sups eight.numr eight.dnom eight.lf
EndChar
StartChar: nine
Encoding: 57 57 581
Width: 1192
Flags: W
LayerCount: 2
Back
Fore
SplineSet
1123 709 m 0,1,2
 1123 443 1123 443 945.5 203.5 c 128,-1,3
 768 -36 768 -36 512.5 -194 c 128,-1,4
 257 -352 257 -352 42 -385 c 1,5,-1
 30 -344 l 1,6,7
 206 -293 206 -293 373 -133.5 c 128,-1,8
 540 26 540 26 646.5 275.5 c 128,-1,9
 753 525 753 525 753 831 c 0,10,11
 753 917 753 917 744 965 c 128,-1,12
 735 1013 735 1013 718 1032 c 128,-1,13
 701 1051 701 1051 673 1051 c 0,14,15
 601 1051 601 1051 538 951 c 128,-1,16
 475 851 475 851 437.5 708.5 c 128,-1,17
 400 566 400 566 400 451 c 0,18,19
 400 363 400 363 422.5 325 c 128,-1,20
 445 287 445 287 480 287 c 0,21,22
 522 287 522 287 563 333 c 128,-1,23
 604 379 604 379 630 473 c 1,24,-1
 665 463 l 1,25,26
 623 306 623 306 540 236 c 128,-1,27
 457 166 457 166 335 166 c 0,28,29
 245 166 245 166 175 201 c 128,-1,30
 105 236 105 236 64.5 306.5 c 128,-1,31
 24 377 24 377 24 477 c 0,32,33
 24 635 24 635 120.5 777 c 128,-1,34
 217 919 217 919 381 1005.5 c 128,-1,35
 545 1092 545 1092 736 1092 c 0,36,0
 1123 1092 1123 1092 1123 709 c 0,1,2
EndSplineSet
Substitution2: "'case' Case-Sensitive Forms lookup 25 subtable" nine.lf
Substitution2: "'lnum' Lining Figures lookup 20 subtable" nine.lf
Substitution2: "'frac' Diagonal Fractions lookup 17 subtable" nine.numr
Substitution2: "'dnom' Denominators lookup 15 subtable" nine.dnom
Substitution2: "'numr' Numerators lookup 14 subtable" nine.numr
Substitution2: "'sups' Superscript lookup 13 subtable" nine.sups
Substitution2: "'sinf' Scientific Inferiors lookup 12 subtable" nine.subs
Substitution2: "'subs' Subscript lookup 11 subtable" nine.subs
AlternateSubs2: "'aalt' Access All Alternates lookup 1 subtable" nine.subs nine.sups nine.numr nine.dnom nine.lf
EndChar
StartChar: less
Encoding: 60 60 732
Width: 1204
Flags: W
LayerCount: 2
Back
Fore
SplineSet
247 719 m 1,0,-1
 925 362 l 1,1,-1
 892 297 l 1,2,-1
 93 727 l 1,3,-1
 1224 1192 l 1,4,-1
 1244 1133 l 1,5,-1
 247 719 l 1,0,-1
EndSplineSet
EndChar
StartChar: equal
Encoding: 61 61 727
Width: 1313
Flags: W
LayerCount: 2
Back
Fore
SplineSet
1246 901 m 1,0,-1
 1228 840 l 1,1,-1
 202 840 l 1,2,-1
 220 901 l 1,3,-1
 1246 901 l 1,0,-1
1164 614 m 1,4,-1
 1146 553 l 1,5,-1
 120 553 l 1,6,-1
 138 614 l 1,7,-1
 1164 614 l 1,4,-1
EndSplineSet
EndChar
StartChar: greater
Encoding: 62 62 728
Width: 1210
Flags: W
LayerCount: 2
Back
Fore
SplineSet
1033 770 m 1,0,-1
 275 1176 l 1,1,-1
 308 1235 l 1,2,-1
 1187 762 l 1,3,-1
 112 317 l 1,4,-1
 91 377 l 1,5,-1
 1033 770 l 1,0,-1
EndSplineSet
EndChar
StartChar: question
Encoding: 63 63 682
Width: 1061
Flags: W
LayerCount: 2
Back
Fore
SplineSet
448 1513 m 1,1,2
 498 1516 498 1516 545 1496.5 c 128,-1,3
 592 1477 592 1477 621 1439 c 128,-1,4
 650 1401 650 1401 650 1354 c 0,5,6
 650 1305 650 1305 625 1263 c 128,-1,7
 600 1221 600 1221 556.5 1196 c 128,-1,8
 513 1171 513 1171 460 1171 c 0,9,10
 413 1171 413 1171 370 1192 c 128,-1,11
 327 1213 327 1213 300 1252.5 c 128,-1,12
 273 1292 273 1292 273 1346 c 0,13,14
 273 1442 273 1442 343.5 1499 c 128,-1,15
 414 1556 414 1556 516 1579 c 128,-1,16
 618 1602 618 1602 724 1602 c 0,17,18
 842 1602 842 1602 945 1572.5 c 128,-1,19
 1048 1543 1048 1543 1111.5 1483.5 c 128,-1,20
 1175 1424 1175 1424 1175 1339 c 0,21,22
 1175 1281 1175 1281 1134.5 1222 c 128,-1,23
 1094 1163 1094 1163 1013 1093.5 c 128,-1,24
 932 1024 932 1024 790 922 c 0,25,26
 650 822 650 822 581.5 761 c 128,-1,27
 513 700 513 700 487.5 654.5 c 128,-1,28
 462 609 462 609 462 553 c 0,29,30
 462 498 462 498 497 463 c 128,-1,31
 532 428 532 428 597 428 c 0,32,33
 671 428 671 428 728 457 c 1,34,35
 675 474 675 474 638 516.5 c 128,-1,36
 601 559 601 559 601 623 c 0,37,38
 601 670 601 670 623 707.5 c 128,-1,39
 645 745 645 745 684.5 766.5 c 128,-1,40
 724 788 724 788 775 788 c 0,41,42
 815 788 815 788 850 769 c 128,-1,43
 885 750 885 750 906 716.5 c 128,-1,44
 927 683 927 683 927 643 c 0,45,46
 927 551 927 551 862 492.5 c 128,-1,47
 797 434 797 434 702.5 408.5 c 128,-1,48
 608 383 608 383 515 383 c 0,49,50
 412 383 412 383 330.5 410.5 c 128,-1,51
 249 438 249 438 201 494 c 128,-1,52
 153 550 153 550 153 633 c 0,53,54
 153 703 153 703 188.5 763.5 c 128,-1,55
 224 824 224 824 279.5 876 c 128,-1,56
 335 928 335 928 433 1007 c 2,57,-1
 454 1024 l 2,58,59
 499 1060 499 1060 499 1060 c 2,60,61
 602 1143 602 1143 651.5 1189 c 128,-1,62
 701 1235 701 1235 730 1283.5 c 128,-1,63
 759 1332 759 1332 759 1389 c 0,64,65
 759 1463 759 1463 717.5 1506.5 c 128,-1,66
 676 1550 676 1550 599 1550 c 0,67,0
 506 1550 506 1550 448 1513 c 1,1,2
260 218.5 m 128,-1,69
 290 268 290 268 342 296 c 128,-1,70
 394 324 394 324 459 324 c 0,71,72
 538 324 538 324 579.5 288.5 c 128,-1,73
 621 253 621 253 621 184 c 0,74,75
 621 130 621 130 590 81 c 128,-1,76
 559 32 559 32 506 1.5 c 128,-1,77
 453 -29 453 -29 390 -29 c 0,78,79
 311 -29 311 -29 270.5 5.5 c 128,-1,80
 230 40 230 40 230 106 c 0,81,68
 230 169 230 169 260 218.5 c 128,-1,69
EndSplineSet
Substitution2: "'smcp' Lowercase to Small Capitals lookup 24 subtable" question.smcp
Substitution2: "'c2sc' Capitals to Small Capitals lookup 23 subtable" question.smcp
Substitution2: "'aalt' Access All Alternates lookup 0 subtable" question.smcp
EndChar
StartChar: at
Encoding: 64 64 762
Width: 1788
Flags: W
LayerCount: 2
Back
Fore
SplineSet
907 199 m 0,1,2
 907 211 907 211 909 239 c 1,3,4
 811 53 811 53 626 53 c 0,5,6
 518 53 518 53 448 112.5 c 128,-1,7
 378 172 378 172 378 305 c 0,8,9
 378 443 378 443 454 602.5 c 128,-1,10
 530 762 530 762 657.5 870.5 c 128,-1,11
 785 979 785 979 931 979 c 0,12,13
 1010 979 1010 979 1046 943.5 c 128,-1,14
 1082 908 1082 908 1084 839 c 1,15,-1
 1117 950 l 1,16,17
 1310 950 1310 950 1426 979 c 1,18,-1
 1209 248 l 2,19,20
 1196 203 1196 203 1196 174 c 0,21,22
 1196 129 1196 129 1234 129 c 0,23,24
 1294 129 1294 129 1401.5 198 c 128,-1,25
 1509 267 1509 267 1593.5 402.5 c 128,-1,26
 1678 538 1678 538 1678 729 c 0,27,28
 1678 903 1678 903 1601 1019 c 128,-1,29
 1524 1135 1524 1135 1385.5 1192 c 128,-1,30
 1247 1249 1247 1249 1060 1249 c 0,31,32
 763 1249 763 1249 544 1115.5 c 128,-1,33
 325 982 325 982 211 772.5 c 128,-1,34
 97 563 97 563 97 342 c 0,35,36
 97 136 97 136 195 2 c 128,-1,37
 293 -132 293 -132 453 -193 c 128,-1,38
 613 -254 613 -254 804 -254 c 0,39,40
 950 -254 950 -254 1088.5 -219.5 c 128,-1,41
 1227 -185 1227 -185 1340 -121 c 1,42,-1
 1353 -147 l 1,43,44
 1251 -212 1251 -212 1110 -250.5 c 128,-1,45
 969 -289 969 -289 806 -289 c 0,46,47
 606 -289 606 -289 436 -227 c 128,-1,48
 266 -165 266 -165 160 -24.5 c 128,-1,49
 54 116 54 116 54 338 c 0,50,51
 54 571 54 571 172 789.5 c 128,-1,52
 290 1008 290 1008 518.5 1147 c 128,-1,53
 747 1286 747 1286 1060 1286 c 0,54,55
 1263 1286 1263 1286 1411 1223.5 c 128,-1,56
 1559 1161 1559 1161 1640 1036.5 c 128,-1,57
 1721 912 1721 912 1721 731 c 0,58,59
 1721 518 1721 518 1617.5 364 c 128,-1,60
 1514 210 1514 210 1363.5 131.5 c 128,-1,61
 1213 53 1213 53 1078 53 c 0,62,0
 907 53 907 53 907 199 c 0,1,2
866.5 233 m 128,-1,64
 911 290 911 290 953 408 c 1,65,-1
 1056 747 l 1,66,67
 1060 777 1060 777 1060 796 c 0,68,69
 1060 891 1060 891 998 891 c 0,70,71
 946 891 946 891 874.5 801 c 128,-1,72
 803 711 803 711 751 573.5 c 128,-1,73
 699 436 699 436 699 299 c 0,74,75
 699 234 699 234 714.5 205 c 128,-1,76
 730 176 730 176 767 176 c 0,77,63
 822 176 822 176 866.5 233 c 128,-1,64
EndSplineSet
Substitution2: "'case' Case-Sensitive Forms lookup 25 subtable" at.case
Substitution2: "'smcp' Lowercase to Small Capitals lookup 24 subtable" at.smcp
Substitution2: "'c2sc' Capitals to Small Capitals lookup 23 subtable" at.smcp
AlternateSubs2: "'aalt' Access All Alternates lookup 1 subtable" at.smcp at.case
EndChar
StartChar: A
Encoding: 65 65 2
Width: 1370
GlyphClass: 2
Flags: W
AnchorPoint: "Anchor-5" 0 0 basechar 0
AnchorPoint: "Anchor-4" 967 1450 basechar 0
AnchorPoint: "Anchor-3" 1110 0 basechar 0
LayerCount: 2
Back
Fore
SplineSet
1167 74 m 128,-1,1
 1196 43 1196 43 1233 41 c 1,2,-1
 1225 0 l 1,3,4
 1105 6 1105 6 879 6 c 0,5,6
 641 6 641 6 530 0 c 1,7,-1
 539 41 l 1,8,9
 605 44 605 44 642 56.5 c 128,-1,10
 679 69 679 69 697.5 99.5 c 128,-1,11
 716 130 716 130 716 187 c 0,12,13
 716 204 716 204 715 213 c 2,14,-1
 697 549 l 1,15,-1
 295 549 l 1,16,-1
 96 268 l 2,17,18
 48 198 48 198 48 151 c 0,19,20
 48 55 48 55 236 41 c 1,21,-1
 227 0 l 1,22,23
 16 6 16 6 -63 6 c 0,24,25
 -133 6 -133 6 -197 0 c 1,26,-1
 -188 41 l 1,27,28
 -148 52 -148 52 -114 77.5 c 128,-1,29
 -80 103 -80 103 -40.5 150.5 c 128,-1,30
 -1 198 -1 198 61 285 c 2,31,-1
 897 1460 l 1,32,33
 930 1456 930 1456 976 1456 c 256,34,35
 1022 1456 1022 1456 1051 1460 c 1,36,-1
 1133 172 l 2,37,0
 1138 105 1138 105 1167 74 c 128,-1,1
670 1079 m 1,38,-1
 324 590 l 1,39,-1
 695 590 l 1,40,-1
 670 1079 l 1,38,-1
EndSplineSet
Substitution2: "Single Substitution lookup 29 subtable" ordfeminine
Substitution2: "'c2sc' Capitals to Small Capitals lookup 23 subtable" a.smcp
AlternateSubs2: "'aalt' Access All Alternates lookup 1 subtable" ordfeminine a.smcp
Position2: "'cpsp' Capital Spacing lookup 0 subtable" dx=20 dy=0 dh=20 dv=0
EndChar
StartChar: B
Encoding: 66 66 13
Width: 1454
GlyphClass: 2
Flags: W
AnchorPoint: "Anchor-5" 0 0 basechar 0
AnchorPoint: "Anchor-4" 938 1450 basechar 0
AnchorPoint: "Anchor-3" 0 0 basechar 0
LayerCount: 2
Back
Fore
SplineSet
1091 721 m 128,-1,1
 1214 682 1214 682 1278.5 612 c 128,-1,2
 1343 542 1343 542 1343 451 c 0,3,4
 1343 309 1343 309 1257.5 207.5 c 128,-1,5
 1172 106 1172 106 1011 53 c 128,-1,6
 850 0 850 0 627 0 c 0,7,8
 607 0 607 0 527 2 c 0,9,10
 401 6 401 6 264 6 c 0,11,12
 31 6 31 6 -98 0 c 1,13,-1
 -90 41 l 1,14,15
 -16 44 -16 44 20.5 57 c 128,-1,16
 57 70 57 70 79 105 c 128,-1,17
 101 140 101 140 121 217 c 2,18,-1
 391 1233 l 2,19,20
 409 1300 409 1300 409 1332 c 0,21,22
 409 1372 409 1372 379 1389.5 c 128,-1,23
 349 1407 349 1407 270 1409 c 1,24,-1
 281 1450 l 1,25,26
 407 1444 407 1444 637 1444 c 0,27,28
 729 1444 729 1444 831 1446 c 0,29,30
 909 1448 909 1448 942 1448 c 0,31,32
 1438 1448 1438 1448 1438 1171 c 0,33,34
 1438 1061 1438 1061 1362.5 969 c 128,-1,35
 1287 877 1287 877 1142.5 820.5 c 128,-1,36
 998 764 998 764 799 758 c 1,37,0
 968 760 968 760 1091 721 c 128,-1,1
874 1397 m 128,-1,39
 856 1385 856 1385 842.5 1354.5 c 128,-1,40
 829 1324 829 1324 813 1264 c 2,41,-1
 683 770 l 1,42,-1
 713 770 l 2,43,44
 816 770 816 770 889 836 c 128,-1,45
 962 902 962 902 999 1008.5 c 128,-1,46
 1036 1115 1036 1115 1036 1235 c 0,47,48
 1036 1318 1036 1318 1012 1363.5 c 128,-1,49
 988 1409 988 1409 922 1409 c 0,50,38
 892 1409 892 1409 874 1397 c 128,-1,39
758.5 111.5 m 128,-1,52
 829 176 829 176 869 279 c 128,-1,53
 909 382 909 382 909 492 c 0,54,55
 909 599 909 599 863.5 667 c 128,-1,56
 818 735 818 735 713 735 c 2,57,-1
 674 735 l 1,58,-1
 537 217 l 2,59,60
 521 157 521 157 521 124 c 0,61,62
 521 47 521 47 602 47 c 0,63,51
 688 47 688 47 758.5 111.5 c 128,-1,52
EndSplineSet
Substitution2: "'c2sc' Capitals to Small Capitals lookup 23 subtable" b.smcp
Substitution2: "'aalt' Access All Alternates lookup 0 subtable" b.smcp
Position2: "'cpsp' Capital Spacing lookup 0 subtable" dx=20 dy=0 dh=20 dv=0
EndChar
StartChar: C
Encoding: 67 67 14
Width: 1450
GlyphClass: 2
Flags: W
AnchorPoint: "Anchor-5" 688 0 basechar 0
AnchorPoint: "Anchor-4" 1038 1450 basechar 0
AnchorPoint: "Anchor-3" 0 0 basechar 0
LayerCount: 2
Back
Fore
SplineSet
1441 979 m 1,1,-1
 1396 979 l 1,2,3
 1416 1097 1416 1097 1416 1156 c 0,4,5
 1416 1246 1416 1246 1381 1305 c 0,6,7
 1343 1370 1343 1370 1289 1395.5 c 128,-1,8
 1235 1421 1235 1421 1156 1421 c 0,9,10
 995 1421 995 1421 854.5 1287.5 c 128,-1,11
 714 1154 714 1154 630 932 c 128,-1,12
 546 710 546 710 546 457 c 0,13,14
 546 250 546 250 616.5 149.5 c 128,-1,15
 687 49 687 49 814 49 c 0,16,17
 883 49 883 49 955.5 80.5 c 128,-1,18
 1028 112 1028 112 1080 168 c 0,19,20
 1134 226 1134 226 1174 297 c 128,-1,21
 1214 368 1214 368 1265 492 c 1,22,-1
 1310 492 l 1,23,24
 1213 137 1213 137 1189 0 c 1,25,-1
 1144 0 l 1,26,27
 1150 44 1150 44 1150 70 c 0,28,29
 1150 122 1150 122 1124 122 c 0,30,31
 1108 122 1108 122 1082 104 c 0,32,33
 890 -29 890 -29 673 -29 c 0,34,35
 368 -29 368 -29 221.5 107 c 128,-1,36
 75 243 75 243 75 496 c 0,37,38
 75 742 75 742 210.5 969 c 128,-1,39
 346 1196 346 1196 584 1337.5 c 128,-1,40
 822 1479 822 1479 1113 1479 c 0,41,42
 1225 1479 1225 1479 1294 1443.5 c 128,-1,43
 1363 1408 1363 1408 1416 1346 c 0,44,45
 1431 1328 1431 1328 1446 1328 c 0,46,47
 1484 1328 1484 1328 1529 1450 c 1,48,-1
 1572 1450 l 1,49,0
 1504 1273 1504 1273 1441 979 c 1,1,-1
EndSplineSet
Substitution2: "'c2sc' Capitals to Small Capitals lookup 23 subtable" c.smcp
Substitution2: "'aalt' Access All Alternates lookup 0 subtable" c.smcp
Position2: "'cpsp' Capital Spacing lookup 0 subtable" dx=20 dy=0 dh=20 dv=0
EndChar
StartChar: D
Encoding: 68 68 20
Width: 1642
GlyphClass: 2
Flags: W
AnchorPoint: "Anchor-5" 0 0 basechar 0
AnchorPoint: "Anchor-4" 956 1450 basechar 0
AnchorPoint: "Anchor-3" 0 0 basechar 0
LayerCount: 2
Back
Fore
SplineSet
1513.5 499.5 m 128,-1,1
 1407 285 1407 285 1174 142.5 c 128,-1,2
 941 0 941 0 584 0 c 0,3,4
 565 0 565 0 491 2 c 0,5,6
 377 6 377 6 260 6 c 0,7,8
 35 6 35 6 -88 0 c 1,9,-1
 -82 41 l 1,10,11
 -12 44 -12 44 23.5 57 c 128,-1,12
 59 70 59 70 81 105.5 c 128,-1,13
 103 141 103 141 123 217 c 2,14,-1
 391 1233 l 2,15,16
 404 1282 404 1282 404 1313 c 0,17,18
 404 1357 404 1357 374.5 1381 c 128,-1,19
 345 1405 345 1405 272 1409 c 1,20,-1
 279 1450 l 1,21,22
 442 1443 442 1443 597 1443 c 2,23,-1
 672 1444 l 2,24,25
 843 1450 843 1450 975 1450 c 0,26,27
 1282 1450 1282 1450 1451 1320 c 128,-1,28
 1620 1190 1620 1190 1620 936 c 0,29,0
 1620 714 1620 714 1513.5 499.5 c 128,-1,1
916.5 186.5 m 128,-1,31
 1053 336 1053 336 1125.5 562.5 c 128,-1,32
 1198 789 1198 789 1198 1010 c 0,33,34
 1198 1413 1198 1413 938 1413 c 0,35,36
 894 1413 894 1413 874.5 1403 c 128,-1,37
 855 1393 855 1393 844 1365.5 c 128,-1,38
 833 1338 833 1338 814 1264 c 2,39,-1
 807 1237 l 1,40,-1
 539 213 l 2,41,42
 514 120 514 120 514 91 c 0,43,44
 514 61 514 61 533 49 c 128,-1,45
 552 37 552 37 600 37 c 0,46,30
 780 37 780 37 916.5 186.5 c 128,-1,31
EndSplineSet
Substitution2: "'c2sc' Capitals to Small Capitals lookup 23 subtable" d.smcp
Substitution2: "'aalt' Access All Alternates lookup 0 subtable" d.smcp
Position2: "'cpsp' Capital Spacing lookup 0 subtable" dx=20 dy=0 dh=20 dv=0
EndChar
StartChar: F
Encoding: 70 70 34
Width: 1235
GlyphClass: 2
Flags: W
LayerCount: 2
Back
Fore
SplineSet
1415 1450 m 1,1,2
 1374 1342 1374 1342 1337 1208 c 0,3,4
 1301 1078 1301 1078 1290 1020 c 1,5,-1
 1245 1020 l 1,6,7
 1248 1059 1248 1059 1248 1093 c 0,8,9
 1248 1259 1248 1259 1182 1331 c 128,-1,10
 1116 1403 1116 1403 997 1403 c 2,11,-1
 991 1403 l 2,12,13
 927 1403 927 1403 895 1391 c 128,-1,14
 863 1379 863 1379 844 1344.5 c 128,-1,15
 825 1310 825 1310 807 1233 c 2,16,-1
 679 750 l 1,17,-1
 735 750 l 2,18,19
 827 750 827 750 904 811.5 c 128,-1,20
 981 873 981 873 1028 979 c 1,21,-1
 1073 979 l 1,22,23
 1035 864 1035 864 1004 729 c 0,24,25
 979 630 979 630 940 418 c 1,26,-1
 895 418 l 1,27,28
 895 559 895 559 846 634 c 128,-1,29
 797 709 797 709 707 709 c 2,30,-1
 668 709 l 1,31,-1
 537 217 l 2,32,33
 522 160 522 160 522 126 c 256,34,35
 522 92 522 92 539 74.5 c 128,-1,36
 556 57 556 57 592.5 50 c 128,-1,37
 629 43 629 43 698 41 c 1,38,-1
 690 0 l 1,39,40
 552 6 552 6 283 6 c 0,41,42
 25 6 25 6 -98 0 c 1,43,-1
 -90 41 l 1,44,45
 -16 44 -16 44 20.5 57 c 128,-1,46
 57 70 57 70 79 105 c 128,-1,47
 101 140 101 140 121 217 c 2,48,-1
 391 1233 l 2,49,50
 408 1298 408 1298 408 1331 c 0,51,52
 408 1362 408 1362 394.5 1378 c 128,-1,53
 381 1394 381 1394 352 1400.5 c 128,-1,54
 323 1407 323 1407 270 1409 c 1,55,-1
 281 1450 l 1,56,57
 516 1444 516 1444 991 1444 c 0,58,0
 1286 1444 1286 1444 1415 1450 c 1,1,2
EndSplineSet
Substitution2: "'c2sc' Capitals to Small Capitals lookup 23 subtable" f.smcp
Substitution2: "'aalt' Access All Alternates lookup 0 subtable" f.smcp
Position2: "'cpsp' Capital Spacing lookup 0 subtable" dx=20 dy=0 dh=20 dv=0
EndChar
StartChar: G
Encoding: 71 71 35
Width: 1559
GlyphClass: 2
Flags: W
AnchorPoint: "Anchor-5" 717 0 basechar 0
AnchorPoint: "Anchor-4" 1081 1450 basechar 0
AnchorPoint: "Anchor-3" 0 0 basechar 0
LayerCount: 2
Back
Fore
SplineSet
835 41 m 0,1,2
 863 61 863 61 877 93.5 c 128,-1,3
 891 126 891 126 912 205 c 2,4,-1
 960 385 l 2,5,6
 978 453 978 453 978 491 c 0,7,8
 978 527 978 527 961 545.5 c 128,-1,9
 944 564 944 564 908.5 571.5 c 128,-1,10
 873 579 873 579 806 582 c 1,11,-1
 816 623 l 1,12,13
 945 616 945 616 1205 616 c 0,14,15
 1439 616 1439 616 1543 623 c 1,16,-1
 1533 582 l 1,17,18
 1484 578 1484 578 1460 565.5 c 128,-1,19
 1436 553 1436 553 1419 519 c 128,-1,20
 1402 485 1402 485 1381 406 c 2,21,-1
 1273 0 l 1,22,-1
 1232 0 l 1,23,24
 1233 62 1233 62 1213 89.5 c 128,-1,25
 1193 117 1193 117 1152 117 c 0,26,27
 1113 117 1113 117 1072 101.5 c 128,-1,28
 1031 86 1031 86 970 56 c 0,29,30
 934 38 934 38 917 31 c 0,31,32
 788 -29 788 -29 654 -29 c 0,33,34
 470 -29 470 -29 336.5 26 c 128,-1,35
 203 81 203 81 131.5 186.5 c 128,-1,36
 60 292 60 292 60 440 c 0,37,38
 60 677 60 677 194.5 919.5 c 128,-1,39
 329 1162 329 1162 567.5 1320.5 c 128,-1,40
 806 1479 806 1479 1101 1479 c 0,41,42
 1185 1479 1185 1479 1246 1462 c 128,-1,43
 1307 1445 1307 1445 1350 1417 c 128,-1,44
 1393 1389 1393 1389 1437 1346 c 0,45,46
 1456 1327 1456 1327 1472 1327 c 0,47,48
 1511 1327 1511 1327 1553 1450 c 1,49,-1
 1598 1450 l 1,50,51
 1531 1270 1531 1270 1467 979 c 1,52,-1
 1422 979 l 1,53,54
 1433 1062 1433 1062 1433 1133 c 0,55,56
 1433 1181 1433 1181 1427 1214.5 c 128,-1,57
 1421 1248 1421 1248 1404 1282 c 0,58,59
 1365 1359 1365 1359 1285 1400.5 c 128,-1,60
 1205 1442 1205 1442 1089 1442 c 0,61,62
 903 1442 903 1442 763.5 1264 c 128,-1,63
 624 1086 624 1086 550 833.5 c 128,-1,64
 476 581 476 581 476 373 c 0,65,66
 476 190 476 190 538.5 101 c 128,-1,67
 601 12 601 12 728 12 c 0,68,0
 796 12 796 12 835 41 c 0,1,2
EndSplineSet
Substitution2: "'c2sc' Capitals to Small Capitals lookup 23 subtable" g.smcp
Substitution2: "'aalt' Access All Alternates lookup 0 subtable" g.smcp
Position2: "'cpsp' Capital Spacing lookup 0 subtable" dx=20 dy=0 dh=20 dv=0
EndChar
StartChar: H
Encoding: 72 72 41
Width: 1733
GlyphClass: 2
Flags: W
AnchorPoint: "Anchor-5" 0 0 basechar 0
AnchorPoint: "Anchor-4" 1092 1450 basechar 0
AnchorPoint: "Anchor-3" 0 0 basechar 0
LayerCount: 2
Back
Fore
SplineSet
1896 1450 m 1,1,-1
 1886 1409 l 1,2,3
 1811 1406 1811 1406 1774.5 1393 c 128,-1,4
 1738 1380 1738 1380 1716.5 1345 c 128,-1,5
 1695 1310 1695 1310 1675 1233 c 2,6,-1
 1405 217 l 2,7,8
 1387 147 1387 147 1387 117 c 256,9,10
 1387 87 1387 87 1400.5 71.5 c 128,-1,11
 1414 56 1414 56 1443 49.5 c 128,-1,12
 1472 43 1472 43 1526 41 c 1,13,-1
 1518 0 l 1,14,15
 1395 6 1395 6 1133 6 c 0,16,17
 896 6 896 6 770 0 c 1,18,-1
 778 41 l 1,19,20
 852 44 852 44 889 57 c 128,-1,21
 926 70 926 70 947.5 105 c 128,-1,22
 969 140 969 140 989 217 c 2,23,-1
 1120 709 l 1,24,-1
 668 709 l 1,25,-1
 537 217 l 2,26,27
 519 147 519 147 519 117 c 256,28,29
 519 87 519 87 532.5 71.5 c 128,-1,30
 546 56 546 56 575 49.5 c 128,-1,31
 604 43 604 43 657 41 c 1,32,-1
 649 0 l 1,33,34
 523 6 523 6 287 6 c 0,35,36
 30 6 30 6 -96 0 c 1,37,-1
 -86 41 l 1,38,39
 -15 44 -15 44 21 57 c 128,-1,40
 57 70 57 70 79 105.5 c 128,-1,41
 101 141 101 141 121 217 c 2,42,-1
 391 1233 l 2,43,44
 408 1298 408 1298 408 1331 c 0,45,46
 408 1362 408 1362 394.5 1378 c 128,-1,47
 381 1394 381 1394 352 1400.5 c 128,-1,48
 323 1407 323 1407 270 1409 c 1,49,-1
 281 1450 l 1,50,51
 399 1444 399 1444 664 1444 c 0,52,53
 884 1444 884 1444 1028 1450 c 1,54,-1
 1018 1409 l 1,55,56
 943 1406 943 1406 906.5 1393 c 128,-1,57
 870 1380 870 1380 848.5 1345 c 128,-1,58
 827 1310 827 1310 807 1233 c 2,59,-1
 679 750 l 1,60,-1
 1131 750 l 1,61,-1
 1260 1233 l 2,62,63
 1277 1298 1277 1298 1277 1331 c 0,64,65
 1277 1362 1277 1362 1263 1378 c 128,-1,66
 1249 1394 1249 1394 1220.5 1400.5 c 128,-1,67
 1192 1407 1192 1407 1139 1409 c 1,68,-1
 1149 1450 l 1,69,70
 1272 1444 1272 1444 1509 1444 c 0,71,0
 1770 1444 1770 1444 1896 1450 c 1,1,-1
EndSplineSet
Substitution2: "'c2sc' Capitals to Small Capitals lookup 23 subtable" h.smcp
Substitution2: "'aalt' Access All Alternates lookup 0 subtable" h.smcp
Position2: "'cpsp' Capital Spacing lookup 0 subtable" dx=20 dy=0 dh=20 dv=0
EndChar
StartChar: I
Encoding: 73 73 44
Width: 864
GlyphClass: 2
Flags: W
AnchorPoint: "Anchor-5" 266 0 basechar 0
AnchorPoint: "Anchor-4" 705 1450 basechar 0
AnchorPoint: "Anchor-3" 610 0 basechar 0
LayerCount: 2
Back
Fore
SplineSet
519 117 m 256,1,2
 519 87 519 87 532.5 71.5 c 128,-1,3
 546 56 546 56 575 49.5 c 128,-1,4
 604 43 604 43 657 41 c 1,5,-1
 649 0 l 1,6,7
 517 6 517 6 266 6 c 0,8,9
 24 6 24 6 -96 0 c 1,10,-1
 -86 41 l 1,11,12
 -15 44 -15 44 21 57 c 128,-1,13
 57 70 57 70 79 105.5 c 128,-1,14
 101 141 101 141 121 217 c 2,15,-1
 391 1233 l 2,16,17
 408 1298 408 1298 408 1331 c 0,18,19
 408 1362 408 1362 394.5 1378 c 128,-1,20
 381 1394 381 1394 352 1400.5 c 128,-1,21
 323 1407 323 1407 270 1409 c 1,22,-1
 281 1450 l 1,23,24
 394 1444 394 1444 643 1444 c 0,25,26
 875 1444 875 1444 1028 1450 c 1,27,-1
 1018 1409 l 1,28,29
 943 1406 943 1406 906.5 1393 c 128,-1,30
 870 1380 870 1380 848.5 1345 c 128,-1,31
 827 1310 827 1310 807 1233 c 2,32,-1
 537 217 l 2,33,0
 519 147 519 147 519 117 c 256,1,2
EndSplineSet
Substitution2: "'c2sc' Capitals to Small Capitals lookup 23 subtable" i.smcp
Substitution2: "'aalt' Access All Alternates lookup 0 subtable" i.smcp
Position2: "'cpsp' Capital Spacing lookup 0 subtable" dx=20 dy=0 dh=20 dv=0
EndChar
StartChar: J
Encoding: 74 74 55
Width: 1464
GlyphClass: 2
Flags: W
AnchorPoint: "Anchor-5" 0 0 basechar 0
AnchorPoint: "Anchor-4" 1135 1450 basechar 0
AnchorPoint: "Anchor-3" 0 0 basechar 0
LayerCount: 2
Back
Fore
SplineSet
1673 1470 m 0,1,2
 1673 1420 1673 1420 1523 1364 c 1,3,4
 1418 1269 1418 1269 1348 1119.5 c 128,-1,5
 1278 970 1278 970 1217 750 c 1,6,-1
 1422 750 l 1,7,-1
 1416 709 l 1,8,-1
 1206 709 l 1,9,-1
 1185 629 l 1,10,-1
 1058 133 l 2,11,12
 998 -101 998 -101 832.5 -243 c 128,-1,13
 667 -385 667 -385 368 -385 c 0,14,15
 214 -385 214 -385 122 -342 c 128,-1,16
 30 -299 30 -299 30 -203 c 0,17,18
 30 -123 30 -123 85.5 -74 c 128,-1,19
 141 -25 141 -25 243 -25 c 0,20,21
 333 -25 333 -25 391.5 -63.5 c 128,-1,22
 450 -102 450 -102 450 -174 c 0,23,24
 450 -290 450 -290 316 -346 c 1,25,26
 337 -350 337 -350 364 -350 c 0,27,28
 424 -350 424 -350 464.5 -310.5 c 128,-1,29
 505 -271 505 -271 537 -190.5 c 128,-1,30
 569 -110 569 -110 611 41 c 2,31,-1
 753 537 l 2,32,33
 781 633 781 633 814 709 c 1,34,-1
 534 709 l 1,35,-1
 540 750 l 1,36,-1
 833 750 l 1,37,38
 896 878 896 878 984 977 c 128,-1,39
 1072 1076 1072 1076 1178.5 1155 c 128,-1,40
 1285 1234 1285 1234 1443 1331 c 1,41,42
 1370 1310 1370 1310 1313.5 1284 c 128,-1,43
 1257 1258 1257 1258 1180 1216 c 0,44,45
 1114 1180 1114 1180 1070 1159.5 c 128,-1,46
 1026 1139 1026 1139 970.5 1125.5 c 128,-1,47
 915 1112 915 1112 847 1112 c 0,48,49
 788 1112 788 1112 734.5 1126 c 128,-1,50
 681 1140 681 1140 610 1166 c 0,51,52
 554 1186 554 1186 518.5 1196 c 128,-1,53
 483 1206 483 1206 450 1206 c 0,54,55
 398 1206 398 1206 365.5 1180.5 c 128,-1,56
 333 1155 333 1155 333 1102 c 0,57,58
 333 955 333 955 615 938 c 1,59,-1
 611 901 l 1,60,61
 405 914 405 914 286 997.5 c 128,-1,62
 167 1081 167 1081 167 1227 c 0,63,64
 167 1359 167 1359 249.5 1436 c 128,-1,65
 332 1513 332 1513 493 1513 c 0,66,67
 560 1513 560 1513 617 1499.5 c 128,-1,68
 674 1486 674 1486 718 1467 c 128,-1,69
 762 1448 762 1448 825 1415 c 0,70,71
 889 1382 889 1382 934.5 1362 c 128,-1,72
 980 1342 980 1342 1039 1328.5 c 128,-1,73
 1098 1315 1098 1315 1168 1315 c 0,74,75
 1248 1315 1248 1315 1341 1332.5 c 128,-1,76
 1434 1350 1434 1350 1504 1386 c 1,77,78
 1583 1506 1583 1506 1632 1506 c 0,79,80
 1646 1506 1646 1506 1660 1495 c 0,81,0
 1673 1484 1673 1484 1673 1470 c 0,1,2
EndSplineSet
Substitution2: "'c2sc' Capitals to Small Capitals lookup 23 subtable" j.smcp
Substitution2: "'aalt' Access All Alternates lookup 0 subtable" j.smcp
Position2: "'cpsp' Capital Spacing lookup 0 subtable" dx=20 dy=0 dh=20 dv=0
EndChar
StartChar: K
Encoding: 75 75 57
Width: 1604
GlyphClass: 2
Flags: W
AnchorPoint: "Anchor-5" 649 0 basechar 0
AnchorPoint: "Anchor-4" 942 1450 basechar 0
AnchorPoint: "Anchor-3" 0 0 basechar 0
LayerCount: 2
Back
Fore
SplineSet
1333 1327 m 128,-1,1
 1390 1399 1390 1399 1487 1434 c 1,2,3
 1467 1444 1467 1444 1434 1444 c 0,4,5
 1391 1444 1391 1444 1362 1429.5 c 128,-1,6
 1333 1415 1333 1415 1309 1386 c 0,7,8
 1276 1347 1276 1347 1254.5 1289.5 c 128,-1,9
 1233 1232 1233 1232 1205 1134 c 0,10,11
 1174 1027 1174 1027 1148 960.5 c 128,-1,12
 1122 894 1122 894 1077 839.5 c 128,-1,13
 1032 785 1032 785 963 765 c 1,14,15
 1096 756 1096 756 1174 723 c 128,-1,16
 1252 690 1252 690 1285.5 635 c 128,-1,17
 1319 580 1319 580 1319 499 c 0,18,19
 1319 459 1319 459 1311 406 c 2,20,-1
 1278 201 l 2,21,22
 1277 197 1277 197 1277 190 c 0,23,24
 1277 170 1277 170 1290 157.5 c 128,-1,25
 1303 145 1303 145 1323 145 c 0,26,27
 1379 145 1379 145 1411 244 c 2,28,-1
 1446 348 l 1,29,-1
 1487 348 l 1,30,-1
 1434 190 l 2,31,32
 1397 80 1397 80 1319 25.5 c 128,-1,33
 1241 -29 1241 -29 1143 -29 c 0,34,35
 1054 -29 1054 -29 991 -1 c 128,-1,36
 928 27 928 27 895.5 77 c 128,-1,37
 863 127 863 127 863 193 c 0,38,39
 863 214 863 214 868 244 c 2,40,-1
 926 567 l 2,41,42
 934 617 934 617 934 645 c 0,43,44
 934 707 934 707 896 735 c 1,45,46
 821 715 821 715 776 712 c 2,47,-1
 768 712 l 2,48,49
 721 712 721 712 721 742 c 0,50,51
 721 746 721 746 723 756 c 0,52,53
 728 777 728 777 741 787 c 128,-1,54
 754 797 754 797 781 797 c 0,55,56
 818 797 818 797 896 776 c 1,57,58
 980 789 980 789 1032 842 c 128,-1,59
 1084 895 1084 895 1111 964 c 128,-1,60
 1138 1033 1138 1033 1168 1146 c 0,61,62
 1195 1246 1195 1246 1218 1307.5 c 128,-1,63
 1241 1369 1241 1369 1278 1411 c 0,64,65
 1338 1479 1338 1479 1440 1479 c 0,66,67
 1509 1479 1509 1479 1564 1450.5 c 128,-1,68
 1619 1422 1619 1422 1650 1370 c 128,-1,69
 1681 1318 1681 1318 1681 1249 c 0,70,71
 1681 1188 1681 1188 1653.5 1131.5 c 128,-1,72
 1626 1075 1626 1075 1573.5 1039.5 c 128,-1,73
 1521 1004 1521 1004 1450 1004 c 0,74,75
 1404 1004 1404 1004 1364.5 1023 c 128,-1,76
 1325 1042 1325 1042 1300.5 1080.5 c 128,-1,77
 1276 1119 1276 1119 1276 1174 c 0,78,0
 1276 1255 1276 1255 1333 1327 c 128,-1,1
519 117 m 256,80,81
 519 87 519 87 532.5 71.5 c 128,-1,82
 546 56 546 56 575 49.5 c 128,-1,83
 604 43 604 43 657 41 c 1,84,-1
 649 0 l 1,85,86
 523 6 523 6 287 6 c 0,87,88
 30 6 30 6 -96 0 c 1,89,-1
 -86 41 l 1,90,91
 -15 44 -15 44 21 57 c 128,-1,92
 57 70 57 70 79 105.5 c 128,-1,93
 101 141 101 141 121 217 c 2,94,-1
 391 1233 l 2,95,96
 408 1298 408 1298 408 1331 c 0,97,98
 408 1362 408 1362 394.5 1378 c 128,-1,99
 381 1394 381 1394 352 1400.5 c 128,-1,100
 323 1407 323 1407 270 1409 c 1,101,-1
 281 1450 l 1,102,103
 400 1444 400 1444 664 1444 c 0,104,105
 884 1444 884 1444 1028 1450 c 1,106,-1
 1018 1409 l 1,107,108
 943 1406 943 1406 906.5 1393 c 128,-1,109
 870 1380 870 1380 848.5 1345 c 128,-1,110
 827 1310 827 1310 807 1233 c 2,111,-1
 537 217 l 2,112,79
 519 147 519 147 519 117 c 256,80,81
EndSplineSet
Substitution2: "'c2sc' Capitals to Small Capitals lookup 23 subtable" k.smcp
Substitution2: "'aalt' Access All Alternates lookup 0 subtable" k.smcp
Position2: "'cpsp' Capital Spacing lookup 0 subtable" dx=20 dy=0 dh=20 dv=0
EndChar
StartChar: L
Encoding: 76 76 59
Width: 1264
GlyphClass: 2
Flags: W
AnchorPoint: "Anchor-5" 621 0 basechar 0
AnchorPoint: "Anchor-4" 668 1450 basechar 0
AnchorPoint: "Anchor-3" 0 0 basechar 0
LayerCount: 2
Back
Fore
SplineSet
1139 262 m 1,1,2
 1107 154 1107 154 1085 0 c 1,3,4
 946 6 946 6 623 6 c 0,5,6
 139 6 139 6 -98 0 c 1,7,-1
 -90 41 l 1,8,9
 -16 44 -16 44 20.5 57 c 128,-1,10
 57 70 57 70 79 105 c 128,-1,11
 101 140 101 140 121 217 c 2,12,-1
 391 1233 l 2,13,14
 408 1298 408 1298 408 1331 c 0,15,16
 408 1362 408 1362 394.5 1378 c 128,-1,17
 381 1394 381 1394 352 1400.5 c 128,-1,18
 323 1407 323 1407 270 1409 c 1,19,-1
 281 1450 l 1,20,21
 400 1444 400 1444 668 1444 c 0,22,23
 882 1444 882 1444 1026 1450 c 1,24,-1
 1016 1409 l 1,25,26
 941 1406 941 1406 904.5 1393 c 128,-1,27
 868 1380 868 1380 846.5 1345 c 128,-1,28
 825 1310 825 1310 805 1233 c 2,29,-1
 535 217 l 2,30,31
 517 147 517 147 517 117 c 0,32,33
 517 88 517 88 530.5 73 c 128,-1,34
 544 58 544 58 572 52.5 c 128,-1,35
 600 47 600 47 651 47 c 2,36,-1
 688 47 l 2,37,38
 763 47 763 47 846.5 85.5 c 128,-1,39
 930 124 930 124 1009 210 c 128,-1,40
 1088 296 1088 296 1143 430 c 1,41,-1
 1188 430 l 1,42,0
 1167 376 1167 376 1139 262 c 1,1,2
EndSplineSet
Substitution2: "'c2sc' Capitals to Small Capitals lookup 23 subtable" l.smcp
Substitution2: "'aalt' Access All Alternates lookup 0 subtable" l.smcp
Position2: "'cpsp' Capital Spacing lookup 0 subtable" dx=20 dy=0 dh=20 dv=0
EndChar
StartChar: M
Encoding: 77 77 65
Width: 1944
GlyphClass: 2
Flags: W
LayerCount: 2
Back
Fore
SplineSet
2107 1450 m 1,1,-1
 2097 1409 l 1,2,3
 2022 1406 2022 1406 1985.5 1393 c 128,-1,4
 1949 1380 1949 1380 1927.5 1345 c 128,-1,5
 1906 1310 1906 1310 1886 1233 c 2,6,-1
 1616 217 l 2,7,8
 1599 152 1599 152 1599 119 c 0,9,10
 1599 88 1599 88 1612.5 72 c 128,-1,11
 1626 56 1626 56 1655 49.5 c 128,-1,12
 1684 43 1684 43 1737 41 c 1,13,-1
 1729 0 l 1,14,15
 1578 6 1578 6 1352 6 c 0,16,17
 1100 6 1100 6 983 0 c 1,18,-1
 991 41 l 1,19,20
 1066 44 1066 44 1102.5 57 c 128,-1,21
 1139 70 1139 70 1160.5 105 c 128,-1,22
 1182 140 1182 140 1202 217 c 2,23,-1
 1499 1321 l 1,24,-1
 649 -10 l 1,25,-1
 604 -10 l 1,26,-1
 422 1186 l 1,27,-1
 184 281 l 2,28,29
 169 226 169 226 169 183 c 0,30,31
 169 46 169 46 350 41 c 1,32,-1
 342 0 l 1,33,34
 269 6 269 6 98 6 c 0,35,36
 -28 6 -28 6 -96 0 c 1,37,-1
 -88 41 l 1,38,39
 8 45 8 45 60 110.5 c 128,-1,40
 112 176 112 176 139 281 c 2,41,-1
 393 1233 l 2,42,43
 410 1298 410 1298 410 1331 c 0,44,45
 410 1362 410 1362 396.5 1378 c 128,-1,46
 383 1394 383 1394 354 1400.5 c 128,-1,47
 325 1407 325 1407 272 1409 c 1,48,-1
 283 1450 l 1,49,50
 395 1444 395 1444 629 1444 c 0,51,52
 738 1444 738 1444 817 1450 c 1,53,-1
 936 516 l 1,54,-1
 1528 1444 l 1,55,-1
 1729 1444 l 2,56,0
 1954 1444 1954 1444 2107 1450 c 1,1,-1
EndSplineSet
Substitution2: "'c2sc' Capitals to Small Capitals lookup 23 subtable" m.smcp
Substitution2: "'aalt' Access All Alternates lookup 0 subtable" m.smcp
Position2: "'cpsp' Capital Spacing lookup 0 subtable" dx=20 dy=0 dh=20 dv=0
EndChar
StartChar: N
Encoding: 78 78 66
Width: 1763
GlyphClass: 2
Flags: W
AnchorPoint: "Anchor-5" 709 0 basechar 0
AnchorPoint: "Anchor-4" 1151 1450 basechar 0
AnchorPoint: "Anchor-3" 0 0 basechar 0
LayerCount: 2
Back
Fore
SplineSet
1878.5 1515 m 128,-1,1
 1933 1486 1933 1486 1963 1436 c 128,-1,2
 1993 1386 1993 1386 1993 1325 c 0,3,4
 1993 1261 1993 1261 1962.5 1212 c 128,-1,5
 1932 1163 1932 1163 1879.5 1136.5 c 128,-1,6
 1827 1110 1827 1110 1763 1110 c 0,7,8
 1679 1110 1679 1110 1630 1150 c 128,-1,9
 1581 1190 1581 1190 1581 1262 c 0,10,11
 1581 1322 1581 1322 1608.5 1371 c 128,-1,12
 1636 1420 1636 1420 1684.5 1451.5 c 128,-1,13
 1733 1483 1733 1483 1794 1493 c 1,14,15
 1778 1509 1778 1509 1743 1509 c 0,16,17
 1693 1509 1693 1509 1648.5 1478.5 c 128,-1,18
 1604 1448 1604 1448 1569 1397 c 0,19,20
 1478 1261 1478 1261 1380 920 c 128,-1,21
 1282 579 1282 579 1157 -10 c 1,22,-1
 1112 -10 l 1,23,-1
 576 965 l 1,24,25
 402 133 402 133 285 -23 c 0,26,27
 240 -83 240 -83 189.5 -117.5 c 128,-1,28
 139 -152 139 -152 66 -152 c 0,29,30
 -5 -152 -5 -152 -59.5 -123 c 128,-1,31
 -114 -94 -114 -94 -144 -44 c 128,-1,32
 -174 6 -174 6 -174 68 c 0,33,34
 -174 132 -174 132 -143.5 181 c 128,-1,35
 -113 230 -113 230 -61 256.5 c 128,-1,36
 -9 283 -9 283 55 283 c 0,37,38
 139 283 139 283 188.5 242.5 c 128,-1,39
 238 202 238 202 238 131 c 0,40,41
 238 71 238 71 210 22 c 128,-1,42
 182 -27 182 -27 133.5 -58.5 c 128,-1,43
 85 -90 85 -90 25 -100 c 1,44,45
 40 -117 40 -117 76 -117 c 0,46,47
 179 -117 179 -117 252 -2 c 0,48,49
 329 118 329 118 410.5 427.5 c 128,-1,50
 492 737 492 737 588 1229 c 1,51,-1
 588 1233 l 1,52,53
 600 1290 600 1290 600 1324 c 256,54,55
 600 1358 600 1358 585.5 1375.5 c 128,-1,56
 571 1393 571 1393 538 1400 c 128,-1,57
 505 1407 505 1407 442 1409 c 1,58,-1
 453 1450 l 1,59,60
 517 1444 517 1444 635 1444 c 0,61,62
 730 1444 730 1444 801 1450 c 1,63,-1
 1248 580 l 1,64,65
 1407 1232 1407 1232 1532 1413 c 0,66,67
 1622 1544 1622 1544 1753 1544 c 0,68,0
 1824 1544 1824 1544 1878.5 1515 c 128,-1,1
EndSplineSet
Substitution2: "'c2sc' Capitals to Small Capitals lookup 23 subtable" n.smcp
Substitution2: "'aalt' Access All Alternates lookup 0 subtable" n.smcp
Position2: "'cpsp' Capital Spacing lookup 0 subtable" dx=20 dy=0 dh=20 dv=0
EndChar
StartChar: O
Encoding: 79 79 72
Width: 1657
GlyphClass: 2
Flags: W
AnchorPoint: "Anchor-5" 686 0 basechar 0
AnchorPoint: "Anchor-4" 1096 1450 basechar 0
AnchorPoint: "Anchor-3" 0 0 basechar 0
LayerCount: 2
Back
Fore
SplineSet
193.5 932 m 128,-1,1
 318 1169 318 1169 542 1324 c 128,-1,2
 766 1479 766 1479 1046 1479 c 0,3,4
 1234 1479 1234 1479 1370 1421 c 128,-1,5
 1506 1363 1506 1363 1579 1252 c 128,-1,6
 1652 1141 1652 1141 1652 985 c 0,7,8
 1652 754 1652 754 1526.5 517.5 c 128,-1,9
 1401 281 1401 281 1176.5 126 c 128,-1,10
 952 -29 952 -29 673 -29 c 0,11,12
 485 -29 485 -29 349 29 c 128,-1,13
 213 87 213 87 141 197.5 c 128,-1,14
 69 308 69 308 69 463 c 0,15,0
 69 695 69 695 193.5 932 c 128,-1,1
778 1294.5 m 128,-1,17
 658 1147 658 1147 584.5 913 c 128,-1,18
 511 679 511 679 511 436 c 0,19,20
 511 305 511 305 534 208 c 128,-1,21
 557 111 557 111 598 59.5 c 128,-1,22
 639 8 639 8 691 8 c 0,23,24
 820 8 820 8 940 155.5 c 128,-1,25
 1060 303 1060 303 1133.5 537 c 128,-1,26
 1207 771 1207 771 1207 1014 c 0,27,28
 1207 1145 1207 1145 1184 1242 c 128,-1,29
 1161 1339 1161 1339 1120.5 1390.5 c 128,-1,30
 1080 1442 1080 1442 1027 1442 c 0,31,16
 898 1442 898 1442 778 1294.5 c 128,-1,17
EndSplineSet
Substitution2: "Single Substitution lookup 29 subtable" ordmasculine
Substitution2: "'c2sc' Capitals to Small Capitals lookup 23 subtable" o.smcp
AlternateSubs2: "'aalt' Access All Alternates lookup 1 subtable" ordmasculine o.smcp
Position2: "'cpsp' Capital Spacing lookup 0 subtable" dx=20 dy=0 dh=20 dv=0
EndChar
StartChar: P
Encoding: 80 80 83
Width: 1391
GlyphClass: 2
Flags: W
AnchorPoint: "Anchor-5" 281 0 basechar 0
AnchorPoint: "Anchor-4" 922 1450 basechar 0
AnchorPoint: "Anchor-3" 0 0 basechar 0
LayerCount: 2
Back
Fore
SplineSet
521 135 m 0,1,2
 521 90 521 90 551.5 67.5 c 128,-1,3
 582 45 582 45 655 41 c 1,4,-1
 647 0 l 1,5,6
 506 6 506 6 291 6 c 0,7,8
 25 6 25 6 -98 0 c 1,9,-1
 -90 41 l 1,10,11
 -16 44 -16 44 20.5 57 c 128,-1,12
 57 70 57 70 79 105 c 128,-1,13
 101 140 101 140 121 217 c 2,14,-1
 391 1233 l 1,15,16
 405 1311 405 1311 405 1327 c 0,17,18
 405 1368 405 1368 376 1386.5 c 128,-1,19
 347 1405 347 1405 270 1409 c 1,20,-1
 281 1450 l 1,21,22
 400 1444 400 1444 655 1444 c 0,23,24
 704 1444 704 1444 802 1446 c 0,25,26
 902 1448 902 1448 954 1448 c 0,27,28
 1224 1448 1224 1448 1354.5 1372 c 128,-1,29
 1485 1296 1485 1296 1485 1139 c 0,30,31
 1485 984 1485 984 1378 859.5 c 128,-1,32
 1271 735 1271 735 1077 661.5 c 128,-1,33
 883 588 883 588 632 582 c 1,34,-1
 535 217 l 2,35,0
 521 167 521 167 521 135 c 0,1,2
878 724 m 128,-1,37
 970 814 970 814 1011.5 940.5 c 128,-1,38
 1053 1067 1053 1067 1053 1194 c 0,39,40
 1053 1300 1053 1300 1015 1354.5 c 128,-1,41
 977 1409 977 1409 895 1409 c 0,42,43
 872 1409 872 1409 860 1400 c 128,-1,44
 848 1391 848 1391 841 1371 c 128,-1,45
 834 1351 834 1351 823 1304 c 2,46,-1
 805 1233 l 1,47,-1
 643 624 l 1,48,36
 786 634 786 634 878 724 c 128,-1,37
EndSplineSet
Substitution2: "'c2sc' Capitals to Small Capitals lookup 23 subtable" p.smcp
Substitution2: "'aalt' Access All Alternates lookup 0 subtable" p.smcp
Position2: "'cpsp' Capital Spacing lookup 0 subtable" dx=20 dy=0 dh=20 dv=0
EndChar
StartChar: Q
Encoding: 81 81 85
Width: 1772
GlyphClass: 2
Flags: W
LayerCount: 2
Back
Fore
SplineSet
1553 230 m 128,-1,1
 1612 177 1612 177 1612 76 c 0,2,3
 1612 -36 1612 -36 1537.5 -143 c 128,-1,4
 1463 -250 1463 -250 1326 -317.5 c 128,-1,5
 1189 -385 1189 -385 1010 -385 c 0,6,7
 876 -385 876 -385 767 -347 c 128,-1,8
 658 -309 658 -309 578.5 -255 c 128,-1,9
 499 -201 499 -201 403 -119 c 1,10,11
 253 -168 253 -168 143 -168 c 0,12,13
 44 -168 44 -168 -13 -125.5 c 128,-1,14
 -70 -83 -70 -83 -70 6 c 0,15,16
 -70 80 -70 80 -29.5 140 c 128,-1,17
 11 200 11 200 82.5 234 c 128,-1,18
 154 268 154 268 242 268 c 0,19,20
 320 268 320 268 401.5 241 c 128,-1,21
 483 214 483 214 560 171.5 c 128,-1,22
 637 129 637 129 737 64 c 1,23,24
 914 160 914 160 1044.5 300 c 128,-1,25
 1175 440 1175 440 1247 621.5 c 128,-1,26
 1319 803 1319 803 1319 1016 c 0,27,28
 1319 1221 1319 1221 1247 1331.5 c 128,-1,29
 1175 1442 1175 1442 1038 1442 c 0,30,31
 907 1442 907 1442 805.5 1346 c 128,-1,32
 704 1250 704 1250 648 1099.5 c 128,-1,33
 592 949 592 949 592 793 c 0,34,35
 592 720 592 720 608 670.5 c 128,-1,36
 624 621 624 621 666.5 593 c 128,-1,37
 709 565 709 565 786 565 c 0,38,39
 864 565 864 565 932.5 593 c 128,-1,40
 1001 621 1001 621 1050.5 670 c 128,-1,41
 1100 719 1100 719 1126 782 c 0,42,43
 1148 833 1148 833 1151 891 c 1,44,45
 1130 816 1130 816 1072 782 c 128,-1,46
 1014 748 1014 748 950 748 c 0,47,48
 896 748 896 748 855 772.5 c 128,-1,49
 814 797 814 797 792 840.5 c 128,-1,50
 770 884 770 884 770 938 c 0,51,52
 770 1003 770 1003 801 1056 c 128,-1,53
 832 1109 832 1109 884.5 1139 c 128,-1,54
 937 1169 937 1169 999 1169 c 0,55,56
 1092 1169 1092 1169 1145 1103 c 128,-1,57
 1198 1037 1198 1037 1198 926 c 0,58,59
 1198 798 1198 798 1128.5 701 c 128,-1,60
 1059 604 1059 604 934.5 551 c 128,-1,61
 810 498 810 498 651 498 c 0,62,63
 510 498 510 498 398 540.5 c 128,-1,64
 286 583 286 583 222 666 c 128,-1,65
 158 749 158 749 158 866 c 0,66,67
 158 1035 158 1035 287.5 1176 c 128,-1,68
 417 1317 417 1317 631 1398 c 128,-1,69
 845 1479 845 1479 1087 1479 c 0,70,71
 1279 1479 1279 1479 1431.5 1427.5 c 128,-1,72
 1584 1376 1584 1376 1670.5 1283 c 128,-1,73
 1757 1190 1757 1190 1757 1069 c 0,74,75
 1757 913 1757 913 1615 724 c 128,-1,76
 1473 535 1473 535 1246.5 355 c 128,-1,77
 1020 175 1020 175 772 42 c 1,78,79
 889 -34 889 -34 967.5 -79 c 128,-1,80
 1046 -124 1046 -124 1132.5 -155 c 128,-1,81
 1219 -186 1219 -186 1303 -186 c 0,82,83
 1407 -186 1407 -186 1463.5 -141.5 c 128,-1,84
 1520 -97 1520 -97 1544 -37 c 1,85,86
 1474 -104 1474 -104 1370 -104 c 0,87,88
 1315 -104 1315 -104 1269.5 -83 c 128,-1,89
 1224 -62 1224 -62 1197.5 -21 c 128,-1,90
 1171 20 1171 20 1171 78 c 0,91,92
 1171 138 1171 138 1200 184.5 c 128,-1,93
 1229 231 1229 231 1281 257 c 128,-1,94
 1333 283 1333 283 1399 283 c 0,95,0
 1494 283 1494 283 1553 230 c 128,-1,1
370 -91 m 1,97,98
 279 -15 279 -15 215 22 c 128,-1,99
 151 59 151 59 80 59 c 0,100,101
 29 59 29 59 3 39 c 128,-1,102
 -23 19 -23 19 -23 -18 c 0,103,104
 -23 -70 -23 -70 24 -101.5 c 128,-1,105
 71 -133 71 -133 156 -133 c 0,106,96
 238 -133 238 -133 370 -91 c 1,97,98
EndSplineSet
Substitution2: "'c2sc' Capitals to Small Capitals lookup 23 subtable" q.smcp
Substitution2: "'aalt' Access All Alternates lookup 0 subtable" q.smcp
Position2: "'cpsp' Capital Spacing lookup 0 subtable" dx=20 dy=0 dh=20 dv=0
EndChar
StartChar: R
Encoding: 82 82 86
Width: 1520
GlyphClass: 2
Flags: W
AnchorPoint: "Anchor-5" 692 0 basechar 0
AnchorPoint: "Anchor-4" 879 1450 basechar 0
AnchorPoint: "Anchor-3" 0 0 basechar 0
LayerCount: 2
Back
Fore
SplineSet
1475 248 m 1,0,-1
 1466 221 l 2,1,2
 1426 91 1426 91 1340.5 31 c 128,-1,3
 1255 -29 1255 -29 1108 -29 c 0,4,5
 960 -29 960 -29 886.5 27 c 128,-1,6
 813 83 813 83 813 186 c 0,7,8
 813 214 813 214 817 238 c 2,9,-1
 856 471 l 2,10,11
 862 507 862 507 862 540 c 0,12,13
 862 614 862 614 817.5 654 c 128,-1,14
 773 694 773 694 664 699 c 1,15,-1
 537 217 l 2,16,17
 517 141 517 141 517 117 c 0,18,19
 517 79 517 79 547 62 c 128,-1,20
 577 45 577 45 655 41 c 1,21,-1
 647 0 l 1,22,23
 506 6 506 6 283 6 c 0,24,25
 25 6 25 6 -98 0 c 1,26,-1
 -90 41 l 1,27,28
 -16 44 -16 44 20.5 57 c 128,-1,29
 57 70 57 70 79 105 c 128,-1,30
 101 140 101 140 121 217 c 2,31,-1
 389 1233 l 2,32,33
 407 1305 407 1305 407 1329 c 0,34,35
 407 1368 407 1368 377 1386 c 128,-1,36
 347 1404 347 1404 270 1409 c 1,37,-1
 281 1450 l 1,38,39
 400 1444 400 1444 629 1444 c 0,40,41
 717 1444 717 1444 825 1446 c 0,42,43
 909 1448 909 1448 942 1448 c 0,44,45
 1131 1448 1131 1448 1250 1420 c 128,-1,46
 1369 1392 1369 1392 1427 1330 c 128,-1,47
 1485 1268 1485 1268 1485 1165 c 0,48,49
 1485 1041 1485 1041 1405.5 945 c 128,-1,50
 1326 849 1326 849 1180 790 c 128,-1,51
 1034 731 1034 731 837 714 c 1,52,53
 972 705 972 705 1064.5 683 c 128,-1,54
 1157 661 1157 661 1212.5 611.5 c 128,-1,55
 1268 562 1268 562 1268 476 c 0,56,57
 1268 451 1268 451 1264 428 c 2,58,-1
 1229 215 l 2,59,60
 1224 185 1224 185 1224 167 c 0,61,62
 1224 88 1224 88 1290 88 c 0,63,64
 1332 88 1332 88 1362.5 120.5 c 128,-1,65
 1393 153 1393 153 1417 219 c 2,66,-1
 1427 248 l 1,67,-1
 1475 248 l 1,0,-1
863.5 1386.5 m 128,-1,69
 840 1364 840 1364 823 1303 c 2,70,-1
 674 735 l 1,71,72
 772 740 772 740 863.5 793.5 c 128,-1,73
 955 847 955 847 1014 952 c 128,-1,74
 1073 1057 1073 1057 1073 1208 c 0,75,76
 1073 1409 1073 1409 930 1409 c 0,77,68
 887 1409 887 1409 863.5 1386.5 c 128,-1,69
EndSplineSet
Substitution2: "'c2sc' Capitals to Small Capitals lookup 23 subtable" r.smcp
Substitution2: "'aalt' Access All Alternates lookup 0 subtable" r.smcp
Position2: "'cpsp' Capital Spacing lookup 0 subtable" dx=20 dy=0 dh=20 dv=0
EndChar
StartChar: S
Encoding: 83 83 90
Width: 1247
GlyphClass: 2
Flags: W
AnchorPoint: "Anchor-5" 487 0 basechar 0
AnchorPoint: "Anchor-4" 834 1450 basechar 0
AnchorPoint: "Anchor-3" 0 0 basechar 0
LayerCount: 2
Back
Fore
SplineSet
1208 1047 m 1,1,-1
 1167 1047 l 1,2,3
 1180 1102 1180 1102 1180 1159 c 0,4,5
 1180 1283 1180 1283 1101.5 1353 c 128,-1,6
 1023 1423 1023 1423 885 1423 c 0,7,8
 788 1423 788 1423 726 1375 c 128,-1,9
 664 1327 664 1327 664 1225 c 0,10,11
 664 1162 664 1162 692.5 1099 c 128,-1,12
 721 1036 721 1036 763.5 980 c 128,-1,13
 806 924 806 924 877 842 c 0,14,15
 957 749 957 749 1005 684.5 c 128,-1,16
 1053 620 1053 620 1086.5 543.5 c 128,-1,17
 1120 467 1120 467 1120 385 c 0,18,19
 1120 246 1120 246 1025 152.5 c 128,-1,20
 930 59 930 59 792 15 c 128,-1,21
 654 -29 654 -29 524 -29 c 0,22,23
 420 -29 420 -29 353.5 -19 c 128,-1,24
 287 -9 287 -9 239.5 10 c 128,-1,25
 192 29 192 29 127 66 c 0,26,27
 73 96 73 96 57 96 c 0,28,29
 38 96 38 96 25.5 87 c 128,-1,30
 13 78 13 78 1 55.5 c 128,-1,31
 -11 33 -11 33 -31 -14 c 1,32,-1
 -72 -14 l 1,33,34
 -4 148 -4 148 68 477 c 1,35,-1
 109 477 l 1,36,37
 90 424 90 424 90 336 c 0,38,39
 90 179 90 179 177 98.5 c 128,-1,40
 264 18 264 18 424 18 c 0,41,42
 557 18 557 18 610.5 68 c 128,-1,43
 664 118 664 118 664 207 c 0,44,45
 664 289 664 289 635.5 362.5 c 128,-1,46
 607 436 607 436 565.5 497 c 128,-1,47
 524 558 524 558 455 644 c 0,48,49
 387 729 387 729 347 787.5 c 128,-1,50
 307 846 307 846 279.5 916 c 128,-1,51
 252 986 252 986 252 1063 c 0,52,53
 252 1198 252 1198 334.5 1292 c 128,-1,54
 417 1386 417 1386 541.5 1432.5 c 128,-1,55
 666 1479 666 1479 791 1479 c 0,56,57
 878 1479 878 1479 947.5 1463 c 128,-1,58
 1017 1447 1017 1447 1051 1432 c 128,-1,59
 1085 1417 1085 1417 1153 1384 c 0,60,61
 1186 1370 1186 1370 1175 1374 c 1,62,63
 1211 1356 1211 1356 1221 1356 c 0,64,65
 1237 1356 1237 1356 1252.5 1381.5 c 128,-1,66
 1268 1407 1268 1407 1288 1464 c 1,67,-1
 1329 1464 l 1,68,0
 1251 1274 1251 1274 1208 1047 c 1,1,-1
EndSplineSet
Substitution2: "'c2sc' Capitals to Small Capitals lookup 23 subtable" s.smcp
Substitution2: "'aalt' Access All Alternates lookup 0 subtable" s.smcp
Position2: "'cpsp' Capital Spacing lookup 0 subtable" dx=20 dy=0 dh=20 dv=0
EndChar
StartChar: T
Encoding: 84 84 97
Width: 1423
GlyphClass: 2
Flags: W
AnchorPoint: "Anchor-5" 655 0 basechar 0
AnchorPoint: "Anchor-4" 995 1450 basechar 0
AnchorPoint: "Anchor-3" 0 0 basechar 0
LayerCount: 2
Back
Fore
SplineSet
1722 1790 m 128,-1,1
 1768 1765 1768 1765 1793 1724.5 c 128,-1,2
 1818 1684 1818 1684 1818 1638 c 0,3,4
 1818 1488 1818 1488 1646 1415 c 0,5,6
 1511 1360 1511 1360 1291 1360 c 0,7,8
 1253 1360 1253 1360 1232 1361 c 1,9,-1
 935 238 l 2,10,11
 920 184 920 184 920 149 c 0,12,13
 920 95 920 95 958.5 71 c 128,-1,14
 997 47 997 47 1089 41 c 1,15,-1
 1080 0 l 1,16,17
 936 6 936 6 652 6 c 0,18,19
 380 6 380 6 251 0 c 1,20,-1
 259 41 l 1,21,22
 347 44 347 44 395.5 62 c 128,-1,23
 444 80 444 80 471.5 120 c 128,-1,24
 499 160 499 160 519 238 c 2,25,-1
 826 1390 l 1,26,27
 670 1401 670 1401 593 1401 c 0,28,29
 432 1401 432 1401 359 1366 c 1,30,31
 440 1355 440 1355 491 1302.5 c 128,-1,32
 542 1250 542 1250 542 1167 c 0,33,34
 542 1109 542 1109 515.5 1062.5 c 128,-1,35
 489 1016 489 1016 443.5 989.5 c 128,-1,36
 398 963 398 963 343 963 c 0,37,38
 286 963 286 963 244 990 c 128,-1,39
 202 1017 202 1017 180.5 1062.5 c 128,-1,40
 159 1108 159 1108 159 1161 c 0,41,42
 159 1226 159 1226 193.5 1287.5 c 128,-1,43
 228 1349 228 1349 308 1389 c 0,44,45
 409 1438 409 1438 583 1438 c 0,46,47
 727 1438 727 1438 991 1418 c 0,48,49
 1210 1401 1210 1401 1312 1401 c 0,50,51
 1416 1401 1416 1401 1496 1416 c 1,52,53
 1460 1449 1460 1449 1437 1499 c 128,-1,54
 1414 1549 1414 1549 1414 1610 c 0,55,56
 1414 1672 1414 1672 1440 1718 c 128,-1,57
 1466 1764 1466 1764 1512 1789.5 c 128,-1,58
 1558 1815 1558 1815 1617 1815 c 256,59,0
 1676 1815 1676 1815 1722 1790 c 128,-1,1
EndSplineSet
Substitution2: "'c2sc' Capitals to Small Capitals lookup 23 subtable" t.smcp
Substitution2: "'aalt' Access All Alternates lookup 0 subtable" t.smcp
Position2: "'cpsp' Capital Spacing lookup 0 subtable" dx=20 dy=0 dh=20 dv=0
EndChar
StartChar: U
Encoding: 85 85 102
Width: 1438
GlyphClass: 2
Flags: W
AnchorPoint: "Anchor-5" 662 0 basechar 0
AnchorPoint: "Anchor-4" 1014 1450 basechar 0
AnchorPoint: "Anchor-3" 819 0 basechar 0
LayerCount: 2
Back
Fore
SplineSet
1377 1281 m 0,1,2
 1377 1322 1377 1322 1361.5 1347 c 128,-1,3
 1346 1372 1346 1372 1312 1386 c 128,-1,4
 1278 1400 1278 1400 1218 1409 c 1,5,-1
 1230 1450 l 1,6,7
 1310 1444 1310 1444 1457 1444 c 0,8,9
 1565 1444 1565 1444 1629 1450 c 1,10,-1
 1617 1409 l 1,11,12
 1550 1395 1550 1395 1512 1365 c 128,-1,13
 1474 1335 1474 1335 1447 1273.5 c 128,-1,14
 1420 1212 1420 1212 1388 1090 c 2,15,-1
 1261 596 l 2,16,17
 1186 311 1186 311 1060 162 c 0,18,19
 985 74 985 74 875 22.5 c 128,-1,20
 765 -29 765 -29 640 -29 c 0,21,22
 461 -29 461 -29 347.5 23.5 c 128,-1,23
 234 76 234 76 185 166 c 0,24,25
 143 244 143 244 143 349 c 0,26,27
 143 447 143 447 181 590 c 2,28,-1
 351 1233 l 2,29,30
 368 1298 368 1298 368 1331 c 0,31,32
 368 1362 368 1362 354.5 1378 c 128,-1,33
 341 1394 341 1394 312 1400.5 c 128,-1,34
 283 1407 283 1407 230 1409 c 1,35,-1
 243 1450 l 1,36,37
 363 1444 363 1444 630 1444 c 0,38,39
 844 1444 844 1444 988 1450 c 1,40,-1
 976 1409 l 1,41,42
 901 1406 901 1406 864.5 1393 c 128,-1,43
 828 1380 828 1380 806.5 1345 c 128,-1,44
 785 1310 785 1310 765 1233 c 2,45,-1
 585 555 l 2,46,47
 534 364 534 364 534 246 c 0,48,49
 534 43 534 43 679 43 c 0,50,51
 894 43 894 43 1017.5 182.5 c 128,-1,52
 1141 322 1141 322 1207 573 c 2,53,-1
 1332 1049 l 2,54,0
 1377 1219 1377 1219 1377 1281 c 0,1,2
EndSplineSet
Substitution2: "'c2sc' Capitals to Small Capitals lookup 23 subtable" u.smcp
Substitution2: "'aalt' Access All Alternates lookup 0 subtable" u.smcp
Position2: "'cpsp' Capital Spacing lookup 0 subtable" dx=20 dy=0 dh=20 dv=0
EndChar
StartChar: V
Encoding: 86 86 113
Width: 1393
GlyphClass: 2
Flags: W
LayerCount: 2
Back
Fore
SplineSet
1650 1450 m 1,1,-1
 1639 1409 l 1,2,3
 1586 1393 1586 1393 1547 1369 c 128,-1,4
 1508 1345 1508 1345 1466 1297.5 c 128,-1,5
 1424 1250 1424 1250 1369 1165 c 2,6,-1
 605 -10 l 1,7,8
 568 -7 568 -7 529 -7 c 0,9,10
 491 -7 491 -7 452 -10 c 1,11,-1
 290 1278 l 2,12,13
 282 1344 282 1344 250.5 1375.5 c 128,-1,14
 219 1407 219 1407 183 1409 c 1,15,-1
 194 1450 l 1,16,17
 310 1444 310 1444 538 1444 c 0,18,19
 774 1444 774 1444 894 1450 c 1,20,-1
 884 1409 l 1,21,22
 822 1406 822 1406 787 1395.5 c 128,-1,23
 752 1385 752 1385 735 1358 c 128,-1,24
 718 1331 718 1331 718 1280 c 0,25,26
 718 1253 718 1253 720 1237 c 2,27,-1
 813 381 l 1,28,-1
 1334 1182 l 2,29,30
 1380 1252 1380 1252 1380 1301 c 0,31,32
 1380 1396 1380 1396 1195 1409 c 1,33,-1
 1205 1450 l 1,34,35
 1263 1444 1263 1444 1496 1444 c 0,36,0
 1586 1444 1586 1444 1650 1450 c 1,1,-1
EndSplineSet
Substitution2: "'c2sc' Capitals to Small Capitals lookup 23 subtable" v.smcp
Substitution2: "'aalt' Access All Alternates lookup 0 subtable" v.smcp
Position2: "'cpsp' Capital Spacing lookup 0 subtable" dx=20 dy=0 dh=20 dv=0
EndChar
StartChar: W
Encoding: 87 87 114
Width: 2120
GlyphClass: 2
Flags: W
AnchorPoint: "Anchor-5" 0 0 basechar 0
AnchorPoint: "Anchor-4" 1348 1444 basechar 0
AnchorPoint: "Anchor-3" 0 0 basechar 0
LayerCount: 2
Back
Fore
SplineSet
2364 1450 m 1,1,-1
 2354 1409 l 1,2,3
 2297 1392 2297 1392 2257.5 1370 c 128,-1,4
 2218 1348 2218 1348 2175.5 1300 c 128,-1,5
 2133 1252 2133 1252 2084 1165 c 2,6,-1
 1414 -10 l 1,7,-1
 1261 -10 l 1,8,-1
 1148 892 l 1,9,-1
 597 -10 l 1,10,-1
 443 -10 l 1,11,-1
 282 1278 l 2,12,13
 273 1345 273 1345 242 1376 c 128,-1,14
 211 1407 211 1407 175 1409 c 1,15,-1
 185 1450 l 1,16,17
 302 1444 302 1444 529 1444 c 0,18,19
 723 1444 723 1444 824 1450 c 1,20,-1
 814 1409 l 1,21,22
 775 1406 775 1406 753.5 1395 c 128,-1,23
 732 1384 732 1384 721.5 1357 c 128,-1,24
 711 1330 711 1330 711 1279 c 0,25,26
 711 1252 711 1252 712 1237 c 2,27,-1
 802 406 l 1,28,-1
 1140 953 l 1,29,-1
 1099 1278 l 2,30,31
 1092 1344 1092 1344 1066.5 1375.5 c 128,-1,32
 1041 1407 1041 1407 1013 1409 c 1,33,-1
 1023 1450 l 1,34,35
 1134 1444 1134 1444 1347 1444 c 0,36,37
 1583 1444 1583 1444 1703 1450 c 1,38,-1
 1693 1409 l 1,39,40
 1631 1406 1631 1406 1596 1395.5 c 128,-1,41
 1561 1385 1561 1385 1544 1358 c 128,-1,42
 1527 1331 1527 1331 1527 1280 c 0,43,44
 1527 1253 1527 1253 1529 1237 c 2,45,-1
 1617 427 l 1,46,-1
 2049 1182 l 2,47,48
 2091 1256 2091 1256 2091 1304 c 0,49,50
 2091 1355 2091 1355 2045 1379 c 128,-1,51
 1999 1403 1999 1403 1910 1409 c 1,52,-1
 1920 1450 l 1,53,54
 1979 1444 1979 1444 2211 1444 c 0,55,0
 2300 1444 2300 1444 2364 1450 c 1,1,-1
EndSplineSet
Substitution2: "'c2sc' Capitals to Small Capitals lookup 23 subtable" w.smcp
Substitution2: "'aalt' Access All Alternates lookup 0 subtable" w.smcp
Position2: "'cpsp' Capital Spacing lookup 0 subtable" dx=20 dy=0 dh=20 dv=0
EndChar
StartChar: X
Encoding: 88 88 119
Width: 1575
GlyphClass: 2
Flags: W
LayerCount: 2
Back
Fore
SplineSet
1619 1447.5 m 128,-1,1
 1669 1416 1669 1416 1696.5 1362 c 128,-1,2
 1724 1308 1724 1308 1724 1241 c 0,3,4
 1724 1170 1724 1170 1694.5 1116.5 c 128,-1,5
 1665 1063 1665 1063 1614 1033.5 c 128,-1,6
 1563 1004 1563 1004 1501 1004 c 0,7,8
 1424 1004 1424 1004 1378.5 1049.5 c 128,-1,9
 1333 1095 1333 1095 1333 1176 c 0,10,11
 1333 1236 1333 1236 1360 1288.5 c 128,-1,12
 1387 1341 1387 1341 1435.5 1377 c 128,-1,13
 1484 1413 1484 1413 1546 1427 c 1,14,15
 1531 1444 1531 1444 1493 1444 c 0,16,17
 1430 1444 1430 1444 1358 1393 c 1,18,19
 1287 1333 1287 1333 1198.5 1199.5 c 128,-1,20
 1110 1066 1110 1066 1025 877 c 1,21,-1
 1106 215 l 2,22,23
 1118 137 1118 137 1192 137 c 0,24,25
 1276 137 1276 137 1313 244 c 2,26,-1
 1348 348 l 1,27,-1
 1389 348 l 1,28,-1
 1335 190 l 2,29,30
 1292 73 1292 73 1217 22 c 128,-1,31
 1142 -29 1142 -29 1028 -29 c 0,32,33
 908 -29 908 -29 836 7.5 c 128,-1,34
 764 44 764 44 728 113 c 128,-1,35
 692 182 692 182 678 291 c 2,36,-1
 655 474 l 1,37,38
 583 340 583 340 494 223.5 c 128,-1,39
 405 107 405 107 322 39 c 1,40,41
 228 -29 228 -29 129 -29 c 0,42,43
 63 -29 63 -29 13 2.5 c 128,-1,44
 -37 34 -37 34 -64.5 88 c 128,-1,45
 -92 142 -92 142 -92 209 c 0,46,47
 -92 280 -92 280 -62.5 333.5 c 128,-1,48
 -33 387 -33 387 18 416.5 c 128,-1,49
 69 446 69 446 131 446 c 0,50,51
 208 446 208 446 253.5 400.5 c 128,-1,52
 299 355 299 355 299 274 c 0,53,54
 299 214 299 214 272 161.5 c 128,-1,55
 245 109 245 109 196.5 73 c 128,-1,56
 148 37 148 37 86 23 c 1,57,58
 101 6 101 6 139 6 c 0,59,60
 197 6 197 6 279 57 c 1,61,62
 355 112 355 112 454.5 237.5 c 128,-1,63
 554 363 554 363 647 538 c 1,64,-1
 559 1245 l 2,65,66
 553 1289 553 1289 533.5 1308 c 128,-1,67
 514 1327 514 1327 477 1327 c 0,68,69
 394 1327 394 1327 352 1206 c 2,70,-1
 317 1102 l 1,71,-1
 276 1102 l 1,72,-1
 330 1260 l 2,73,74
 373 1376 373 1376 456.5 1427.5 c 128,-1,75
 540 1479 540 1479 664 1479 c 0,76,77
 771 1479 771 1479 838 1445 c 128,-1,78
 905 1411 905 1411 941.5 1341 c 128,-1,79
 978 1271 978 1271 991 1159 c 2,80,-1
 1017 946 l 1,81,82
 1084 1091 1084 1091 1165 1215 c 128,-1,83
 1246 1339 1246 1339 1317 1405 c 1,84,85
 1409 1479 1409 1479 1503 1479 c 0,86,0
 1569 1479 1569 1479 1619 1447.5 c 128,-1,1
EndSplineSet
Substitution2: "'c2sc' Capitals to Small Capitals lookup 23 subtable" x.smcp
Substitution2: "'aalt' Access All Alternates lookup 0 subtable" x.smcp
Position2: "'cpsp' Capital Spacing lookup 0 subtable" dx=20 dy=0 dh=20 dv=0
EndChar
StartChar: Y
Encoding: 89 89 120
Width: 1589
GlyphClass: 2
Flags: W
AnchorPoint: "Anchor-5" 0 0 basechar 0
AnchorPoint: "Anchor-4" 993 1450 basechar 0
AnchorPoint: "Anchor-3" 0 0 basechar 0
LayerCount: 2
Back
Fore
SplineSet
1633.5 1450 m 128,-1,1
 1688 1421 1688 1421 1718 1371 c 128,-1,2
 1748 1321 1748 1321 1748 1260 c 0,3,4
 1748 1196 1748 1196 1717.5 1146.5 c 128,-1,5
 1687 1097 1687 1097 1635 1070.5 c 128,-1,6
 1583 1044 1583 1044 1519 1044 c 0,7,8
 1435 1044 1435 1044 1385.5 1084.5 c 128,-1,9
 1336 1125 1336 1125 1336 1196 c 0,10,11
 1336 1256 1336 1256 1364 1305 c 128,-1,12
 1392 1354 1392 1354 1440.5 1385.5 c 128,-1,13
 1489 1417 1489 1417 1549 1427 c 1,14,15
 1534 1444 1534 1444 1498 1444 c 0,16,17
 1465 1444 1465 1444 1434.5 1433 c 128,-1,18
 1404 1422 1404 1422 1367 1395 c 0,19,20
 1314 1356 1314 1356 1240.5 1249 c 128,-1,21
 1167 1142 1167 1142 1092 976.5 c 128,-1,22
 1017 811 1017 811 962 609 c 2,23,-1
 863 217 l 2,24,25
 852 171 852 171 852 144 c 0,26,27
 852 103 852 103 871 81.5 c 128,-1,28
 890 60 890 60 926.5 52 c 128,-1,29
 963 44 963 44 1025 41 c 1,30,-1
 1015 0 l 1,31,32
 886 6 886 6 597 6 c 0,33,34
 346 6 346 6 226 0 c 1,35,-1
 237 41 l 1,36,37
 311 44 311 44 348 57 c 128,-1,38
 385 70 385 70 407 105.5 c 128,-1,39
 429 141 429 141 448 217 c 2,40,-1
 553 636 l 1,41,42
 524 905 524 905 464 1104 c 128,-1,43
 404 1303 404 1303 321 1303 c 0,44,45
 285 1303 285 1303 264 1276 c 128,-1,46
 243 1249 243 1249 228 1206 c 2,47,-1
 194 1102 l 1,48,-1
 149 1102 l 1,49,-1
 192 1233 l 2,50,51
 235 1365 235 1365 326.5 1422 c 128,-1,52
 418 1479 418 1479 538 1479 c 0,53,54
 690 1479 690 1479 772 1399 c 128,-1,55
 854 1319 854 1319 892.5 1171.5 c 128,-1,56
 931 1024 931 1024 962 756 c 1,57,58
 1090 1151 1090 1151 1265 1356 c 0,59,60
 1370 1479 1370 1479 1508 1479 c 0,61,0
 1579 1479 1579 1479 1633.5 1450 c 128,-1,1
EndSplineSet
Substitution2: "'c2sc' Capitals to Small Capitals lookup 23 subtable" y.smcp
Substitution2: "'aalt' Access All Alternates lookup 0 subtable" y.smcp
Position2: "'cpsp' Capital Spacing lookup 0 subtable" dx=20 dy=0 dh=20 dv=0
EndChar
StartChar: Z
Encoding: 90 90 125
Width: 1356
GlyphClass: 2
Flags: W
AnchorPoint: "Anchor-5" 492 0 basechar 0
AnchorPoint: "Anchor-4" 877 1450 basechar 0
AnchorPoint: "Anchor-3" 0 0 basechar 0
LayerCount: 2
Back
Fore
SplineSet
1482 1433 m 0,1,2
 1482 1404 1482 1404 1444 1370 c 128,-1,3
 1406 1336 1406 1336 1329 1307 c 1,4,-1
 762 750 l 1,5,-1
 1073 750 l 1,6,-1
 1057 709 l 1,7,-1
 721 709 l 1,8,-1
 168 166 l 1,9,10
 385 373 385 373 600 373 c 0,11,12
 682 373 682 373 744 360.5 c 128,-1,13
 806 348 806 348 882 326 c 0,14,15
 932 312 932 312 960 305.5 c 128,-1,16
 988 299 988 299 1016 299 c 0,17,18
 1075 299 1075 299 1075 346 c 0,19,20
 1075 413 1075 413 926 442 c 1,21,-1
 934 481 l 1,22,23
 1061 462 1061 462 1147 404 c 128,-1,24
 1233 346 1233 346 1233 244 c 0,25,26
 1233 165 1233 165 1192.5 103 c 128,-1,27
 1152 41 1152 41 1077.5 6 c 128,-1,28
 1003 -29 1003 -29 903 -29 c 0,29,30
 816 -29 816 -29 749.5 -9 c 128,-1,31
 683 11 683 11 593 51 c 0,32,33
 503 90 503 90 438.5 109.5 c 128,-1,34
 374 129 374 129 291 129 c 0,35,36
 221 129 221 129 131 98 c 1,37,38
 95 45 95 45 53 12 c 128,-1,39
 11 -21 11 -21 -20 -21 c 0,40,41
 -36 -21 -36 -21 -49 -10 c 0,42,43
 -61 1 -61 1 -61 17 c 0,44,45
 -61 45 -61 45 -23 79.5 c 128,-1,46
 15 114 15 114 92 143 c 1,47,-1
 668 709 l 1,48,-1
 336 709 l 1,49,-1
 350 750 l 1,50,-1
 709 750 l 1,51,-1
 1248 1279 l 1,52,53
 1035 1077 1035 1077 823 1077 c 0,54,55
 741 1077 741 1077 679 1089.5 c 128,-1,56
 617 1102 617 1102 541 1124 c 0,57,58
 453 1151 453 1151 408 1151 c 0,59,60
 348 1151 348 1151 348 1104 c 0,61,62
 348 1037 348 1037 498 1008 c 1,63,-1
 487 969 l 1,64,65
 360 988 360 988 274 1046 c 128,-1,66
 188 1104 188 1104 188 1206 c 0,67,68
 188 1285 188 1285 228.5 1347 c 128,-1,69
 269 1409 269 1409 343.5 1444 c 128,-1,70
 418 1479 418 1479 518 1479 c 0,71,72
 605 1479 605 1479 671.5 1459 c 128,-1,73
 738 1439 738 1439 828 1399 c 0,74,75
 918 1360 918 1360 982.5 1340.5 c 128,-1,76
 1047 1321 1047 1321 1130 1321 c 0,77,78
 1200 1321 1200 1321 1290 1352 c 1,79,80
 1327 1406 1327 1406 1368 1438.5 c 128,-1,81
 1409 1471 1409 1471 1441 1471 c 0,82,83
 1457 1471 1457 1471 1470 1460 c 0,84,0
 1482 1450 1482 1450 1482 1433 c 0,1,2
EndSplineSet
Substitution2: "'c2sc' Capitals to Small Capitals lookup 23 subtable" z.smcp
Substitution2: "'aalt' Access All Alternates lookup 0 subtable" z.smcp
Position2: "'cpsp' Capital Spacing lookup 0 subtable" dx=20 dy=0 dh=20 dv=0
EndChar
StartChar: backslash
Encoding: 92 92 672
Width: 1004
Flags: W
LayerCount: 2
Back
Fore
SplineSet
730 -29 m 1,0,-1
 267 1479 l 1,1,-1
 331 1479 l 1,2,-1
 798 -29 l 1,3,-1
 730 -29 l 1,0,-1
EndSplineSet
EndChar
StartChar: bracketright
Encoding: 93 93 641
Width: 829
Flags: W
LayerCount: 2
Back
Fore
SplineSet
-166 -371 m 1,0,-1
 -158 -332 l 1,1,-1
 8 -332 l 1,2,-1
 477 1542 l 1,3,-1
 311 1542 l 1,4,-1
 319 1581 l 1,5,-1
 872 1581 l 1,6,-1
 387 -371 l 1,7,-1
 -166 -371 l 1,0,-1
EndSplineSet
Substitution2: "'case' Case-Sensitive Forms lookup 25 subtable" bracketright.case
Substitution2: "'smcp' Lowercase to Small Capitals lookup 24 subtable" bracketright.smcp
Substitution2: "'c2sc' Capitals to Small Capitals lookup 23 subtable" bracketright.smcp
AlternateSubs2: "'aalt' Access All Alternates lookup 1 subtable" bracketright.smcp bracketright.case
EndChar
StartChar: asciicircum
Encoding: 94 94 761
Width: 1071
Flags: W
LayerCount: 2
Back
Fore
SplineSet
122 618 m 1,1,-1
 114 647 l 1,2,3
 273 716 273 716 414 833.5 c 128,-1,4
 555 951 555 951 642 1081 c 1,5,-1
 679 1081 l 1,6,7
 700 947 700 947 778 832 c 128,-1,8
 856 717 856 717 986 649 c 1,9,-1
 974 618 l 1,10,11
 738 646 738 646 511 741 c 1,12,0
 362 668 362 668 122 618 c 1,1,-1
EndSplineSet
Substitution2: "'case' Case-Sensitive Forms lookup 25 subtable" asciicircum.case
Substitution2: "'smcp' Lowercase to Small Capitals lookup 24 subtable" asciicircum.smcp
Substitution2: "'c2sc' Capitals to Small Capitals lookup 23 subtable" asciicircum.smcp
AlternateSubs2: "'aalt' Access All Alternates lookup 1 subtable" asciicircum.smcp asciicircum.case
EndChar
StartChar: grave
Encoding: 96 96 799
Width: 457
Flags: W
LayerCount: 2
Back
Fore
SplineSet
220 1423 m 0,1,2
 173 1464 173 1464 148 1489 c 128,-1,3
 123 1514 123 1514 105 1544 c 0,4,5
 83 1582 83 1582 83 1622 c 0,6,7
 83 1655 83 1655 97.5 1683 c 128,-1,8
 112 1711 112 1711 140 1729 c 0,9,10
 171 1749 171 1749 210 1749 c 256,11,12
 249 1749 249 1749 284 1730 c 128,-1,13
 319 1711 319 1711 337 1681 c 0,14,15
 358 1649 358 1649 367 1614.5 c 128,-1,16
 376 1580 376 1580 385 1515 c 0,17,18
 405 1364 405 1364 445 1241 c 1,19,-1
 421 1227 l 1,20,0
 330 1330 330 1330 220 1423 c 0,1,2
EndSplineSet
Substitution2: "'case' Case-Sensitive Forms lookup 25 subtable" grave.case
Substitution2: "'smcp' Lowercase to Small Capitals lookup 24 subtable" grave.smcp
Substitution2: "'c2sc' Capitals to Small Capitals lookup 23 subtable" grave.smcp
AlternateSubs2: "'aalt' Access All Alternates lookup 1 subtable" grave.smcp grave.case
EndChar
StartChar: a
Encoding: 97 97 134
Width: 1192
GlyphClass: 2
Flags: W
AnchorPoint: "Anchor-5" 0 0 basechar 0
AnchorPoint: "Anchor-4" 754 1053 basechar 0
AnchorPoint: "Anchor-3" 899 0 basechar 0
LayerCount: 2
Back
Fore
SplineSet
1106 332 m 1,0,-1
 1055 182 l 2,1,2
 981 -29 981 -29 762 -29 c 0,3,4
 636 -29 636 -29 584 43 c 0,5,6
 550 91 550 91 550 169 c 0,7,8
 550 192 550 192 551 205 c 1,9,10
 502 78 502 78 424 24.5 c 128,-1,11
 346 -29 346 -29 240 -29 c 0,12,13
 113 -29 113 -29 49.5 36.5 c 128,-1,14
 -14 102 -14 102 -14 227 c 0,15,16
 -14 420 -14 420 89 622.5 c 128,-1,17
 192 825 192 825 347 958.5 c 128,-1,18
 502 1092 502 1092 643 1092 c 0,19,20
 759 1092 759 1092 771 974 c 1,21,-1
 797 1061 l 1,22,23
 1000 1064 1000 1064 1167 1092 c 1,24,-1
 891 174 l 2,25,26
 882 147 882 147 882 124 c 0,27,28
 882 88 882 88 915 88 c 0,29,30
 976 88 976 88 1024 217 c 2,31,-1
 1067 332 l 1,32,-1
 1106 332 l 1,0,-1
499 168.5 m 128,-1,34
 540 226 540 226 590 374 c 1,35,-1
 750 904 l 1,36,37
 752 926 752 926 752 934 c 0,38,39
 752 991 752 991 713 991 c 0,40,41
 655 991 655 991 572.5 872.5 c 128,-1,42
 490 754 490 754 430.5 574 c 128,-1,43
 371 394 371 394 371 219 c 0,44,45
 371 159 371 159 381 135 c 128,-1,46
 391 111 391 111 418 111 c 0,47,33
 458 111 458 111 499 168.5 c 128,-1,34
EndSplineSet
Substitution2: "Single Substitution lookup 29 subtable" ordfeminine
Substitution2: "'smcp' Lowercase to Small Capitals lookup 24 subtable" a.smcp
AlternateSubs2: "'aalt' Access All Alternates lookup 1 subtable" ordfeminine a.smcp
EndChar
StartChar: b
Encoding: 98 98 145
Width: 1178
GlyphClass: 2
Flags: W
LayerCount: 2
Back
Fore
SplineSet
1060 1006 m 128,-1,1
 1130 920 1130 920 1130 758 c 0,2,3
 1130 589 1130 589 1049 404.5 c 128,-1,4
 968 220 968 220 817 95.5 c 128,-1,5
 666 -29 666 -29 469 -29 c 0,6,7
 373 -29 373 -29 308 15 c 1,8,9
 267 26 267 26 226 26 c 0,10,11
 124 26 124 26 -35 -33 c 1,12,-1
 -66 -18 l 1,13,14
 -43 25 -43 25 -20 102 c 2,15,-1
 356 1366 l 2,16,17
 366 1403 366 1403 366 1423 c 0,18,19
 366 1464 366 1464 334 1482.5 c 128,-1,20
 302 1501 302 1501 227 1501 c 1,21,-1
 242 1544 l 1,22,23
 404 1545 404 1545 534.5 1566 c 128,-1,24
 665 1587 665 1587 791 1628 c 1,25,-1
 571 886 l 1,26,27
 631 993 631 993 698 1042.5 c 128,-1,28
 765 1092 765 1092 850 1092 c 0,29,0
 990 1092 990 1092 1060 1006 c 128,-1,1
552 167 m 128,-1,31
 639 295 639 295 694.5 484 c 128,-1,32
 750 673 750 673 750 838 c 0,33,34
 750 905 750 905 738 929.5 c 128,-1,35
 726 954 726 954 700 954 c 0,36,37
 662 954 662 954 619 903 c 128,-1,38
 576 852 576 852 535 764 c 1,39,-1
 323 48 l 1,40,41
 347 39 347 39 377 39 c 0,42,30
 465 39 465 39 552 167 c 128,-1,31
EndSplineSet
Substitution2: "'smcp' Lowercase to Small Capitals lookup 24 subtable" b.smcp
Substitution2: "'aalt' Access All Alternates lookup 0 subtable" b.smcp
EndChar
StartChar: c
Encoding: 99 99 146
Width: 991
GlyphClass: 2
Flags: W
AnchorPoint: "Anchor-5" 371 0 basechar 0
AnchorPoint: "Anchor-4" 680 1051 basechar 0
AnchorPoint: "Anchor-3" 0 0 basechar 0
LayerCount: 2
Back
Fore
SplineSet
591.5 941.5 m 128,-1,1
 500 832 500 832 443.5 659 c 128,-1,2
 387 486 387 486 387 307 c 0,3,4
 387 201 387 201 430.5 149.5 c 128,-1,5
 474 98 474 98 551 98 c 0,6,7
 616 98 616 98 676 135 c 128,-1,8
 736 172 736 172 797 262 c 1,9,-1
 838 246 l 1,10,11
 661 -29 661 -29 369 -29 c 0,12,13
 262 -29 262 -29 179.5 6.5 c 128,-1,14
 97 42 97 42 50.5 114.5 c 128,-1,15
 4 187 4 187 4 295 c 0,16,17
 4 477 4 477 98.5 663 c 128,-1,18
 193 849 193 849 365 970.5 c 128,-1,19
 537 1092 537 1092 756 1092 c 0,20,21
 838 1092 838 1092 898.5 1063 c 128,-1,22
 959 1034 959 1034 990.5 985.5 c 128,-1,23
 1022 937 1022 937 1022 879 c 0,24,25
 1022 814 1022 814 989 751.5 c 128,-1,26
 956 689 956 689 900.5 649.5 c 128,-1,27
 845 610 845 610 782 610 c 0,28,29
 745 610 745 610 713.5 626.5 c 128,-1,30
 682 643 682 643 662.5 675.5 c 128,-1,31
 643 708 643 708 643 754 c 0,32,33
 643 818 643 818 672 874 c 128,-1,34
 701 930 701 930 748.5 969.5 c 128,-1,35
 796 1009 796 1009 852 1026 c 1,36,37
 824 1051 824 1051 782 1051 c 0,38,0
 683 1051 683 1051 591.5 941.5 c 128,-1,1
EndSplineSet
Substitution2: "'smcp' Lowercase to Small Capitals lookup 24 subtable" c.smcp
Substitution2: "'aalt' Access All Alternates lookup 0 subtable" c.smcp
EndChar
StartChar: d
Encoding: 100 100 152
Width: 1235
GlyphClass: 2
Flags: W
LayerCount: 2
Back
Fore
SplineSet
1157 332 m 1,0,-1
 1106 182 l 2,1,2
 1034 -29 1034 -29 813 -29 c 0,3,4
 683 -29 683 -29 629 49 c 0,5,6
 599 93 599 93 599 164 c 0,7,8
 599 206 599 206 609 255 c 1,9,10
 544 109 544 109 463.5 40 c 128,-1,11
 383 -29 383 -29 262 -29 c 0,12,13
 188 -29 188 -29 128.5 2.5 c 128,-1,14
 69 34 69 34 33.5 101 c 128,-1,15
 -2 168 -2 168 -2 270 c 0,16,17
 -2 432 -2 432 81.5 626 c 128,-1,18
 165 820 165 820 323 956 c 128,-1,19
 481 1092 481 1092 692 1092 c 0,20,21
 791 1092 791 1092 817 1041 c 1,22,-1
 903 1366 l 2,23,24
 913 1403 913 1403 913 1423 c 0,25,26
 913 1464 913 1464 881 1482.5 c 128,-1,27
 849 1501 849 1501 774 1501 c 1,28,-1
 788 1544 l 1,29,30
 1096 1547 1096 1547 1343 1628 c 1,31,-1
 942 174 l 2,32,33
 932 145 932 145 932 126 c 0,34,35
 932 88 932 88 967 88 c 0,36,37
 1027 88 1027 88 1075 217 c 2,38,-1
 1118 332 l 1,39,-1
 1157 332 l 1,0,-1
499.5 142.5 m 128,-1,41
 540 187 540 187 588 285 c 128,-1,42
 636 383 636 383 682 532 c 1,43,-1
 744 766 l 1,44,-1
 745 770 l 1,45,-1
 745 769 l 1,46,-1
 804 994 l 1,47,48
 797 1020 797 1020 782.5 1032 c 128,-1,49
 768 1044 768 1044 739 1044 c 0,50,51
 676 1044 676 1044 590 922.5 c 128,-1,52
 504 801 504 801 442.5 609 c 128,-1,53
 381 417 381 417 381 215 c 0,54,55
 381 153 381 153 391.5 125.5 c 128,-1,56
 402 98 402 98 430 98 c 0,57,40
 459 98 459 98 499.5 142.5 c 128,-1,41
EndSplineSet
Substitution2: "'smcp' Lowercase to Small Capitals lookup 24 subtable" d.smcp
Substitution2: "'aalt' Access All Alternates lookup 0 subtable" d.smcp
EndChar
StartChar: e
Encoding: 101 101 156
Width: 1016
GlyphClass: 2
Flags: W
AnchorPoint: "Anchor-5" 393 0 basechar 0
AnchorPoint: "Anchor-4" 711 1053 basechar 0
AnchorPoint: "Anchor-3" 541 0 basechar 0
LayerCount: 2
Back
Fore
SplineSet
937 696 m 128,-1,1
 844 598 844 598 697 529 c 128,-1,2
 550 460 550 460 384 422 c 1,3,4
 377 359 377 359 377 317 c 0,5,6
 377 205 377 205 420 162 c 128,-1,7
 463 119 463 119 547 119 c 0,8,9
 598 119 598 119 678.5 154 c 128,-1,10
 759 189 759 189 834 262 c 1,11,-1
 866 246 l 1,12,13
 788 129 788 129 655 50 c 128,-1,14
 522 -29 522 -29 348 -29 c 0,15,16
 250 -29 250 -29 169.5 4.5 c 128,-1,17
 89 38 89 38 41.5 103 c 128,-1,18
 -6 168 -6 168 -6 260 c 0,19,20
 -6 461 -6 461 97.5 654 c 128,-1,21
 201 847 201 847 380.5 969.5 c 128,-1,22
 560 1092 560 1092 776 1092 c 0,23,24
 891 1092 891 1092 960.5 1046 c 128,-1,25
 1030 1000 1030 1000 1030 911 c 0,26,0
 1030 794 1030 794 937 696 c 128,-1,1
603 964.5 m 128,-1,28
 532 876 532 876 473 737.5 c 128,-1,29
 414 599 414 599 390 459 c 1,30,31
 500 521 500 521 578 598 c 0,32,33
 764 782 764 782 764 1001 c 0,34,35
 764 1053 764 1053 731 1053 c 0,36,27
 674 1053 674 1053 603 964.5 c 128,-1,28
EndSplineSet
Substitution2: "'smcp' Lowercase to Small Capitals lookup 24 subtable" e.smcp
Substitution2: "'aalt' Access All Alternates lookup 0 subtable" e.smcp
EndChar
StartChar: f
Encoding: 102 102 166
Width: 727
GlyphClass: 2
Flags: W
LayerCount: 2
Back
Fore
SplineSet
1007.5 1574 m 128,-1,1
 1080 1546 1080 1546 1118.5 1494 c 128,-1,2
 1157 1442 1157 1442 1157 1372 c 0,3,4
 1157 1323 1157 1323 1129 1275.5 c 128,-1,5
 1101 1228 1101 1228 1050.5 1197.5 c 128,-1,6
 1000 1167 1000 1167 936 1167 c 0,7,8
 860 1167 860 1167 816 1203.5 c 128,-1,9
 772 1240 772 1240 772 1307 c 0,10,11
 772 1386 772 1386 820.5 1451 c 128,-1,12
 869 1516 869 1516 954 1548 c 1,13,14
 925 1561 925 1561 901 1561 c 0,15,16
 839 1561 839 1561 801 1528 c 0,17,18
 743 1479 743 1479 702 1325 c 2,19,-1
 629 1053 l 1,20,-1
 836 1053 l 1,21,-1
 823 1012 l 1,22,-1
 618 1012 l 1,23,-1
 252 -356 l 1,24,25
 49 -359 49 -359 -119 -385 c 1,26,-1
 257 1012 l 1,27,-1
 96 1012 l 1,28,-1
 109 1053 l 1,29,-1
 268 1053 l 1,30,31
 357 1387 357 1387 526 1511 c 0,32,33
 648 1602 648 1602 836 1602 c 0,34,0
 935 1602 935 1602 1007.5 1574 c 128,-1,1
EndSplineSet
Substitution2: "'smcp' Lowercase to Small Capitals lookup 24 subtable" f.smcp
Substitution2: "'aalt' Access All Alternates lookup 0 subtable" f.smcp
EndChar
StartChar: g
Encoding: 103 103 167
Width: 997
GlyphClass: 2
Flags: W
AnchorPoint: "Anchor-5" 0 0 basechar 0
AnchorPoint: "Anchor-4" 629 1053 basechar 0
AnchorPoint: "Anchor-3" 0 0 basechar 0
LayerCount: 2
Back
Fore
SplineSet
1157 1376.5 m 128,-1,1
 1198 1340 1198 1340 1198 1272 c 0,2,3
 1198 1219 1198 1219 1172.5 1169.5 c 128,-1,4
 1147 1120 1147 1120 1102.5 1089.5 c 128,-1,5
 1058 1059 1058 1059 1006 1059 c 0,6,7
 950 1059 950 1059 916.5 1092 c 128,-1,8
 883 1125 883 1125 883 1176 c 0,9,10
 883 1217 883 1217 908 1260.5 c 128,-1,11
 933 1304 933 1304 981 1343 c 1,12,13
 971 1348 971 1348 964 1348 c 0,14,15
 945 1348 945 1348 930 1331 c 0,16,17
 897 1301 897 1301 851.5 1229.5 c 128,-1,18
 806 1158 806 1158 773 1079 c 1,19,20
 877 1059 877 1059 936 1003.5 c 128,-1,21
 995 948 995 948 995 856 c 0,22,23
 995 762 995 762 934.5 673 c 128,-1,24
 874 584 874 584 762 522 c 128,-1,25
 650 460 650 460 503 447 c 1,26,27
 334 388 334 388 334 338 c 0,28,29
 334 322 334 322 351 311.5 c 128,-1,30
 368 301 368 301 406 287 c 2,31,-1
 592 217 l 2,32,33
 825 130 825 130 825 -23 c 0,34,35
 825 -145 825 -145 722.5 -226.5 c 128,-1,36
 620 -308 620 -308 472 -346.5 c 128,-1,37
 324 -385 324 -385 188 -385 c 0,38,39
 61 -385 61 -385 -30.5 -365 c 128,-1,40
 -122 -345 -122 -345 -170.5 -308.5 c 128,-1,41
 -219 -272 -219 -272 -219 -223 c 0,42,43
 -219 -172 -219 -172 -182.5 -140.5 c 128,-1,44
 -146 -109 -146 -109 -92 -92 c 128,-1,45
 -38 -75 -38 -75 54 -55 c 0,46,47
 176 -29 176 -29 226 -9 c 1,48,-1
 145 16 l 2,49,50
 88 35 88 35 51 71 c 128,-1,51
 14 107 14 107 14 158 c 0,52,53
 14 215 14 215 64.5 262.5 c 128,-1,54
 115 310 115 310 196.5 350 c 128,-1,55
 278 390 278 390 414 444 c 1,56,57
 261 446 261 446 168.5 505 c 128,-1,58
 76 564 76 564 76 680 c 0,59,60
 76 780 76 780 146 874.5 c 128,-1,61
 216 969 216 969 345 1029.5 c 128,-1,62
 474 1090 474 1090 643 1090 c 0,63,64
 686 1090 686 1090 734 1085 c 1,65,66
 782 1188 782 1188 825 1257 c 128,-1,67
 868 1326 868 1326 918 1366 c 0,68,69
 976 1413 976 1413 1047 1413 c 0,70,0
 1116 1413 1116 1413 1157 1376.5 c 128,-1,1
560 545.5 m 128,-1,72
 601 610 601 610 624.5 713 c 128,-1,73
 648 816 648 816 649 926 c 0,74,75
 649 991 649 991 638.5 1022 c 128,-1,76
 628 1053 628 1053 596 1053 c 0,77,78
 551 1053 551 1053 509.5 989 c 128,-1,79
 468 925 468 925 443 821 c 128,-1,80
 418 717 418 717 418 602 c 0,81,82
 418 533 418 533 429.5 507 c 128,-1,83
 441 481 441 481 469 481 c 0,84,71
 519 481 519 481 560 545.5 c 128,-1,72
171.5 -170 m 128,-1,86
 145 -241 145 -241 145 -291 c 0,87,88
 145 -323 145 -323 162 -336.5 c 128,-1,89
 179 -350 179 -350 213 -350 c 0,90,91
 285 -350 285 -350 362.5 -326.5 c 128,-1,92
 440 -303 440 -303 491.5 -260 c 128,-1,93
 543 -217 543 -217 543 -162 c 0,94,95
 543 -135 543 -135 527 -118.5 c 128,-1,96
 511 -102 511 -102 490 -94 c 128,-1,97
 469 -86 469 -86 424 -72 c 2,98,-1
 257 -19 l 1,99,85
 198 -99 198 -99 171.5 -170 c 128,-1,86
EndSplineSet
Substitution2: "'smcp' Lowercase to Small Capitals lookup 24 subtable" g.smcp
Substitution2: "'aalt' Access All Alternates lookup 0 subtable" g.smcp
EndChar
StartChar: h
Encoding: 104 104 173
Width: 1212
GlyphClass: 2
Flags: W
AnchorPoint: "Anchor-5" 0 0 basechar 0
AnchorPoint: "Anchor-4" 512 1544 basechar 0
AnchorPoint: "Anchor-3" 0 0 basechar 0
LayerCount: 2
Back
Fore
SplineSet
1128 332 m 1,0,-1
 1077 182 l 2,1,2
 1005 -29 1005 -29 784 -29 c 0,3,4
 673 -29 673 -29 621 23 c 128,-1,5
 569 75 569 75 569 166 c 0,6,7
 569 239 569 239 598 324 c 2,8,-1
 774 854 l 2,9,10
 792 906 792 906 792 934 c 0,11,12
 792 965 792 965 770 965 c 0,13,14
 725 965 725 965 655.5 859 c 128,-1,15
 586 753 586 753 511.5 579 c 128,-1,16
 437 405 437 405 374 209 c 1,17,-1
 317 14 l 1,18,-1
 315 6 l 1,19,-1
 315 8 l 1,20,-1
 313 0 l 1,21,-1
 -49 0 l 1,22,-1
 356 1366 l 2,23,24
 366 1403 366 1403 366 1423 c 0,25,26
 366 1464 366 1464 334 1482.5 c 128,-1,27
 302 1501 302 1501 227 1501 c 1,28,-1
 242 1544 l 1,29,30
 404 1545 404 1545 534.5 1566 c 128,-1,31
 665 1587 665 1587 791 1628 c 1,32,-1
 526 724 l 1,33,34
 593 869 593 869 657.5 949 c 128,-1,35
 722 1029 722 1029 789.5 1060.5 c 128,-1,36
 857 1092 857 1092 942 1092 c 0,37,38
 1143 1092 1143 1092 1143 922 c 0,39,40
 1143 863 1143 863 1116 782 c 2,41,-1
 913 174 l 2,42,43
 903 144 903 144 903 126 c 0,44,45
 903 88 903 88 938 88 c 0,46,47
 999 88 999 88 1047 217 c 2,48,-1
 1090 332 l 1,49,-1
 1128 332 l 1,0,-1
EndSplineSet
Substitution2: "'smcp' Lowercase to Small Capitals lookup 24 subtable" h.smcp
Substitution2: "'aalt' Access All Alternates lookup 0 subtable" h.smcp
EndChar
StartChar: i
Encoding: 105 105 176
Width: 688
GlyphClass: 2
Flags: W
AnchorPoint: "Anchor-5" 0 0 basechar 0
AnchorPoint: "Anchor-4" 451 1053 basechar 0
AnchorPoint: "Anchor-3" 397 0 basechar 0
LayerCount: 2
Back
Fore
SplineSet
414 1546.5 m 128,-1,1
 483 1602 483 1602 595 1602 c 0,2,3
 684 1602 684 1602 730.5 1566.5 c 128,-1,4
 777 1531 777 1531 777 1462 c 0,5,6
 777 1399 777 1399 744 1350.5 c 128,-1,7
 711 1302 711 1302 653.5 1275.5 c 128,-1,8
 596 1249 596 1249 525 1249 c 0,9,10
 437 1249 437 1249 391 1283.5 c 128,-1,11
 345 1318 345 1318 345 1384 c 0,12,0
 345 1491 345 1491 414 1546.5 c 128,-1,1
270 940 m 0,14,15
 270 975 270 975 241 975 c 0,16,17
 209 975 209 975 182 946 c 128,-1,18
 155 917 155 917 128 846 c 2,19,-1
 81 721 l 1,20,-1
 42 721 l 1,21,-1
 99 881 l 2,22,23
 176 1092 176 1092 405 1092 c 0,24,25
 515 1092 515 1092 566.5 1039 c 128,-1,26
 618 986 618 986 618 903 c 0,27,28
 618 854 618 854 601 805 c 2,29,-1
 388 174 l 2,30,31
 378 144 378 144 378 124 c 0,32,33
 378 88 378 88 413 88 c 0,34,35
 473 88 473 88 521 217 c 2,36,-1
 564 332 l 1,37,-1
 603 332 l 1,38,-1
 552 182 l 2,39,40
 480 -29 480 -29 259 -29 c 0,41,42
 155 -29 155 -29 98 20 c 128,-1,43
 41 69 41 69 41 165 c 0,44,45
 41 233 41 233 71 324 c 2,46,-1
 259 889 l 2,47,13
 270 918 270 918 270 940 c 0,14,15
EndSplineSet
Substitution2: "'smcp' Lowercase to Small Capitals lookup 24 subtable" i.smcp
Substitution2: "'locl' Localized Forms in Latin lookup 10 subtable" i.loclTRK
Substitution2: "'locl' Localized Forms in Latin lookup 8 subtable" i.loclTRK
Substitution2: "'locl' Localized Forms in Latin lookup 6 subtable" i.loclTRK
Substitution2: "'locl' Localized Forms in Latin lookup 3 subtable" i.loclTRK
Substitution2: "'locl' Localized Forms in Latin lookup 2 subtable" i.loclTRK
AlternateSubs2: "'aalt' Access All Alternates lookup 1 subtable" i.loclTRK i.smcp
EndChar
StartChar: j
Encoding: 106 106 188
Width: 651
GlyphClass: 2
Flags: W
AnchorPoint: "Anchor-5" 0 0 basechar 0
AnchorPoint: "Anchor-4" 504 1053 basechar 0
AnchorPoint: "Anchor-3" 0 0 basechar 0
LayerCount: 2
Back
Fore
SplineSet
406.5 1546.5 m 128,-1,1
 475 1602 475 1602 588 1602 c 0,2,3
 677 1602 677 1602 723.5 1566.5 c 128,-1,4
 770 1531 770 1531 770 1462 c 0,5,6
 770 1399 770 1399 736.5 1350.5 c 128,-1,7
 703 1302 703 1302 645.5 1275.5 c 128,-1,8
 588 1249 588 1249 518 1249 c 0,9,10
 429 1249 429 1249 383.5 1283.5 c 128,-1,11
 338 1318 338 1318 338 1384 c 0,12,0
 338 1491 338 1491 406.5 1546.5 c 128,-1,1
-111 -296 m 128,-1,14
 -65 -247 -65 -247 -33 -133 c 2,15,-1
 254 889 l 2,16,17
 263 924 263 924 263 942 c 0,18,19
 263 975 263 975 233 975 c 0,20,21
 172 975 172 975 123 846 c 2,22,-1
 76 721 l 1,23,-1
 37 721 l 1,24,-1
 94 881 l 2,25,26
 135 991 135 991 218.5 1041.5 c 128,-1,27
 302 1092 302 1092 403 1092 c 0,28,29
 511 1092 511 1092 558 1041.5 c 128,-1,30
 605 991 605 991 605 909 c 0,31,32
 605 862 605 862 590 805 c 2,33,-1
 434 236 l 2,34,35
 396 96 396 96 360.5 7 c 128,-1,36
 325 -82 325 -82 284 -141.5 c 128,-1,37
 243 -201 243 -201 186 -248 c 0,38,39
 21 -385 21 -385 -219 -385 c 0,40,41
 -479 -385 -479 -385 -479 -238 c 0,42,43
 -479 -191 -479 -191 -455 -153 c 128,-1,44
 -431 -115 -431 -115 -389.5 -93.5 c 128,-1,45
 -348 -72 -348 -72 -299 -72 c 0,46,47
 -253 -72 -253 -72 -217.5 -91.5 c 128,-1,48
 -182 -111 -182 -111 -162.5 -142.5 c 128,-1,49
 -143 -174 -143 -174 -143 -209 c 0,50,51
 -143 -249 -143 -249 -167 -289 c 128,-1,52
 -191 -329 -191 -329 -236 -354 c 1,53,13
 -157 -345 -157 -345 -111 -296 c 128,-1,14
EndSplineSet
Substitution2: "'smcp' Lowercase to Small Capitals lookup 24 subtable" j.smcp
Substitution2: "'aalt' Access All Alternates lookup 0 subtable" j.smcp
EndChar
StartChar: k
Encoding: 107 107 191
Width: 1182
GlyphClass: 2
Flags: W
AnchorPoint: "Anchor-5" 444 0 basechar 0
AnchorPoint: "Anchor-4" 604 1544 basechar 0
AnchorPoint: "Anchor-3" 0 0 basechar 0
LayerCount: 2
Back
Fore
SplineSet
845 931.5 m 128,-1,1
 897 992 897 992 975 1026 c 1,2,3
 968 1038 968 1038 953 1045.5 c 128,-1,4
 938 1053 938 1053 924 1053 c 0,5,6
 870 1053 870 1053 829 1020 c 0,7,8
 803 998 803 998 785 960 c 128,-1,9
 767 922 767 922 745 858 c 0,10,11
 720 786 720 786 698 739.5 c 128,-1,12
 676 693 676 693 638 653.5 c 128,-1,13
 600 614 600 614 542 598 c 1,14,15
 917 596 917 596 917 366 c 0,16,17
 917 328 917 328 909 293 c 2,18,-1
 885 174 l 2,19,20
 879 145 879 145 879 127 c 0,21,22
 879 88 879 88 909 88 c 0,23,24
 970 88 970 88 1018 217 c 2,25,-1
 1061 332 l 1,26,-1
 1100 332 l 1,27,-1
 1049 182 l 1,28,29
 970 -29 970 -29 721 -29 c 0,30,31
 523 -29 523 -29 523 152 c 0,32,33
 523 191 523 191 532 236 c 2,34,-1
 567 381 l 2,35,36
 582 432 582 432 582 468 c 0,37,38
 582 513 582 513 558 539 c 128,-1,39
 534 565 534 565 482 577 c 1,40,-1
 313 0 l 1,41,-1
 -49 0 l 1,42,-1
 356 1366 l 2,43,44
 366 1403 366 1403 366 1423 c 0,45,46
 366 1464 366 1464 334 1482.5 c 128,-1,47
 302 1501 302 1501 227 1501 c 1,48,-1
 242 1544 l 1,49,50
 404 1545 404 1545 534.5 1566 c 128,-1,51
 665 1587 665 1587 791 1628 c 1,52,-1
 494 616 l 1,53,54
 558 631 558 631 598 669 c 128,-1,55
 638 707 638 707 660 752.5 c 128,-1,56
 682 798 682 798 707 871 c 0,57,58
 732 941 732 941 750 979.5 c 128,-1,59
 768 1018 768 1018 799 1044 c 0,60,61
 828 1068 828 1068 863.5 1080 c 128,-1,62
 899 1092 899 1092 930 1092 c 0,63,64
 1006 1092 1006 1092 1059 1060.5 c 128,-1,65
 1112 1029 1112 1029 1138.5 975.5 c 128,-1,66
 1165 922 1165 922 1165 858 c 0,67,68
 1165 793 1165 793 1137.5 746.5 c 128,-1,69
 1110 700 1110 700 1063 675.5 c 128,-1,70
 1016 651 1016 651 958 651 c 0,71,72
 881 651 881 651 837 691.5 c 128,-1,73
 793 732 793 732 793 793 c 0,74,0
 793 871 793 871 845 931.5 c 128,-1,1
EndSplineSet
Substitution2: "'smcp' Lowercase to Small Capitals lookup 24 subtable" k.smcp
Substitution2: "'aalt' Access All Alternates lookup 0 subtable" k.smcp
EndChar
StartChar: l
Encoding: 108 108 194
Width: 647
GlyphClass: 2
Flags: W
AnchorPoint: "Anchor-5" 223 0 basechar 0
AnchorPoint: "Anchor-4" 537 1544 basechar 0
AnchorPoint: "Anchor-3" 0 0 basechar 0
LayerCount: 2
Back
Fore
SplineSet
340 136 m 0,1,2
 340 111 340 111 351.5 99.5 c 128,-1,3
 363 88 363 88 379 88 c 0,4,5
 399 88 399 88 426.5 113.5 c 128,-1,6
 454 139 454 139 483 217 c 2,7,-1
 526 332 l 1,8,-1
 565 332 l 1,9,-1
 514 182 l 2,10,11
 473 63 473 63 393 17 c 128,-1,12
 313 -29 313 -29 223 -29 c 0,13,14
 121 -29 121 -29 64 24 c 128,-1,15
 7 77 7 77 7 179 c 0,16,17
 7 242 7 242 31 324 c 2,18,-1
 344 1366 l 2,19,20
 354 1403 354 1403 354 1423 c 0,21,22
 354 1464 354 1464 322 1482.5 c 128,-1,23
 290 1501 290 1501 215 1501 c 1,24,-1
 229 1544 l 1,25,26
 392 1545 392 1545 522 1566 c 128,-1,27
 652 1587 652 1587 778 1628 c 1,28,-1
 346 174 l 2,29,0
 340 152 340 152 340 136 c 0,1,2
EndSplineSet
Substitution2: "'smcp' Lowercase to Small Capitals lookup 24 subtable" l.smcp
Substitution2: "'aalt' Access All Alternates lookup 0 subtable" l.smcp
EndChar
StartChar: m
Encoding: 109 109 200
Width: 1817
GlyphClass: 2
Flags: W
LayerCount: 2
Back
Fore
SplineSet
1731 332 m 1,0,-1
 1679 182 l 2,1,2
 1607 -29 1607 -29 1386 -29 c 0,3,4
 1249 -29 1249 -29 1196 57 c 0,5,6
 1169 103 1169 103 1169 165 c 0,7,8
 1169 234 1169 234 1200 324 c 2,9,-1
 1376 854 l 2,10,11
 1391 898 1391 898 1391 920 c 0,12,13
 1391 944 1391 944 1374 944 c 0,14,15
 1335 944 1335 944 1279.5 882.5 c 128,-1,16
 1224 821 1224 821 1154 674.5 c 128,-1,17
 1084 528 1084 528 1010 290 c 1,18,-1
 926 0 l 1,19,-1
 561 0 l 1,20,-1
 807 854 l 2,21,22
 823 909 823 909 823 924 c 0,23,24
 823 944 823 944 803 944 c 0,25,26
 730 944 730 944 639.5 779 c 128,-1,27
 549 614 549 614 451 317 c 1,28,-1
 369 0 l 1,29,-1
 6 0 l 1,30,-1
 256 889 l 2,31,32
 265 922 265 922 265 940 c 0,33,34
 265 975 265 975 233 975 c 0,35,36
 174 975 174 975 125 846 c 2,37,-1
 78 721 l 1,38,-1
 39 721 l 1,39,-1
 96 881 l 2,40,41
 136 990 136 990 213.5 1041 c 128,-1,42
 291 1092 291 1092 391 1092 c 0,43,44
 497 1092 497 1092 544 1040.5 c 128,-1,45
 591 989 591 989 591 905 c 0,46,47
 591 859 591 859 578 805 c 2,48,-1
 555 715 l 1,49,50
 613 849 613 849 677.5 932 c 128,-1,51
 742 1015 742 1015 819.5 1053.5 c 128,-1,52
 897 1092 897 1092 995 1092 c 0,53,54
 1175 1092 1175 1092 1175 929 c 0,55,56
 1175 866 1175 866 1151 782 c 2,57,-1
 1140 745 l 1,58,59
 1202 878 1202 878 1269 954.5 c 128,-1,60
 1336 1031 1336 1031 1407 1061.5 c 128,-1,61
 1478 1092 1478 1092 1563 1092 c 0,62,63
 1747 1092 1747 1092 1747 931 c 0,64,65
 1747 867 1747 867 1718 782 c 2,66,-1
 1516 174 l 2,67,68
 1506 144 1506 144 1506 125 c 0,69,70
 1506 88 1506 88 1540 88 c 0,71,72
 1601 88 1601 88 1649 217 c 2,73,-1
 1692 332 l 1,74,-1
 1731 332 l 1,0,-1
EndSplineSet
Substitution2: "'smcp' Lowercase to Small Capitals lookup 24 subtable" m.smcp
Substitution2: "'aalt' Access All Alternates lookup 0 subtable" m.smcp
EndChar
StartChar: n
Encoding: 110 110 201
Width: 1268
GlyphClass: 2
Flags: W
AnchorPoint: "Anchor-5" 469 0 basechar 0
AnchorPoint: "Anchor-4" 725 1053 basechar 0
AnchorPoint: "Anchor-3" 0 0 basechar 0
LayerCount: 2
Back
Fore
SplineSet
1184 332 m 1,0,-1
 1133 182 l 2,1,2
 1059 -29 1059 -29 840 -29 c 0,3,4
 708 -29 708 -29 655 45 c 0,5,6
 621 91 621 91 621 160 c 0,7,8
 621 225 621 225 653 324 c 2,9,-1
 829 854 l 2,10,11
 847 906 847 906 847 934 c 0,12,13
 847 965 847 965 825 965 c 0,14,15
 772 965 772 965 687.5 821.5 c 128,-1,16
 603 678 603 678 516.5 454.5 c 128,-1,17
 430 231 430 231 371 6 c 2,18,-1
 372 10 l 1,19,-1
 369 0 l 1,20,-1
 6 0 l 1,21,-1
 256 889 l 2,22,23
 268 934 268 934 268 948 c 0,24,25
 268 975 268 975 238 975 c 0,26,27
 206 975 206 975 179 946 c 128,-1,28
 152 917 152 917 125 846 c 2,29,-1
 78 721 l 1,30,-1
 39 721 l 1,31,-1
 96 881 l 2,32,33
 134 989 134 989 203 1040.5 c 128,-1,34
 272 1092 272 1092 377 1092 c 0,35,36
 492 1092 492 1092 542.5 1038 c 128,-1,37
 593 984 593 984 593 899 c 0,38,39
 593 855 593 855 580 805 c 2,40,-1
 524 592 l 1,41,42
 604 792 604 792 677.5 900.5 c 128,-1,43
 751 1009 751 1009 826 1050.5 c 128,-1,44
 901 1092 901 1092 997 1092 c 0,45,46
 1198 1092 1198 1092 1198 922 c 0,47,48
 1198 863 1198 863 1171 782 c 2,49,-1
 969 174 l 2,50,51
 959 144 959 144 959 125 c 0,52,53
 959 88 959 88 993 88 c 0,54,55
 1054 88 1054 88 1102 217 c 2,56,-1
 1145 332 l 1,57,-1
 1184 332 l 1,0,-1
EndSplineSet
Substitution2: "'smcp' Lowercase to Small Capitals lookup 24 subtable" n.smcp
Substitution2: "'aalt' Access All Alternates lookup 0 subtable" n.smcp
EndChar
StartChar: o
Encoding: 111 111 208
Width: 1141
GlyphClass: 2
Flags: W
AnchorPoint: "Anchor-5" 369 0 basechar 0
AnchorPoint: "Anchor-4" 725 1053 basechar 0
AnchorPoint: "Anchor-3" 0 0 basechar 0
LayerCount: 2
Back
Fore
SplineSet
92 672 m 128,-1,1
 172 851 172 851 333 971.5 c 128,-1,2
 494 1092 494 1092 725 1092 c 0,3,4
 903 1092 903 1092 996.5 1002 c 128,-1,5
 1090 912 1090 912 1090 743 c 0,6,7
 1090 570 1090 570 1010 391 c 128,-1,8
 930 212 930 212 768.5 91.5 c 128,-1,9
 607 -29 607 -29 377 -29 c 0,10,11
 199 -29 199 -29 105.5 61 c 128,-1,12
 12 151 12 151 12 319 c 0,13,0
 12 493 12 493 92 672 c 128,-1,1
569.5 897 m 128,-1,15
 482 743 482 743 417 525 c 128,-1,16
 352 307 352 307 352 127 c 0,17,18
 352 64 352 64 361.5 38 c 128,-1,19
 371 12 371 12 391 12 c 0,20,21
 446 12 446 12 533 160 c 128,-1,22
 620 308 620 308 685 523.5 c 128,-1,23
 750 739 750 739 750 932 c 0,24,25
 750 1003 750 1003 740.5 1027 c 128,-1,26
 731 1051 731 1051 715 1051 c 0,27,14
 657 1051 657 1051 569.5 897 c 128,-1,15
EndSplineSet
Substitution2: "Single Substitution lookup 29 subtable" ordmasculine
Substitution2: "'smcp' Lowercase to Small Capitals lookup 24 subtable" o.smcp
AlternateSubs2: "'aalt' Access All Alternates lookup 1 subtable" ordmasculine o.smcp
EndChar
StartChar: p
Encoding: 112 112 219
Width: 1239
GlyphClass: 2
Flags: W
LayerCount: 2
Back
Fore
SplineSet
1118 1006 m 128,-1,1
 1188 920 1188 920 1188 758 c 0,2,3
 1188 589 1188 589 1112 404.5 c 128,-1,4
 1036 220 1036 220 894.5 95.5 c 128,-1,5
 753 -29 753 -29 567 -29 c 0,6,7
 453 -29 453 -29 372 13 c 1,8,-1
 330 -137 l 2,9,10
 314 -196 314 -196 314 -227 c 0,11,12
 314 -285 314 -285 354 -305.5 c 128,-1,13
 394 -326 394 -326 483 -328 c 1,14,-1
 471 -371 l 1,15,-1
 402 -369 l 2,16,17
 225 -362 225 -362 115 -362 c 0,18,19
 9 -362 9 -362 -159 -369 c 0,20,21
 -203 -371 -203 -371 -215 -371 c 1,22,-1
 -203 -328 l 1,23,24
 -153 -328 -153 -328 -123 -316.5 c 128,-1,25
 -93 -305 -93 -305 -75 -278 c 128,-1,26
 -57 -251 -57 -251 -43 -201 c 2,27,-1
 322 1116 l 1,28,29
 268 990 268 990 197.5 889.5 c 128,-1,30
 127 789 127 789 29 682 c 1,31,-1
 6 709 l 1,32,33
 94 808 94 808 151 883 c 128,-1,34
 208 958 208 958 266.5 1067.5 c 128,-1,35
 325 1177 325 1177 383 1335 c 1,36,37
 584 1353 584 1353 766 1413 c 1,38,-1
 610 859 l 1,39,40
 672 979 672 979 744.5 1035.5 c 128,-1,41
 817 1092 817 1092 907 1092 c 0,42,0
 1048 1092 1048 1092 1118 1006 c 128,-1,1
610 154.5 m 128,-1,44
 697 270 697 270 752 446 c 128,-1,45
 807 622 807 622 807 788 c 0,46,47
 807 858 807 858 801 894 c 128,-1,48
 795 930 795 930 784.5 942 c 128,-1,49
 774 954 774 954 758 954 c 0,50,51
 713 954 713 954 662 884.5 c 128,-1,52
 611 815 611 815 565 699 c 1,53,-1
 382 47 l 1,54,55
 408 39 408 39 434 39 c 0,56,43
 523 39 523 39 610 154.5 c 128,-1,44
EndSplineSet
Substitution2: "'smcp' Lowercase to Small Capitals lookup 24 subtable" p.smcp
Substitution2: "'aalt' Access All Alternates lookup 0 subtable" p.smcp
EndChar
StartChar: q
Encoding: 113 113 221
Width: 1190
GlyphClass: 2
Flags: W
LayerCount: 2
Back
Fore
SplineSet
845 -235 m 0,1,2
 845 -280 845 -280 877 -301.5 c 128,-1,3
 909 -323 909 -323 979 -328 c 1,4,-1
 967 -371 l 1,5,6
 954 -371 954 -371 904 -369 c 0,7,8
 729 -362 729 -362 621 -362 c 0,9,10
 509 -362 509 -362 332 -369 c 0,11,12
 282 -371 282 -371 270 -371 c 1,13,-1
 283 -328 l 1,14,15
 349 -326 349 -326 390 -308.5 c 128,-1,16
 431 -291 431 -291 454.5 -258.5 c 128,-1,17
 478 -226 478 -226 492 -174 c 2,18,-1
 617 287 l 1,19,20
 545 121 545 121 466.5 46 c 128,-1,21
 388 -29 388 -29 285 -29 c 0,22,23
 144 -29 144 -29 74 57 c 128,-1,24
 4 143 4 143 4 305 c 0,25,26
 4 469 4 469 93 654.5 c 128,-1,27
 182 840 182 840 334.5 966 c 128,-1,28
 487 1092 487 1092 666 1092 c 0,29,30
 717 1092 717 1092 762.5 1077.5 c 128,-1,31
 808 1063 808 1063 837 1041 c 1,32,33
 868 1033 868 1033 909 1033 c 0,34,35
 1017 1033 1017 1033 1171 1092 c 1,36,-1
 1202 1077 l 1,37,38
 1176 1023 1176 1023 1157 956 c 2,39,-1
 854 -176 l 2,40,0
 845 -211 845 -211 845 -235 c 0,1,2
525.5 189.5 m 128,-1,42
 574 250 574 250 618.5 352.5 c 128,-1,43
 663 455 663 455 692 575 c 1,44,-1
 683 529 l 1,45,-1
 815 1014 l 1,46,47
 787 1024 787 1024 758 1024 c 0,48,49
 671 1024 671 1024 584 889 c 128,-1,50
 497 754 497 754 441 563 c 128,-1,51
 385 372 385 372 385 225 c 0,52,53
 385 169 385 169 396.5 149 c 128,-1,54
 408 129 408 129 434 129 c 0,55,41
 477 129 477 129 525.5 189.5 c 128,-1,42
EndSplineSet
Substitution2: "'smcp' Lowercase to Small Capitals lookup 24 subtable" q.smcp
Substitution2: "'aalt' Access All Alternates lookup 0 subtable" q.smcp
EndChar
StartChar: r
Encoding: 114 114 222
Width: 1022
GlyphClass: 2
Flags: W
AnchorPoint: "Anchor-5" 176 0 basechar 0
AnchorPoint: "Anchor-4" 621 1053 basechar 0
AnchorPoint: "Anchor-3" 0 0 basechar 0
LayerCount: 2
Back
Fore
SplineSet
989.5 1066 m 128,-1,1
 1034 1040 1034 1040 1057.5 994.5 c 128,-1,2
 1081 949 1081 949 1081 893 c 0,3,4
 1081 825 1081 825 1051 766 c 128,-1,5
 1021 707 1021 707 968.5 672 c 128,-1,6
 916 637 916 637 850 637 c 0,7,8
 775 637 775 637 735.5 676 c 128,-1,9
 696 715 696 715 696 791 c 0,10,11
 696 850 696 850 726.5 904 c 128,-1,12
 757 958 757 958 808.5 995.5 c 128,-1,13
 860 1033 860 1033 920 1044 c 1,14,15
 899 1051 899 1051 891 1051 c 0,16,17
 826 1051 826 1051 773 1024.5 c 128,-1,18
 720 998 720 998 655.5 893.5 c 128,-1,19
 591 789 591 789 520 575 c 1,20,-1
 369 0 l 1,21,-1
 6 0 l 1,22,-1
 256 889 l 2,23,24
 265 922 265 922 265 942 c 0,25,26
 265 975 265 975 238 975 c 0,27,28
 206 975 206 975 179 946 c 128,-1,29
 152 917 152 917 125 846 c 2,30,-1
 78 721 l 1,31,-1
 39 721 l 1,32,-1
 96 881 l 2,33,34
 173 1092 173 1092 401 1092 c 0,35,36
 502 1092 502 1092 546.5 1037.5 c 128,-1,37
 591 983 591 983 591 897 c 0,38,39
 591 885 591 885 589 859 c 1,40,41
 629 947 629 947 672.5 997.5 c 128,-1,42
 716 1048 716 1048 766.5 1070 c 128,-1,43
 817 1092 817 1092 883 1092 c 0,44,0
 945 1092 945 1092 989.5 1066 c 128,-1,1
EndSplineSet
Substitution2: "'smcp' Lowercase to Small Capitals lookup 24 subtable" r.smcp
Substitution2: "'aalt' Access All Alternates lookup 0 subtable" r.smcp
EndChar
StartChar: s
Encoding: 115 115 226
Width: 913
GlyphClass: 2
Flags: W
AnchorPoint: "Anchor-5" 293 0 basechar 0
AnchorPoint: "Anchor-4" 594 1053 basechar 0
AnchorPoint: "Anchor-3" 0 0 basechar 0
LayerCount: 2
Back
Fore
SplineSet
244 14 m 0,1,2
 308 14 308 14 349.5 56.5 c 128,-1,3
 391 99 391 99 391 170 c 0,4,5
 391 234 391 234 360.5 307.5 c 128,-1,6
 330 381 330 381 272 475 c 2,7,-1
 260 494 l 2,8,9
 221 559 221 559 199.5 599 c 128,-1,10
 178 639 178 639 164 685.5 c 128,-1,11
 150 732 150 732 150 782 c 0,12,13
 150 871 150 871 195.5 941 c 128,-1,14
 241 1011 241 1011 332.5 1051.5 c 128,-1,15
 424 1092 424 1092 557 1092 c 0,16,17
 708 1092 708 1092 808.5 1038 c 128,-1,18
 909 984 909 984 909 856 c 0,19,20
 909 812 909 812 892 770 c 128,-1,21
 875 728 875 728 842.5 701 c 128,-1,22
 810 674 810 674 764 674 c 0,23,24
 703 674 703 674 668 721.5 c 128,-1,25
 633 769 633 769 633 846 c 0,26,27
 633 906 633 906 653 958.5 c 128,-1,28
 673 1011 673 1011 698 1038 c 1,29,30
 680 1047 680 1047 647 1047 c 0,31,32
 575 1047 575 1047 538.5 1005 c 128,-1,33
 502 963 502 963 502 883 c 0,34,35
 502 832 502 832 524.5 783 c 128,-1,36
 547 734 547 734 594 656 c 2,37,-1
 623 608 l 2,38,39
 691 492 691 492 718 420 c 128,-1,40
 745 348 745 348 745 279 c 0,41,42
 745 193 745 193 698 123 c 128,-1,43
 651 53 651 53 558.5 12 c 128,-1,44
 466 -29 466 -29 336 -29 c 0,45,46
 171 -29 171 -29 64 32 c 128,-1,47
 -43 93 -43 93 -43 233 c 0,48,49
 -43 311 -43 311 -5 363.5 c 128,-1,50
 33 416 33 416 96 416 c 0,51,52
 156 416 156 416 192.5 366.5 c 128,-1,53
 229 317 229 317 229 236 c 0,54,55
 229 196 229 196 219.5 157.5 c 128,-1,56
 210 119 210 119 196.5 85.5 c 128,-1,57
 183 52 183 52 172 29 c 1,58,0
 203 14 203 14 244 14 c 0,1,2
EndSplineSet
Substitution2: "'smcp' Lowercase to Small Capitals lookup 24 subtable" s.smcp
Substitution2: "'aalt' Access All Alternates lookup 0 subtable" s.smcp
EndChar
StartChar: t
Encoding: 116 116 233
Width: 748
GlyphClass: 2
Flags: W
AnchorPoint: "Anchor-5" 240 0 basechar 0
AnchorPoint: "Anchor-4" 461 1053 basechar 0
AnchorPoint: "Anchor-3" 0 0 basechar 0
LayerCount: 2
Back
Fore
SplineSet
388 135 m 0,1,2
 388 88 388 88 431 88 c 0,3,4
 471 88 471 88 512.5 132.5 c 128,-1,5
 554 177 554 177 579 244 c 2,6,-1
 611 332 l 1,7,-1
 650 332 l 1,8,-1
 611 219 l 2,9,10
 571 101 571 101 487 36 c 128,-1,11
 403 -29 403 -29 286 -29 c 0,12,13
 172 -29 172 -29 115.5 31 c 128,-1,14
 59 91 59 91 59 193 c 0,15,16
 59 253 59 253 79 324 c 2,17,-1
 277 1012 l 1,18,-1
 89 1012 l 1,19,-1
 99 1053 l 1,20,-1
 289 1053 l 1,21,-1
 378 1364 l 1,22,23
 596 1367 596 1367 751 1393 c 1,24,-1
 651 1053 l 1,25,-1
 855 1053 l 1,26,-1
 849 1012 l 1,27,-1
 639 1012 l 1,28,-1
 394 174 l 2,29,0
 388 152 388 152 388 135 c 0,1,2
EndSplineSet
Substitution2: "'smcp' Lowercase to Small Capitals lookup 24 subtable" t.smcp
Substitution2: "'aalt' Access All Alternates lookup 0 subtable" t.smcp
EndChar
StartChar: u
Encoding: 117 117 238
Width: 1264
GlyphClass: 2
Flags: W
AnchorPoint: "Anchor-5" 561 0 basechar 0
AnchorPoint: "Anchor-4" 711 1053 basechar 0
AnchorPoint: "Anchor-3" 967 0 basechar 0
LayerCount: 2
Back
Fore
SplineSet
1187 342 m 1,0,-1
 1129 182 l 2,1,2
 1090 73 1090 73 1013 22 c 128,-1,3
 936 -29 936 -29 837 -29 c 0,4,5
 701 -29 701 -29 654 51 c 0,6,7
 630 92 630 92 630 150 c 0,8,9
 630 199 630 199 646 258 c 2,10,-1
 692 434 l 1,11,12
 614 247 614 247 541.5 146.5 c 128,-1,13
 469 46 469 46 395 8.5 c 128,-1,14
 321 -29 321 -29 224 -29 c 0,15,16
 131 -29 131 -29 81.5 14.5 c 128,-1,17
 32 58 32 58 32 142 c 0,18,19
 32 200 32 200 58 281 c 2,20,-1
 257 889 l 2,21,22
 267 919 267 919 267 938 c 0,23,24
 267 975 267 975 232 975 c 0,25,26
 172 975 172 975 124 846 c 2,27,-1
 81 731 l 1,28,-1
 42 731 l 1,29,-1
 93 881 l 2,30,31
 167 1092 167 1092 386 1092 c 0,32,33
 489 1092 489 1092 545.5 1043.5 c 128,-1,34
 602 995 602 995 602 899 c 0,35,36
 602 828 602 828 572 739 c 2,37,-1
 396 209 l 2,38,39
 379 155 379 155 379 129 c 0,40,41
 379 98 379 98 400 98 c 0,42,43
 450 98 450 98 527 222.5 c 128,-1,44
 604 347 604 347 686 546.5 c 128,-1,45
 768 746 768 746 830 959 c 1,46,-1
 857 1063 l 1,47,48
 1083 1066 1083 1066 1228 1092 c 1,49,-1
 970 174 l 2,50,51
 957 132 957 132 957 115 c 0,52,53
 957 88 957 88 988 88 c 0,54,55
 1020 88 1020 88 1047 117 c 128,-1,56
 1074 146 1074 146 1101 217 c 2,57,-1
 1148 342 l 1,58,-1
 1187 342 l 1,0,-1
EndSplineSet
Substitution2: "'smcp' Lowercase to Small Capitals lookup 24 subtable" u.smcp
Substitution2: "'aalt' Access All Alternates lookup 0 subtable" u.smcp
EndChar
StartChar: v
Encoding: 118 118 249
Width: 1063
GlyphClass: 2
Flags: W
LayerCount: 2
Back
Fore
SplineSet
777 738 m 128,-1,1
 712 822 712 822 712 924 c 0,2,3
 712 1002 712 1002 753.5 1047 c 128,-1,4
 795 1092 795 1092 871 1092 c 0,5,6
 1027 1092 1027 1092 1027 891 c 0,7,8
 1027 686 1027 686 951.5 472.5 c 128,-1,9
 876 259 876 259 722.5 115 c 128,-1,10
 569 -29 569 -29 349 -29 c 0,11,12
 174 -29 174 -29 99 43.5 c 128,-1,13
 24 116 24 116 24 225 c 0,14,15
 24 410 24 410 181 600.5 c 128,-1,16
 338 791 338 791 622 1004 c 1,17,18
 579 1002 579 1002 543.5 986.5 c 128,-1,19
 508 971 508 971 482.5 949.5 c 128,-1,20
 457 928 457 928 423 894 c 0,21,22
 383 853 383 853 354.5 833 c 128,-1,23
 326 813 326 813 290 813 c 0,24,25
 267 813 267 813 231 829 c 0,26,27
 201 844 201 844 181 844 c 0,28,29
 156 844 156 844 141.5 826 c 128,-1,30
 127 808 127 808 114 766 c 2,31,-1
 99 723 l 1,32,-1
 60 723 l 1,33,-1
 105 872 l 2,34,35
 168 1094 168 1094 298 1094 c 0,36,37
 321 1094 321 1094 339.5 1088 c 128,-1,38
 358 1082 358 1082 386 1069 c 0,39,40
 420 1052 420 1052 450 1043 c 128,-1,41
 480 1034 480 1034 523 1034 c 0,42,43
 595 1034 595 1034 656 1065 c 1,44,-1
 677 1104 l 1,45,-1
 720 1083 l 1,46,47
 632 941 632 941 562 777.5 c 128,-1,48
 492 614 492 614 452.5 466 c 128,-1,49
 413 318 413 318 413 219 c 0,50,51
 413 147 413 147 434 113.5 c 128,-1,52
 455 80 455 80 507 80 c 0,53,54
 609 80 609 80 696.5 153.5 c 128,-1,55
 784 227 784 227 848 347 c 128,-1,56
 912 467 912 467 947 606 c 1,57,0
 842 654 842 654 777 738 c 128,-1,1
EndSplineSet
Substitution2: "'smcp' Lowercase to Small Capitals lookup 24 subtable" v.smcp
Substitution2: "'aalt' Access All Alternates lookup 0 subtable" v.smcp
EndChar
StartChar: w
Encoding: 119 119 250
Width: 1384
GlyphClass: 2
Flags: W
AnchorPoint: "Anchor-5" 0 0 basechar 0
AnchorPoint: "Anchor-4" 797 1053 basechar 0
AnchorPoint: "Anchor-3" 0 0 basechar 0
LayerCount: 2
Back
Fore
SplineSet
1209 1019.5 m 128,-1,1
 1258 947 1258 947 1277 848.5 c 128,-1,2
 1296 750 1296 750 1296 659 c 0,3,4
 1296 485 1296 485 1241.5 327 c 128,-1,5
 1187 169 1187 169 1082.5 70 c 128,-1,6
 978 -29 978 -29 836 -29 c 0,7,8
 760 -29 760 -29 696.5 -4 c 128,-1,9
 633 21 633 21 594 76 c 1,10,11
 471 -29 471 -29 279 -29 c 0,12,13
 188 -29 188 -29 122.5 5 c 128,-1,14
 57 39 57 39 23.5 98.5 c 128,-1,15
 -10 158 -10 158 -10 233 c 0,16,17
 -10 343 -10 343 63.5 447.5 c 128,-1,18
 137 552 137 552 257.5 653.5 c 128,-1,19
 378 755 378 755 615 933 c 0,20,21
 745 1030 745 1030 710 1004 c 1,22,23
 658 1003 658 1003 615.5 986.5 c 128,-1,24
 573 970 573 970 541.5 948 c 128,-1,25
 510 926 510 926 468 891 c 0,26,27
 419 850 419 850 388.5 831.5 c 128,-1,28
 358 813 358 813 322 813 c 0,29,30
 295 813 295 813 257 830 c 0,31,32
 227 844 227 844 209 844 c 0,33,34
 184 844 184 844 170 826.5 c 128,-1,35
 156 809 156 809 141 766 c 2,36,-1
 127 723 l 1,37,-1
 88 723 l 1,38,-1
 133 872 l 2,39,40
 168 991 168 991 218 1036 c 128,-1,41
 268 1081 268 1081 330 1081 c 0,42,43
 365 1081 365 1081 426 1062 c 0,44,45
 468 1049 468 1049 505 1041.5 c 128,-1,46
 542 1034 542 1034 594 1034 c 0,47,48
 676 1034 676 1034 745 1065 c 1,49,-1
 766 1104 l 1,50,-1
 809 1083 l 1,51,52
 684 939 684 939 586.5 777.5 c 128,-1,53
 489 616 489 616 434 467 c 128,-1,54
 379 318 379 318 379 209 c 0,55,56
 379 145 379 145 400.5 112.5 c 128,-1,57
 422 80 422 80 475 80 c 0,58,59
 526 80 526 80 575 107 c 1,60,61
 545 167 545 167 545 252 c 0,62,63
 545 374 545 374 602 486 c 128,-1,64
 659 598 659 598 741 666.5 c 128,-1,65
 823 735 823 735 893 735 c 0,66,67
 977 735 977 735 977 606 c 0,68,69
 977 390 977 390 838 216 c 1,70,71
 889 141 889 141 989 141 c 0,72,73
 1071 141 1071 141 1129 208 c 128,-1,74
 1187 275 1187 275 1218 385.5 c 128,-1,75
 1249 496 1249 496 1253 627 c 1,76,77
 1160 670 1160 670 1094.5 711 c 128,-1,78
 1029 752 1029 752 982.5 813.5 c 128,-1,79
 936 875 936 875 936 958 c 0,80,81
 936 990 936 990 951 1020.5 c 128,-1,82
 966 1051 966 1051 997.5 1071.5 c 128,-1,83
 1029 1092 1029 1092 1077 1092 c 0,84,0
 1160 1092 1160 1092 1209 1019.5 c 128,-1,1
850 643 m 128,-1,86
 827 596 827 596 813 521 c 128,-1,87
 799 446 799 446 799 365 c 0,88,89
 799 301 799 301 818 254 c 1,90,91
 871 331 871 331 900.5 419.5 c 128,-1,92
 930 508 930 508 930 594 c 0,93,94
 930 690 930 690 897 690 c 0,95,85
 873 690 873 690 850 643 c 128,-1,86
EndSplineSet
Substitution2: "'smcp' Lowercase to Small Capitals lookup 24 subtable" w.smcp
Substitution2: "'aalt' Access All Alternates lookup 0 subtable" w.smcp
EndChar
StartChar: x
Encoding: 120 120 255
Width: 1210
GlyphClass: 2
Flags: W
AnchorPoint: "Anchor-5" 311 0 basechar 0
AnchorPoint: "Anchor-4" 657 1053 basechar 0
AnchorPoint: "Anchor-3" 0 0 basechar 0
LayerCount: 2
Back
Fore
SplineSet
1211 1045.5 m 128,-1,1
 1264 999 1264 999 1264 918 c 0,2,3
 1264 865 1264 865 1240.5 823.5 c 128,-1,4
 1217 782 1217 782 1175 758.5 c 128,-1,5
 1133 735 1133 735 1079 735 c 0,6,7
 1007 735 1007 735 948 782 c 128,-1,8
 889 829 889 829 862 934 c 1,9,10
 801 852 801 852 750 723 c 1,11,-1
 811 180 l 2,12,13
 820 129 820 129 837 107.5 c 128,-1,14
 854 86 854 86 881 86 c 0,15,16
 910 86 910 86 937 121.5 c 128,-1,17
 964 157 964 157 997 254 c 2,18,-1
 1024 330 l 1,19,-1
 1063 330 l 1,20,-1
 1012 180 l 2,21,22
 973 58 973 58 892 14.5 c 128,-1,23
 811 -29 811 -29 709 -29 c 0,24,25
 593 -29 593 -29 524.5 18.5 c 128,-1,26
 456 66 456 66 444 180 c 2,27,-1
 434 270 l 1,28,29
 384 162 384 162 334 96 c 0,30,31
 237 -29 237 -29 94 -29 c 0,32,33
 7 -29 7 -29 -43.5 15.5 c 128,-1,34
 -94 60 -94 60 -94 135 c 0,35,36
 -94 194 -94 194 -68.5 237.5 c 128,-1,37
 -43 281 -43 281 -0.5 304.5 c 128,-1,38
 42 328 42 328 94 328 c 0,39,40
 245 328 245 328 307 129 c 1,41,42
 373 220 373 220 424 352 c 1,43,-1
 362 883 l 2,44,45
 355 931 355 931 337 947 c 128,-1,46
 319 963 319 963 289 963 c 0,47,48
 270 963 270 963 253.5 952.5 c 128,-1,49
 237 942 237 942 217.5 908.5 c 128,-1,50
 198 875 198 875 176 809 c 2,51,-1
 150 733 l 1,52,-1
 111 733 l 1,53,-1
 162 883 l 2,54,55
 201 1005 201 1005 283.5 1048.5 c 128,-1,56
 366 1092 366 1092 475 1092 c 0,57,58
 555 1092 555 1092 608 1071.5 c 128,-1,59
 661 1051 661 1051 693 999 c 128,-1,60
 725 947 725 947 735 854 c 2,61,-1
 741 801 l 1,62,63
 791 906 791 906 836 967 c 0,64,65
 927 1092 927 1092 1073 1092 c 0,66,0
 1158 1092 1158 1092 1211 1045.5 c 128,-1,1
EndSplineSet
Substitution2: "'smcp' Lowercase to Small Capitals lookup 24 subtable" x.smcp
Substitution2: "'aalt' Access All Alternates lookup 0 subtable" x.smcp
EndChar
StartChar: y
Encoding: 121 121 256
Width: 989
GlyphClass: 2
Flags: W
AnchorPoint: "Anchor-5" 0 0 basechar 0
AnchorPoint: "Anchor-4" 629 1053 basechar 0
AnchorPoint: "Anchor-3" 0 0 basechar 0
LayerCount: 2
Back
Fore
SplineSet
973 893 m 0,1,2
 973 774 973 774 918.5 617 c 128,-1,3
 864 460 864 460 771.5 299 c 128,-1,4
 679 138 679 138 569 8 c 0,5,6
 440 -145 440 -145 299.5 -240.5 c 128,-1,7
 159 -336 159 -336 20 -369 c 0,8,9
 -49 -385 -49 -385 -100 -385 c 0,10,11
 -182 -385 -182 -385 -226 -349.5 c 128,-1,12
 -270 -314 -270 -314 -270 -250 c 0,13,14
 -270 -209 -270 -209 -250 -175 c 128,-1,15
 -230 -141 -230 -141 -193 -120.5 c 128,-1,16
 -156 -100 -156 -100 -106 -100 c 0,17,18
 41 -100 41 -100 145 -281 c 1,19,20
 272 -224 272 -224 384 -127 c 1,21,-1
 217 887 l 2,22,23
 207 940 207 940 199.5 957.5 c 128,-1,24
 192 975 192 975 174 975 c 0,25,26
 160 975 160 975 149.5 965 c 128,-1,27
 139 955 139 955 126 928.5 c 128,-1,28
 113 902 113 902 92 846 c 2,29,-1
 49 731 l 1,30,-1
 10 731 l 1,31,-1
 61 881 l 2,32,33
 102 999 102 999 166.5 1045.5 c 128,-1,34
 231 1092 231 1092 326 1092 c 0,35,36
 429 1092 429 1092 488 1038 c 128,-1,37
 547 984 547 984 567 848 c 2,38,-1
 657 192 l 1,39,40
 796 403 796 403 870 614 c 1,41,42
 773 668 773 668 715 749.5 c 128,-1,43
 657 831 657 831 657 924 c 0,44,45
 657 1001 657 1001 699 1046.5 c 128,-1,46
 741 1092 741 1092 817 1092 c 0,47,0
 973 1092 973 1092 973 893 c 0,1,2
EndSplineSet
Substitution2: "'smcp' Lowercase to Small Capitals lookup 24 subtable" y.smcp
Substitution2: "'aalt' Access All Alternates lookup 0 subtable" y.smcp
EndChar
StartChar: z
Encoding: 122 122 261
Width: 975
GlyphClass: 2
Flags: W
AnchorPoint: "Anchor-5" 307 0 basechar 0
AnchorPoint: "Anchor-4" 618 1053 basechar 0
AnchorPoint: "Anchor-3" 0 0 basechar 0
LayerCount: 2
Back
Fore
SplineSet
160 177.5 m 128,-1,1
 200 203 200 203 256 244 c 0,2,3
 330 298 330 298 376 324 c 128,-1,4
 422 350 422 350 465 350 c 0,5,6
 501 350 501 350 523.5 340.5 c 128,-1,7
 546 331 546 331 574 313 c 0,8,9
 594 299 594 299 608.5 292 c 128,-1,10
 623 285 623 285 643 285 c 0,11,12
 668 285 668 285 681 301.5 c 128,-1,13
 694 318 694 318 694 336 c 0,14,15
 694 407 694 407 604 432 c 1,16,-1
 616 463 l 1,17,18
 735 435 735 435 789.5 379.5 c 128,-1,19
 844 324 844 324 844 231 c 0,20,21
 844 157 844 157 813 98 c 128,-1,22
 782 39 782 39 720.5 5 c 128,-1,23
 659 -29 659 -29 571 -29 c 0,24,25
 508 -29 508 -29 460.5 -13.5 c 128,-1,26
 413 2 413 2 345 34 c 0,27,28
 281 65 281 65 233.5 80.5 c 128,-1,29
 186 96 186 96 125 96 c 0,30,31
 66 96 66 96 23 75 c 128,-1,32
 -20 54 -20 54 -61 0 c 1,33,-1
 -125 0 l 1,34,-1
 918 944 l 1,35,36
 869 927 869 927 820.5 896 c 128,-1,37
 772 865 772 865 702 813 c 0,38,39
 619 751 619 751 565.5 720.5 c 128,-1,40
 512 690 512 690 465 690 c 0,41,42
 431 690 431 690 407.5 700 c 128,-1,43
 384 710 384 710 357 729 c 0,44,45
 336 743 336 743 322 749.5 c 128,-1,46
 308 756 308 756 291 756 c 0,47,48
 266 756 266 756 252 741 c 128,-1,49
 238 726 238 726 238 705 c 0,50,51
 238 671 238 671 257.5 651 c 128,-1,52
 277 631 277 631 328 608 c 1,53,-1
 315 578 l 1,54,55
 88 628 88 628 88 799 c 0,56,57
 88 871 88 871 126 935.5 c 128,-1,58
 164 1000 164 1000 238.5 1040.5 c 128,-1,59
 313 1081 313 1081 418 1081 c 0,60,61
 482 1081 482 1081 528.5 1066.5 c 128,-1,62
 575 1052 575 1052 640 1022 c 0,63,64
 699 994 699 994 743.5 979.5 c 128,-1,65
 788 965 788 965 846 965 c 0,66,67
 909 965 909 965 951 986 c 128,-1,68
 993 1007 993 1007 1034 1061 c 1,69,-1
 1098 1061 l 1,70,-1
 80 137 l 1,71,0
 120 152 120 152 160 177.5 c 128,-1,1
EndSplineSet
Substitution2: "'smcp' Lowercase to Small Capitals lookup 24 subtable" z.smcp
Substitution2: "'aalt' Access All Alternates lookup 0 subtable" z.smcp
EndChar
StartChar: bar
Encoding: 124 124 763
Width: 825
Flags: W
LayerCount: 2
Back
Fore
SplineSet
308 -399 m 1,0,-1
 308 1757 l 1,1,-1
 554 1757 l 1,2,-1
 554 -399 l 1,3,-1
 308 -399 l 1,0,-1
EndSplineSet
EndChar
StartChar: braceright
Encoding: 125 125 639
Width: 813
Flags: W
LayerCount: 2
Back
Fore
SplineSet
574.5 1580 m 128,-1,1
 673 1556 673 1556 715 1503.5 c 128,-1,2
 757 1451 757 1451 757 1364 c 0,3,4
 757 1282 757 1282 719 1128 c 0,5,6
 651 853 651 853 651 752 c 0,7,8
 652 690 652 690 675.5 662 c 128,-1,9
 699 634 699 634 748 631 c 2,10,-1
 758 631 l 1,11,-1
 752 594 l 1,12,-1
 741 594 l 1,13,14
 675 589 675 589 630.5 544.5 c 128,-1,15
 586 500 586 500 547 396 c 128,-1,16
 508 292 508 292 461 96 c 0,17,18
 414 -99 414 -99 333 -203 c 128,-1,19
 252 -307 252 -307 129.5 -346 c 128,-1,20
 7 -385 7 -385 -188 -385 c 1,21,-1
 -178 -346 l 1,22,23
 -106 -345 -106 -345 -68 -317.5 c 128,-1,24
 -30 -290 -30 -290 5 -200.5 c 128,-1,25
 40 -111 40 -111 92 96 c 0,26,27
 138 279 138 279 213.5 382 c 128,-1,28
 289 485 289 485 402 535.5 c 128,-1,29
 515 586 515 586 696 612 c 1,30,31
 554 640 554 640 473 674.5 c 128,-1,32
 392 709 392 709 354 764.5 c 128,-1,33
 316 820 316 820 316 909 c 0,34,35
 316 992 316 992 350 1128 c 0,36,37
 413 1381 413 1381 410 1460 c 0,38,39
 410 1501 410 1501 397.5 1523 c 128,-1,40
 385 1545 385 1545 360 1553.5 c 128,-1,41
 335 1562 335 1562 293 1563 c 1,42,-1
 303 1602 l 1,43,0
 476 1604 476 1604 574.5 1580 c 128,-1,1
EndSplineSet
Substitution2: "'case' Case-Sensitive Forms lookup 25 subtable" braceright.case
Substitution2: "'smcp' Lowercase to Small Capitals lookup 24 subtable" braceright.smcp
Substitution2: "'c2sc' Capitals to Small Capitals lookup 23 subtable" braceright.smcp
AlternateSubs2: "'aalt' Access All Alternates lookup 1 subtable" braceright.smcp braceright.case
EndChar
StartChar: asciitilde
Encoding: 126 126 725
Width: 1317
Flags: W
LayerCount: 2
Back
Fore
SplineSet
667.5 424 m 128,-1,1
 612 445 612 445 539 486 c 0,2,3
 469 525 469 525 420.5 544 c 128,-1,4
 372 563 372 563 312 563 c 0,5,6
 177 563 177 563 101 444 c 1,7,-1
 73 455 l 1,8,9
 116 571 116 571 186 657.5 c 128,-1,10
 256 744 256 744 345.5 791 c 128,-1,11
 435 838 435 838 534 838 c 0,12,13
 605 838 605 838 660 817 c 128,-1,14
 715 796 715 796 788 755 c 0,15,16
 856 716 856 716 905.5 697 c 128,-1,17
 955 678 955 678 1015 678 c 0,18,19
 1150 678 1150 678 1226 797 c 1,20,-1
 1254 786 l 1,21,22
 1211 670 1211 670 1141 583.5 c 128,-1,23
 1071 497 1071 497 982 450 c 128,-1,24
 893 403 893 403 794 403 c 0,25,0
 723 403 723 403 667.5 424 c 128,-1,1
EndSplineSet
Substitution2: "'case' Case-Sensitive Forms lookup 25 subtable" asciitilde.case
Substitution2: "'smcp' Lowercase to Small Capitals lookup 24 subtable" asciitilde.smcp
Substitution2: "'c2sc' Capitals to Small Capitals lookup 23 subtable" asciitilde.smcp
AlternateSubs2: "'aalt' Access All Alternates lookup 1 subtable" asciitilde.smcp asciitilde.case
EndChar
StartChar: exclamdown
Encoding: 161 161 678
Width: 672
Flags: W
LayerCount: 2
Back
Fore
SplineSet
268 986.5 m 128,-1,1
 298 1036 298 1036 350 1064 c 128,-1,2
 402 1092 402 1092 467 1092 c 0,3,4
 546 1092 546 1092 587.5 1056.5 c 128,-1,5
 629 1021 629 1021 629 952 c 0,6,7
 629 898 629 898 598 849 c 128,-1,8
 567 800 567 800 514 769.5 c 128,-1,9
 461 739 461 739 398 739 c 0,10,11
 319 739 319 739 278.5 773.5 c 128,-1,12
 238 808 238 808 238 874 c 0,13,0
 238 937 238 937 268 986.5 c 128,-1,1
323 397 m 0,15,16
 323 316 323 316 337 150 c 0,17,18
 352 -9 352 -9 352 -109 c 0,19,20
 352 -242 352 -242 282 -313.5 c 128,-1,21
 212 -385 212 -385 78 -385 c 0,22,23
 -3 -385 -3 -385 -50.5 -349 c 128,-1,24
 -98 -313 -98 -313 -98 -238 c 0,25,26
 -98 -186 -98 -186 -75.5 -125 c 128,-1,27
 -53 -64 -53 -64 -19.5 -3.5 c 128,-1,28
 14 57 14 57 75 159 c 0,29,30
 165 307 165 307 223.5 419.5 c 128,-1,31
 282 532 282 532 315 653 c 1,32,-1
 352 647 l 1,33,14
 323 536 323 536 323 397 c 0,15,16
EndSplineSet
Substitution2: "'case' Case-Sensitive Forms lookup 25 subtable" exclamdown.case
Substitution2: "'smcp' Lowercase to Small Capitals lookup 24 subtable" exclamdown.smcp
Substitution2: "'c2sc' Capitals to Small Capitals lookup 23 subtable" exclamdown.smcp
AlternateSubs2: "'aalt' Access All Alternates lookup 1 subtable" exclamdown.smcp exclamdown.case
EndChar
StartChar: cent
Encoding: 162 162 717
Width: 1038
Flags: W
LayerCount: 2
Back
Fore
SplineSet
680 874 m 128,-1,1
 709 930 709 930 756.5 969.5 c 128,-1,2
 804 1009 804 1009 860 1026 c 1,3,4
 832 1051 832 1051 790 1051 c 0,5,6
 741 1051 741 1051 690 1021 c 1,7,-1
 451 136 l 1,8,9
 492 98 492 98 559 98 c 0,10,11
 624 98 624 98 684 135 c 128,-1,12
 744 172 744 172 805 262 c 1,13,-1
 846 246 l 1,14,15
 679 -14 679 -14 407 -28 c 1,16,-1
 315 -371 l 1,17,-1
 270 -371 l 1,18,-1
 362 -29 l 1,19,20
 203 -25 203 -25 107.5 56.5 c 128,-1,21
 12 138 12 138 12 295 c 0,22,23
 12 463 12 463 92.5 635.5 c 128,-1,24
 173 808 173 808 321.5 932 c 128,-1,25
 470 1056 470 1056 662 1085 c 1,26,-1
 760 1450 l 1,27,-1
 805 1450 l 1,28,-1
 708 1090 l 1,29,30
 744 1092 744 1092 764 1092 c 0,31,32
 846 1092 846 1092 906.5 1063 c 128,-1,33
 967 1034 967 1034 998.5 985.5 c 128,-1,34
 1030 937 1030 937 1030 879 c 0,35,36
 1030 814 1030 814 997 751.5 c 128,-1,37
 964 689 964 689 908.5 649.5 c 128,-1,38
 853 610 853 610 790 610 c 0,39,40
 753 610 753 610 721.5 626.5 c 128,-1,41
 690 643 690 643 670.5 675.5 c 128,-1,42
 651 708 651 708 651 754 c 0,43,0
 651 818 651 818 680 874 c 128,-1,1
511.5 806 m 128,-1,45
 457 699 457 699 426 568 c 128,-1,46
 395 437 395 437 395 307 c 0,47,48
 395 229 395 229 419 181 c 1,49,-1
 633 977 l 1,50,44
 566 913 566 913 511.5 806 c 128,-1,45
EndSplineSet
Substitution2: "'smcp' Lowercase to Small Capitals lookup 24 subtable" cent.smcp
Substitution2: "'c2sc' Capitals to Small Capitals lookup 23 subtable" cent.smcp
Substitution2: "'aalt' Access All Alternates lookup 0 subtable" cent.smcp
EndChar
StartChar: sterling
Encoding: 163 163 722
Width: 1442
Flags: W
LayerCount: 2
Back
Fore
SplineSet
1004.5 1316 m 128,-1,1
 1030 1370 1030 1370 1076 1406 c 128,-1,2
 1122 1442 1122 1442 1182 1454 c 1,3,4
 1157 1477 1157 1477 1115 1477 c 0,5,6
 1030 1477 1030 1477 975.5 1421 c 128,-1,7
 921 1365 921 1365 887 1235 c 2,8,-1
 787 854 l 1,9,-1
 1065 854 l 1,10,-1
 1053 813 l 1,11,-1
 776 813 l 1,12,13
 749 725 749 725 701 649 c 1,14,-1
 1010 649 l 1,15,-1
 997 608 l 1,16,-1
 672 608 l 1,17,18
 630 555 630 555 582 514.5 c 128,-1,19
 534 474 534 474 458 419 c 0,20,21
 391 370 391 370 347.5 335 c 128,-1,22
 304 300 304 300 259.5 251 c 128,-1,23
 215 202 215 202 180 139 c 1,24,25
 409 373 409 373 639 373 c 0,26,27
 721 373 721 373 783 360.5 c 128,-1,28
 845 348 845 348 921 326 c 0,29,30
 971 312 971 312 999 305.5 c 128,-1,31
 1027 299 1027 299 1055 299 c 0,32,33
 1114 299 1114 299 1114 346 c 0,34,35
 1114 413 1114 413 965 442 c 1,36,-1
 973 481 l 1,37,38
 1100 462 1100 462 1186 404 c 128,-1,39
 1272 346 1272 346 1272 244 c 0,40,41
 1272 165 1272 165 1231.5 103 c 128,-1,42
 1191 41 1191 41 1116.5 6 c 128,-1,43
 1042 -29 1042 -29 942 -29 c 0,44,45
 855 -29 855 -29 788.5 -9 c 128,-1,46
 722 11 722 11 632 51 c 0,47,48
 542 90 542 90 477.5 109.5 c 128,-1,49
 413 129 413 129 330 129 c 0,50,51
 233 129 233 129 166 106 c 1,52,53
 133 38 133 38 78 4.5 c 128,-1,54
 23 -29 23 -29 -37 -29 c 0,55,56
 -51 -29 -51 -29 -57 -24.5 c 128,-1,57
 -63 -20 -63 -20 -63 -8 c 0,58,59
 -63 18 -63 18 -41.5 48.5 c 128,-1,60
 -20 79 -20 79 25.5 105 c 128,-1,61
 71 131 71 131 139 141 c 1,62,63
 182 225 182 225 216 310.5 c 128,-1,64
 250 396 250 396 285 528 c 2,65,-1
 306 608 l 1,66,-1
 106 608 l 1,67,-1
 119 649 l 1,68,-1
 317 649 l 1,69,-1
 360 813 l 1,70,-1
 162 813 l 1,71,-1
 174 854 l 1,72,-1
 371 854 l 1,73,-1
 383 899 l 2,74,75
 455 1176 455 1176 639.5 1341.5 c 128,-1,76
 824 1507 824 1507 1124 1507 c 0,77,78
 1201 1507 1201 1507 1260 1478 c 128,-1,79
 1319 1449 1319 1449 1351.5 1399 c 128,-1,80
 1384 1349 1384 1349 1384 1288 c 0,81,82
 1384 1212 1384 1212 1355 1154 c 128,-1,83
 1326 1096 1326 1096 1275 1064 c 128,-1,84
 1224 1032 1224 1032 1161 1032 c 0,85,86
 1076 1032 1076 1032 1027.5 1074.5 c 128,-1,87
 979 1117 979 1117 979 1198 c 0,88,0
 979 1262 979 1262 1004.5 1316 c 128,-1,1
EndSplineSet
Substitution2: "'smcp' Lowercase to Small Capitals lookup 24 subtable" sterling.smcp
Substitution2: "'c2sc' Capitals to Small Capitals lookup 23 subtable" sterling.smcp
Substitution2: "'aalt' Access All Alternates lookup 0 subtable" sterling.smcp
EndChar
StartChar: currency
Encoding: 164 164 718
Width: 1468
Flags: W
LayerCount: 2
Back
Fore
SplineSet
253 614 m 0,1,2
 253 711 253 711 292 805 c 1,3,-1
 153 944 l 1,4,-1
 405 1196 l 1,5,-1
 542 1059 l 1,6,7
 635 1100 635 1100 736 1100 c 0,8,9
 834 1100 834 1100 929 1059 c 1,10,-1
 1068 1198 l 1,11,-1
 1320 946 l 1,12,-1
 1181 807 l 1,13,14
 1222 714 1222 714 1222 614 c 0,15,16
 1222 513 1222 513 1181 420 c 1,17,-1
 1320 281 l 1,18,-1
 1068 29 l 1,19,-1
 927 170 l 1,20,21
 833 131 833 131 736 131 c 0,22,23
 629 131 629 131 544 170 c 1,24,-1
 405 31 l 1,25,-1
 153 283 l 1,26,-1
 292 422 l 1,27,0
 253 507 253 507 253 614 c 0,1,2
575.5 498.5 m 128,-1,29
 601 450 601 450 644 425.5 c 128,-1,30
 687 401 687 401 740 401 c 256,31,32
 793 401 793 401 836.5 425.5 c 128,-1,33
 880 450 880 450 905.5 498.5 c 128,-1,34
 931 547 931 547 931 614 c 0,35,36
 931 682 931 682 905.5 730.5 c 128,-1,37
 880 779 880 779 836.5 804 c 128,-1,38
 793 829 793 829 740 829 c 256,39,40
 687 829 687 829 644 804 c 128,-1,41
 601 779 601 779 575.5 730.5 c 128,-1,42
 550 682 550 682 550 614 c 0,43,28
 550 547 550 547 575.5 498.5 c 128,-1,29
EndSplineSet
Substitution2: "'smcp' Lowercase to Small Capitals lookup 24 subtable" currency.smcp
Substitution2: "'c2sc' Capitals to Small Capitals lookup 23 subtable" currency.smcp
Substitution2: "'aalt' Access All Alternates lookup 0 subtable" currency.smcp
EndChar
StartChar: yen
Encoding: 165 165 723
Width: 1690
Flags: W
LayerCount: 2
Back
Fore
SplineSet
1682.5 1450 m 128,-1,1
 1737 1421 1737 1421 1767 1371 c 128,-1,2
 1797 1321 1797 1321 1797 1260 c 0,3,4
 1797 1196 1797 1196 1766.5 1146.5 c 128,-1,5
 1736 1097 1736 1097 1684 1070.5 c 128,-1,6
 1632 1044 1632 1044 1568 1044 c 0,7,8
 1484 1044 1484 1044 1434.5 1084.5 c 128,-1,9
 1385 1125 1385 1125 1385 1196 c 0,10,11
 1385 1256 1385 1256 1413 1305 c 128,-1,12
 1441 1354 1441 1354 1489.5 1385.5 c 128,-1,13
 1538 1417 1538 1417 1598 1427 c 1,14,15
 1583 1444 1583 1444 1547 1444 c 0,16,17
 1514 1444 1514 1444 1483.5 1433 c 128,-1,18
 1453 1422 1453 1422 1416 1395 c 0,19,20
 1363 1356 1363 1356 1289.5 1249 c 128,-1,21
 1216 1142 1216 1142 1141 976.5 c 128,-1,22
 1066 811 1066 811 1011 609 c 1,23,-1
 1011 608 l 1,24,-1
 1275 608 l 1,25,-1
 1265 567 l 1,26,-1
 1000 567 l 1,27,-1
 969 444 l 1,28,-1
 1230 444 l 1,29,-1
 1220 403 l 1,30,-1
 959 403 l 1,31,-1
 912 217 l 2,32,33
 901 171 901 171 901 144 c 0,34,35
 901 103 901 103 920 81.5 c 128,-1,36
 939 60 939 60 975.5 52 c 128,-1,37
 1012 44 1012 44 1074 41 c 1,38,-1
 1064 0 l 1,39,40
 935 6 935 6 646 6 c 0,41,42
 395 6 395 6 275 0 c 1,43,-1
 286 41 l 1,44,45
 360 44 360 44 397 57 c 128,-1,46
 434 70 434 70 456 105.5 c 128,-1,47
 478 141 478 141 497 217 c 2,48,-1
 544 403 l 1,49,-1
 257 403 l 1,50,-1
 267 444 l 1,51,-1
 554 444 l 1,52,-1
 585 567 l 1,53,-1
 302 567 l 1,54,-1
 312 608 l 1,55,-1
 595 608 l 1,56,-1
 602 636 l 1,57,58
 573 905 573 905 513 1104 c 128,-1,59
 453 1303 453 1303 370 1303 c 0,60,61
 334 1303 334 1303 313 1276 c 128,-1,62
 292 1249 292 1249 277 1206 c 2,63,-1
 243 1102 l 1,64,-1
 198 1102 l 1,65,-1
 241 1233 l 2,66,67
 284 1365 284 1365 375.5 1422 c 128,-1,68
 467 1479 467 1479 587 1479 c 0,69,70
 739 1479 739 1479 821 1399 c 128,-1,71
 903 1319 903 1319 941.5 1171.5 c 128,-1,72
 980 1024 980 1024 1011 756 c 1,73,74
 1139 1151 1139 1151 1314 1356 c 0,75,76
 1419 1479 1419 1479 1557 1479 c 0,77,0
 1628 1479 1628 1479 1682.5 1450 c 128,-1,1
EndSplineSet
Substitution2: "'smcp' Lowercase to Small Capitals lookup 24 subtable" yen.smcp
Substitution2: "'c2sc' Capitals to Small Capitals lookup 23 subtable" yen.smcp
Substitution2: "'aalt' Access All Alternates lookup 0 subtable" yen.smcp
EndChar
StartChar: brokenbar
Encoding: 166 166 764
Width: 831
Flags: W
LayerCount: 2
Back
Fore
SplineSet
312 786 m 1,0,-1
 312 1757 l 1,1,-1
 558 1757 l 1,2,-1
 558 786 l 1,3,-1
 312 786 l 1,0,-1
558 668 m 1,4,-1
 558 -399 l 1,5,-1
 312 -399 l 1,6,-1
 312 668 l 1,7,-1
 558 668 l 1,4,-1
EndSplineSet
EndChar
StartChar: section
Encoding: 167 167 773
Width: 1272
Flags: W
LayerCount: 2
Back
Fore
SplineSet
969.5 1444 m 128,-1,1
 1017 1503 1017 1503 1085 1534 c 1,2,3
 1076 1543 1076 1543 1040 1553 c 128,-1,4
 1004 1563 1004 1563 961 1563 c 0,5,6
 890 1563 890 1563 830 1532.5 c 128,-1,7
 770 1502 770 1502 734 1446 c 128,-1,8
 698 1390 698 1390 698 1317 c 0,9,10
 698 1272 698 1272 716.5 1236.5 c 128,-1,11
 735 1201 735 1201 768 1169.5 c 128,-1,12
 801 1138 801 1138 868 1083 c 2,13,-1
 922 1038 l 1,14,-1
 949 1015 l 2,15,16
 1046 935 1046 935 1095.5 887 c 128,-1,17
 1145 839 1145 839 1174.5 786 c 128,-1,18
 1204 733 1204 733 1204 670 c 0,19,20
 1204 531 1204 531 1110 433.5 c 128,-1,21
 1016 336 1016 336 863 263 c 1,22,23
 958 156 958 156 958 49 c 0,24,25
 958 -92 958 -92 861 -190.5 c 128,-1,26
 764 -289 764 -289 617.5 -337 c 128,-1,27
 471 -385 471 -385 324 -385 c 0,28,29
 192 -385 192 -385 83.5 -347.5 c 128,-1,30
 -25 -310 -25 -310 -25 -201 c 0,31,32
 -25 -142 -25 -142 5.5 -89.5 c 128,-1,33
 36 -37 36 -37 88.5 -5 c 128,-1,34
 141 27 141 27 205 27 c 0,35,36
 274 27 274 27 313 -6.5 c 128,-1,37
 352 -40 352 -40 352 -94 c 0,38,39
 352 -167 352 -167 306 -226 c 128,-1,40
 260 -285 260 -285 188 -317 c 1,41,42
 198 -327 198 -327 234 -336.5 c 128,-1,43
 270 -346 270 -346 313 -346 c 0,44,45
 384 -346 384 -346 444 -316 c 128,-1,46
 504 -286 504 -286 539.5 -230 c 128,-1,47
 575 -174 575 -174 575 -100 c 0,48,49
 575 -55 575 -55 556.5 -20 c 128,-1,50
 538 15 538 15 505.5 46 c 128,-1,51
 473 77 473 77 405 134 c 2,52,-1
 352 178 l 1,53,-1
 323 202 l 2,54,55
 227 283 227 283 178 331 c 128,-1,56
 129 379 129 379 99.5 432 c 128,-1,57
 70 485 70 485 70 547 c 0,58,59
 70 686 70 686 163.5 783.5 c 128,-1,60
 257 881 257 881 411 954 c 1,61,62
 315 1060 315 1060 315 1167 c 0,63,64
 315 1308 315 1308 412 1406.5 c 128,-1,65
 509 1505 509 1505 656 1553.5 c 128,-1,66
 803 1602 803 1602 950 1602 c 0,67,68
 1078 1602 1078 1602 1189 1562.5 c 128,-1,69
 1300 1523 1300 1523 1300 1415 c 0,70,71
 1300 1356 1300 1356 1269 1304 c 128,-1,72
 1238 1252 1238 1252 1185 1221 c 128,-1,73
 1132 1190 1132 1190 1069 1190 c 0,74,75
 998 1190 998 1190 960 1225.5 c 128,-1,76
 922 1261 922 1261 922 1319 c 0,77,0
 922 1385 922 1385 969.5 1444 c 128,-1,1
881 468 m 0,79,80
 881 510 881 510 855 551.5 c 128,-1,81
 829 593 829 593 772 644.5 c 128,-1,82
 715 696 715 696 608 778 c 0,83,84
 513 852 513 852 454 909 c 1,85,86
 393 838 393 838 393 756 c 0,87,88
 393 713 393 713 418 671 c 128,-1,89
 443 629 443 629 501.5 574.5 c 128,-1,90
 560 520 560 520 666 438 c 0,91,92
 754 370 754 370 821 306 c 1,93,94
 857 346 857 346 874 418 c 0,95,78
 881 443 881 443 881 468 c 0,79,80
EndSplineSet
Substitution2: "'smcp' Lowercase to Small Capitals lookup 24 subtable" section.smcp
Substitution2: "'c2sc' Capitals to Small Capitals lookup 23 subtable" section.smcp
Substitution2: "'aalt' Access All Alternates lookup 0 subtable" section.smcp
EndChar
StartChar: dieresis
Encoding: 168 168 797
Width: 799
Flags: W
LayerCount: 2
Back
Fore
SplineSet
5 1493 m 128,-1,1
 33 1538 33 1538 79 1559.5 c 128,-1,2
 125 1581 125 1581 180 1581 c 0,3,4
 259 1581 259 1581 296.5 1538.5 c 128,-1,5
 334 1496 334 1496 334 1421 c 0,6,7
 334 1354 334 1354 305 1310 c 128,-1,8
 276 1266 276 1266 229 1245.5 c 128,-1,9
 182 1225 182 1225 129 1225 c 0,10,11
 51 1225 51 1225 14 1266 c 128,-1,12
 -23 1307 -23 1307 -23 1380 c 0,13,0
 -23 1448 -23 1448 5 1493 c 128,-1,1
523.5 1530.5 m 128,-1,15
 582 1581 582 1581 668 1581 c 0,16,17
 746 1581 746 1581 783.5 1538.5 c 128,-1,18
 821 1496 821 1496 821 1421 c 0,19,20
 821 1354 821 1354 792 1310 c 128,-1,21
 763 1266 763 1266 716.5 1245.5 c 128,-1,22
 670 1225 670 1225 616 1225 c 0,23,24
 538 1225 538 1225 501.5 1266 c 128,-1,25
 465 1307 465 1307 465 1380 c 0,26,14
 465 1480 465 1480 523.5 1530.5 c 128,-1,15
EndSplineSet
Substitution2: "'case' Case-Sensitive Forms lookup 25 subtable" dieresis.case
Substitution2: "'smcp' Lowercase to Small Capitals lookup 24 subtable" dieresis.smcp
Substitution2: "'c2sc' Capitals to Small Capitals lookup 23 subtable" dieresis.smcp
AlternateSubs2: "'aalt' Access All Alternates lookup 1 subtable" dieresis.smcp dieresis.case
EndChar
StartChar: copyright
Encoding: 169 169 766
Width: 1847
Flags: W
LayerCount: 2
Back
Fore
SplineSet
266.5 1195.5 m 128,-1,1
 376 1383 376 1383 563 1492.5 c 128,-1,2
 750 1602 750 1602 972 1602 c 0,3,4
 1193 1602 1193 1602 1380.5 1492.5 c 128,-1,5
 1568 1383 1568 1383 1677.5 1195.5 c 128,-1,6
 1787 1008 1787 1008 1787 786 c 0,7,8
 1787 565 1787 565 1677.5 377.5 c 128,-1,9
 1568 190 1568 190 1380.5 80.5 c 128,-1,10
 1193 -29 1193 -29 972 -29 c 0,11,12
 750 -29 750 -29 563 80.5 c 128,-1,13
 376 190 376 190 266.5 377.5 c 128,-1,14
 157 565 157 565 157 786 c 0,15,0
 157 1008 157 1008 266.5 1195.5 c 128,-1,1
337.5 411 m 128,-1,17
 436 239 436 239 604 138 c 128,-1,18
 772 37 772 37 972 37 c 0,19,20
 1171 37 1171 37 1339.5 138 c 128,-1,21
 1508 239 1508 239 1606.5 411 c 128,-1,22
 1705 583 1705 583 1705 786 c 0,23,24
 1705 990 1705 990 1606.5 1162 c 128,-1,25
 1508 1334 1508 1334 1339.5 1435 c 128,-1,26
 1171 1536 1171 1536 972 1536 c 0,27,28
 772 1536 772 1536 604 1435 c 128,-1,29
 436 1334 436 1334 337.5 1162 c 128,-1,30
 239 990 239 990 239 786 c 0,31,16
 239 583 239 583 337.5 411 c 128,-1,17
1385 588 m 1,33,-1
 1420 575 l 1,34,35
 1392 485 1392 485 1336.5 406 c 128,-1,36
 1281 327 1281 327 1194 277 c 128,-1,37
 1107 227 1107 227 992 227 c 0,38,39
 769 227 769 227 634 360.5 c 128,-1,40
 499 494 499 494 499 786 c 0,41,42
 499 976 499 976 567 1102 c 128,-1,43
 635 1228 635 1228 753 1288 c 128,-1,44
 871 1348 871 1348 1025 1348 c 0,45,46
 1122 1348 1122 1348 1211.5 1319.5 c 128,-1,47
 1301 1291 1301 1291 1359.5 1229.5 c 128,-1,48
 1418 1168 1418 1168 1418 1073 c 0,49,50
 1418 1018 1418 1018 1392.5 972.5 c 128,-1,51
 1367 927 1367 927 1322.5 900.5 c 128,-1,52
 1278 874 1278 874 1222 874 c 0,53,54
 1133 874 1133 874 1083 925 c 128,-1,55
 1033 976 1033 976 1033 1059 c 0,56,57
 1033 1133 1033 1133 1081.5 1188.5 c 128,-1,58
 1130 1244 1130 1244 1201 1264 c 1,59,60
 1182 1277 1182 1277 1150 1285.5 c 128,-1,61
 1118 1294 1118 1294 1084 1294 c 0,62,63
 1012 1294 1012 1294 968.5 1253 c 128,-1,64
 925 1212 925 1212 903.5 1108 c 128,-1,65
 882 1004 882 1004 882 815 c 0,66,67
 882 656 882 656 919 561 c 128,-1,68
 956 466 956 466 1013 427.5 c 128,-1,69
 1070 389 1070 389 1138 389 c 0,70,32
 1286 389 1286 389 1385 588 c 1,33,-1
EndSplineSet
EndChar
StartChar: ordfeminine
Encoding: 170 170 421
Width: 1196
GlyphClass: 2
Flags: W
LayerCount: 2
Back
Fore
SplineSet
1205 979 m 1,0,-1
 1185 922 l 2,1,2
 1118 737 1118 737 906 737 c 0,3,4
 716 737 716 737 716 898 c 0,5,6
 716 915 716 915 717 924 c 1,7,8
 661 819 661 819 589 778 c 128,-1,9
 517 737 517 737 429 737 c 0,10,11
 206 737 206 737 206 944 c 0,12,13
 206 1071 206 1071 286 1196 c 128,-1,14
 366 1321 366 1321 493.5 1400 c 128,-1,15
 621 1479 621 1479 753 1479 c 0,16,17
 793 1479 793 1479 817.5 1465 c 128,-1,18
 842 1451 842 1451 846 1408 c 1,19,-1
 861 1460 l 1,20,21
 1060 1460 1060 1460 1209 1479 c 1,22,-1
 1041 948 l 2,23,24
 1032 916 1032 916 1032 901 c 0,25,26
 1032 864 1032 864 1070 864 c 0,27,28
 1125 864 1125 864 1148 928 c 2,29,-1
 1166 979 l 1,30,-1
 1205 979 l 1,0,-1
670.5 907 m 128,-1,32
 705 952 705 952 737 1027 c 1,33,-1
 830 1352 l 1,34,35
 829 1392 829 1392 815 1411 c 128,-1,36
 801 1430 801 1430 781 1430 c 0,37,38
 739 1430 739 1430 686.5 1360 c 128,-1,39
 634 1290 634 1290 597 1183 c 128,-1,40
 560 1076 560 1076 560 973 c 0,41,42
 560 862 560 862 605 862 c 0,43,31
 636 862 636 862 670.5 907 c 128,-1,32
EndSplineSet
EndChar
StartChar: guillemotleft
Encoding: 171 171 657
Width: 1294
Flags: W
LayerCount: 2
Back
Fore
SplineSet
713.5 894 m 128,-1,1
 645 782 645 782 570 682.5 c 128,-1,2
 495 583 495 583 439 530 c 1,3,4
 471 478 471 478 500 378 c 128,-1,5
 529 278 529 278 546 167 c 128,-1,6
 563 56 563 56 562 -29 c 1,7,-1
 525 -29 l 1,8,9
 406 135 406 135 288 266.5 c 128,-1,10
 170 398 170 398 30 510 c 1,11,-1
 40 551 l 1,12,13
 228 661 228 661 403 790.5 c 128,-1,14
 578 920 578 920 785 1092 c 1,15,-1
 822 1092 l 1,16,0
 782 1006 782 1006 713.5 894 c 128,-1,1
1106 752 m 128,-1,18
 1011 602 1011 602 943 530 c 1,19,20
 965 485 965 485 985.5 399.5 c 128,-1,21
 1006 314 1006 314 1017 219.5 c 128,-1,22
 1028 125 1028 125 1025 53 c 1,23,-1
 988 53 l 1,24,25
 870 203 870 203 770.5 310.5 c 128,-1,26
 671 418 671 418 552 510 c 1,27,-1
 562 551 l 1,28,29
 724 643 724 643 873.5 752 c 128,-1,30
 1023 861 1023 861 1207 1010 c 1,31,-1
 1244 1010 l 1,32,17
 1201 902 1201 902 1106 752 c 128,-1,18
EndSplineSet
Substitution2: "'case' Case-Sensitive Forms lookup 25 subtable" guillemotleft.case
Substitution2: "'smcp' Lowercase to Small Capitals lookup 24 subtable" guillemotleft.smcp
Substitution2: "'c2sc' Capitals to Small Capitals lookup 23 subtable" guillemotleft.smcp
AlternateSubs2: "'aalt' Access All Alternates lookup 1 subtable" guillemotleft.smcp guillemotleft.case
EndChar
StartChar: logicalnot
Encoding: 172 172 734
Width: 1303
Flags: W
LayerCount: 2
Back
Fore
SplineSet
1207 758 m 1,0,-1
 1086 338 l 1,1,-1
 1013 338 l 1,2,-1
 1115 696 l 1,3,-1
 163 696 l 1,4,-1
 181 758 l 1,5,-1
 1207 758 l 1,0,-1
EndSplineSet
EndChar
StartChar: registered
Encoding: 174 174 772
Width: 1384
Flags: W
LayerCount: 2
Back
Fore
SplineSet
1092 1525 m 128,-1,1
 1223 1448 1223 1448 1300 1316.5 c 128,-1,2
 1377 1185 1377 1185 1377 1030 c 256,3,4
 1377 875 1377 875 1300 744 c 128,-1,5
 1223 613 1223 613 1092 536 c 128,-1,6
 961 459 961 459 806 459 c 256,7,8
 651 459 651 459 520 536 c 128,-1,9
 389 613 389 613 312 744 c 128,-1,10
 235 875 235 875 235 1030 c 256,11,12
 235 1185 235 1185 312 1316.5 c 128,-1,13
 389 1448 389 1448 520 1525 c 128,-1,14
 651 1602 651 1602 806 1602 c 256,15,0
 961 1602 961 1602 1092 1525 c 128,-1,1
1049.5 592.5 m 128,-1,17
 1161 661 1161 661 1226 777.5 c 128,-1,18
 1291 894 1291 894 1291 1030 c 0,19,20
 1291 1167 1291 1167 1226 1283 c 128,-1,21
 1161 1399 1161 1399 1050 1467.5 c 128,-1,22
 939 1536 939 1536 806 1536 c 256,23,24
 673 1536 673 1536 562 1467.5 c 128,-1,25
 451 1399 451 1399 386 1283 c 128,-1,26
 321 1167 321 1167 321 1030 c 0,27,28
 321 894 321 894 386 777.5 c 128,-1,29
 451 661 451 661 562.5 592.5 c 128,-1,30
 674 524 674 524 806 524 c 256,31,16
 938 524 938 524 1049.5 592.5 c 128,-1,17
1046 711 m 0,33,34
 901 711 901 711 886 803 c 2,35,-1
 859 950 l 2,36,37
 853 983 853 983 845 1000 c 128,-1,38
 837 1017 837 1017 819 1027 c 128,-1,39
 801 1037 801 1037 765 1041 c 1,40,-1
 765 827 l 2,41,42
 765 795 765 795 768.5 780 c 128,-1,43
 772 765 772 765 781.5 759.5 c 128,-1,44
 791 754 791 754 812 752 c 1,45,-1
 812 721 l 1,46,47
 773 721 773 721 750 722 c 2,48,-1
 667 723 l 1,49,-1
 567 722 l 2,50,51
 545 721 545 721 511 721 c 1,52,-1
 511 752 l 1,53,54
 532 754 532 754 541.5 759.5 c 128,-1,55
 551 765 551 765 554.5 780 c 128,-1,56
 558 795 558 795 558 827 c 2,57,-1
 558 1276 l 2,58,59
 558 1309 558 1309 554.5 1324.5 c 128,-1,60
 551 1340 551 1340 541.5 1346 c 128,-1,61
 532 1352 532 1352 511 1354 c 1,62,-1
 511 1384 l 1,63,64
 544 1382 544 1382 658 1382 c 2,65,-1
 785 1383 l 2,66,67
 807 1384 807 1384 835 1384 c 0,68,69
 973 1384 973 1384 1033 1343.5 c 128,-1,70
 1093 1303 1093 1303 1093 1223 c 0,71,72
 1093 1172 1093 1172 1043.5 1125.5 c 128,-1,73
 994 1079 994 1079 875 1060 c 1,74,75
 945 1054 945 1054 984.5 1040 c 128,-1,76
 1024 1026 1024 1026 1042.5 1002 c 128,-1,77
 1061 978 1061 978 1068 940 c 2,78,-1
 1103 795 l 2,79,80
 1108 760 1108 760 1129 760 c 0,81,82
 1141 760 1141 760 1152 768 c 1,83,-1
 1164 745 l 1,84,32
 1123 711 1123 711 1046 711 c 0,33,34
773 1343 m 128,-1,86
 765 1332 765 1332 765 1303 c 2,87,-1
 765 1077 l 1,88,-1
 773 1077 l 2,89,90
 829 1077 829 1077 859.5 1113 c 128,-1,91
 890 1149 890 1149 890 1217 c 0,92,93
 890 1283 890 1283 867.5 1318.5 c 128,-1,94
 845 1354 845 1354 802 1354 c 0,95,85
 781 1354 781 1354 773 1343 c 128,-1,86
EndSplineSet
EndChar
StartChar: degree
Encoding: 176 176 769
Width: 680
Flags: W
LayerCount: 2
Back
Fore
SplineSet
658 1649 m 128,-1,1
 715 1619 715 1619 749 1563 c 128,-1,2
 783 1507 783 1507 783 1434 c 0,3,4
 783 1359 783 1359 749 1303 c 128,-1,5
 715 1247 715 1247 658 1216.5 c 128,-1,6
 601 1186 601 1186 534 1186 c 256,7,8
 467 1186 467 1186 410.5 1216.5 c 128,-1,9
 354 1247 354 1247 320 1303 c 128,-1,10
 286 1359 286 1359 286 1434 c 0,11,12
 286 1507 286 1507 320 1563 c 128,-1,13
 354 1619 354 1619 410.5 1649 c 128,-1,14
 467 1679 467 1679 534 1679 c 256,15,0
 601 1679 601 1679 658 1649 c 128,-1,1
628.5 1251 m 128,-1,17
 675 1275 675 1275 704.5 1322 c 128,-1,18
 734 1369 734 1369 734 1434 c 0,19,20
 734 1497 734 1497 704 1543.5 c 128,-1,21
 674 1590 674 1590 628 1614 c 128,-1,22
 582 1638 582 1638 534 1638 c 256,23,24
 486 1638 486 1638 440 1614 c 128,-1,25
 394 1590 394 1590 364.5 1543.5 c 128,-1,26
 335 1497 335 1497 335 1434 c 0,27,28
 335 1369 335 1369 364.5 1322 c 128,-1,29
 394 1275 394 1275 439.5 1251 c 128,-1,30
 485 1227 485 1227 534 1227 c 0,31,16
 582 1227 582 1227 628.5 1251 c 128,-1,17
EndSplineSet
EndChar
StartChar: threesuperior
Encoding: 179 179 637
Width: 713
Flags: W
LayerCount: 2
Back
Fore
SplineSet
783 1516 m 128,-1,1
 839 1488 839 1488 839 1434 c 0,2,3
 839 1379 839 1379 781 1331 c 128,-1,4
 723 1283 723 1283 638 1249 c 128,-1,5
 553 1215 553 1215 472 1200 c 1,6,7
 777 1197 777 1197 777 1049 c 0,8,9
 777 953 777 953 666 880 c 128,-1,10
 555 807 555 807 390.5 765 c 128,-1,11
 226 723 226 723 69 713 c 1,12,-1
 69 750 l 1,13,14
 182 759 182 759 288.5 799.5 c 128,-1,15
 395 840 395 840 463 908 c 128,-1,16
 531 976 531 976 531 1065 c 0,17,18
 531 1156 531 1156 460 1171 c 1,19,20
 421 1151 421 1151 394 1151 c 0,21,22
 379 1151 379 1151 368 1157.5 c 128,-1,23
 357 1164 357 1164 357 1178 c 0,24,25
 357 1215 357 1215 448 1212 c 1,26,27
 515 1243 515 1243 556 1290 c 128,-1,28
 597 1337 597 1337 597 1386 c 0,29,30
 597 1426 597 1426 575 1445 c 128,-1,31
 553 1464 553 1464 515 1464 c 0,32,33
 413 1464 413 1464 304 1366 c 1,34,-1
 275 1391 l 1,35,36
 334 1451 334 1451 430 1497.5 c 128,-1,37
 526 1544 526 1544 634 1544 c 0,38,0
 727 1544 727 1544 783 1516 c 128,-1,1
EndSplineSet
EndChar
StartChar: acute
Encoding: 180 180 791
Width: 457
Flags: W
LayerCount: 2
Back
Fore
SplineSet
392 1489 m 0,1,2
 431 1570 431 1570 458 1615 c 128,-1,3
 485 1660 485 1660 521 1696 c 0,4,5
 547 1722 547 1722 582 1738 c 128,-1,6
 617 1754 617 1754 652 1754 c 0,7,8
 707 1754 707 1754 747 1714 c 0,9,10
 781 1680 781 1680 781 1637 c 0,11,12
 781 1576 781 1576 714 1507 c 0,13,14
 682 1475 682 1475 640 1447.5 c 128,-1,15
 598 1420 598 1420 521 1376 c 0,16,17
 366 1287 366 1287 280 1227 c 1,18,-1
 259 1247 l 1,19,0
 311 1329 311 1329 392 1489 c 0,1,2
EndSplineSet
Substitution2: "'case' Case-Sensitive Forms lookup 25 subtable" acute.case
Substitution2: "'smcp' Lowercase to Small Capitals lookup 24 subtable" acute.smcp
Substitution2: "'c2sc' Capitals to Small Capitals lookup 23 subtable" acute.smcp
Substitution2: "'locl' Localized Forms in Latin lookup 7 subtable" acute.loclPLK
AlternateSubs2: "'aalt' Access All Alternates lookup 1 subtable" acute.loclPLK acute.smcp acute.case
EndChar
StartChar: paragraph
Encoding: 182 182 771
Width: 1544
Flags: W
LayerCount: 2
Back
Fore
SplineSet
241 104 m 128,-1,1
 85 235 85 235 85 469 c 0,2,3
 85 737 85 737 213.5 962.5 c 128,-1,4
 342 1188 342 1188 563 1320 c 128,-1,5
 784 1452 784 1452 1050 1452 c 0,6,7
 1064 1452 1064 1452 1274 1449 c 0,8,9
 1368 1446 1368 1446 1459 1446 c 0,10,11
 1627 1446 1627 1446 1705 1450 c 1,12,-1
 1695 1411 l 1,13,14
 1630 1408 1630 1408 1592 1392.5 c 128,-1,15
 1554 1377 1554 1377 1533.5 1348.5 c 128,-1,16
 1513 1320 1513 1320 1500 1272 c 2,17,-1
 1203 133 l 2,18,19
 1138 -114 1138 -114 977 -249.5 c 128,-1,20
 816 -385 816 -385 513 -385 c 0,21,22
 360 -385 360 -385 267.5 -342 c 128,-1,23
 175 -299 175 -299 175 -203 c 0,24,25
 175 -123 175 -123 231 -74 c 128,-1,26
 287 -25 287 -25 388 -25 c 0,27,28
 479 -25 479 -25 537 -63.5 c 128,-1,29
 595 -102 595 -102 595 -174 c 0,30,31
 595 -290 595 -290 462 -346 c 1,32,33
 482 -350 482 -350 509 -350 c 0,34,35
 565 -350 565 -350 602.5 -317.5 c 128,-1,36
 640 -285 640 -285 670 -217 c 128,-1,37
 700 -149 700 -149 736 -27 c 1,38,0
 397 -27 397 -27 241 104 c 128,-1,1
785.5 359 m 128,-1,40
 769 214 769 214 769 137 c 0,41,42
 769 98 769 98 773 98 c 0,43,44
 825 291 825 291 964.5 814.5 c 128,-1,45
 1104 1338 1104 1338 1107 1343 c 1,46,47
 1099 1343 1099 1343 1057.5 1259.5 c 128,-1,48
 1016 1176 1016 1176 962 1044.5 c 128,-1,49
 908 913 908 913 863 770 c 1,50,51
 724 770 724 770 596 760 c 128,-1,52
 468 750 468 750 385.5 737.5 c 128,-1,53
 303 725 303 725 302 719 c 0,54,55
 301 711 301 711 375.5 699.5 c 128,-1,56
 450 688 450 688 573.5 679 c 128,-1,57
 697 670 697 670 837 670 c 1,58,39
 802 504 802 504 785.5 359 c 128,-1,40
EndSplineSet
Substitution2: "'smcp' Lowercase to Small Capitals lookup 24 subtable" paragraph.smcp
Substitution2: "'c2sc' Capitals to Small Capitals lookup 23 subtable" paragraph.smcp
Substitution2: "'aalt' Access All Alternates lookup 0 subtable" paragraph.smcp
EndChar
StartChar: cedilla
Encoding: 184 184 794
Width: 467
Flags: W
LayerCount: 2
Back
Fore
SplineSet
287 -113 m 0,1,2
 352 -113 352 -113 393 -135 c 128,-1,3
 434 -157 434 -157 434 -201 c 0,4,5
 434 -265 434 -265 378 -306 c 128,-1,6
 322 -347 322 -347 233 -366 c 128,-1,7
 144 -385 144 -385 43 -385 c 0,8,9
 -67 -385 -67 -385 -154 -348 c 1,10,-1
 -141 -315 l 1,11,12
 -81 -336 -81 -336 -16 -336 c 0,13,14
 43 -336 43 -336 97.5 -318 c 128,-1,15
 152 -300 152 -300 152 -250 c 0,16,17
 152 -228 152 -228 136 -215.5 c 128,-1,18
 120 -203 120 -203 94 -203 c 0,19,20
 59 -203 59 -203 31 -217 c 1,21,-1
 203 0 l 1,22,-1
 262 0 l 1,23,-1
 160 -137 l 1,24,0
 234 -113 234 -113 287 -113 c 0,1,2
EndSplineSet
Substitution2: "'case' Case-Sensitive Forms lookup 25 subtable" cedilla.case
Substitution2: "'smcp' Lowercase to Small Capitals lookup 24 subtable" cedilla.smcp
Substitution2: "'c2sc' Capitals to Small Capitals lookup 23 subtable" cedilla.smcp
AlternateSubs2: "'aalt' Access All Alternates lookup 1 subtable" cedilla.smcp cedilla.case
EndChar
StartChar: ordmasculine
Encoding: 186 186 422
Width: 1116
GlyphClass: 2
Flags: W
LayerCount: 2
Back
Fore
SplineSet
280.5 1218.5 m 128,-1,1
 349 1328 349 1328 480 1403.5 c 128,-1,2
 611 1479 611 1479 790 1479 c 0,3,4
 967 1479 967 1479 1067.5 1409.5 c 128,-1,5
 1168 1340 1168 1340 1168 1202 c 0,6,7
 1168 1107 1168 1107 1100 998 c 128,-1,8
 1032 889 1032 889 901 814 c 128,-1,9
 770 739 770 739 591 739 c 0,10,11
 413 739 413 739 312.5 808 c 128,-1,12
 212 877 212 877 212 1014 c 0,13,0
 212 1109 212 1109 280.5 1218.5 c 128,-1,1
671.5 1356.5 m 128,-1,15
 616 1271 616 1271 580 1142.5 c 128,-1,16
 544 1014 544 1014 544 895 c 256,17,18
 544 776 544 776 601 776 c 0,19,20
 654 776 654 776 709.5 861 c 128,-1,21
 765 946 765 946 801 1074.5 c 128,-1,22
 837 1203 837 1203 837 1323 c 0,23,24
 837 1442 837 1442 779 1442 c 0,25,14
 727 1442 727 1442 671.5 1356.5 c 128,-1,15
EndSplineSet
EndChar
StartChar: guillemotright
Encoding: 187 187 658
Width: 1292
Flags: W
LayerCount: 2
Back
Fore
SplineSet
968 793.5 m 128,-1,1
 1086 662 1086 662 1227 551 c 1,2,-1
 1217 510 l 1,3,4
 1026 400 1026 400 851 271.5 c 128,-1,5
 676 143 676 143 469 -29 c 1,6,-1
 432 -29 l 1,7,8
 472 56 472 56 540.5 167.5 c 128,-1,9
 609 279 609 279 683 378.5 c 128,-1,10
 757 478 757 478 813 530 c 1,11,12
 782 583 782 583 753.5 683.5 c 128,-1,13
 725 784 725 784 708 896 c 128,-1,14
 691 1008 691 1008 692 1092 c 1,15,-1
 729 1092 l 1,16,0
 850 925 850 925 968 793.5 c 128,-1,1
484.5 749.5 m 128,-1,18
 583 642 583 642 702 551 c 1,19,-1
 692 510 l 1,20,21
 529 417 529 417 377 307 c 128,-1,22
 225 197 225 197 49 53 c 1,23,-1
 12 53 l 1,24,25
 56 161 56 161 149.5 310 c 128,-1,26
 243 459 243 459 309 530 c 1,27,28
 288 576 288 576 268 662 c 128,-1,29
 248 748 248 748 237 843.5 c 128,-1,30
 226 939 226 939 229 1010 c 1,31,-1
 266 1010 l 1,32,17
 386 857 386 857 484.5 749.5 c 128,-1,18
EndSplineSet
Substitution2: "'case' Case-Sensitive Forms lookup 25 subtable" guillemotright.case
Substitution2: "'smcp' Lowercase to Small Capitals lookup 24 subtable" guillemotright.smcp
Substitution2: "'c2sc' Capitals to Small Capitals lookup 23 subtable" guillemotright.smcp
AlternateSubs2: "'aalt' Access All Alternates lookup 1 subtable" guillemotright.smcp guillemotright.case
EndChar
StartChar: questiondown
Encoding: 191 191 683
Width: 1057
Flags: W
LayerCount: 2
Back
Fore
SplineSet
470 986.5 m 128,-1,1
 500 1036 500 1036 552 1064 c 128,-1,2
 604 1092 604 1092 669 1092 c 0,3,4
 748 1092 748 1092 789.5 1056.5 c 128,-1,5
 831 1021 831 1021 831 952 c 0,6,7
 831 898 831 898 800 849 c 128,-1,8
 769 800 769 800 716 769.5 c 128,-1,9
 663 739 663 739 600 739 c 0,10,11
 521 739 521 739 480.5 773.5 c 128,-1,12
 440 808 440 808 440 874 c 0,13,0
 440 937 440 937 470 986.5 c 128,-1,1
598 -315 m 1,15,16
 527 -307 527 -307 478.5 -263 c 128,-1,17
 430 -219 430 -219 430 -156 c 0,18,19
 430 -111 430 -111 455.5 -74 c 128,-1,20
 481 -37 481 -37 523.5 -16.5 c 128,-1,21
 566 4 566 4 616 4 c 0,22,23
 686 4 686 4 736 -36 c 128,-1,24
 786 -76 786 -76 786 -152 c 0,25,26
 786 -239 786 -239 718.5 -291 c 128,-1,27
 651 -343 651 -343 551 -364 c 128,-1,28
 451 -385 451 -385 342 -385 c 0,29,30
 210 -385 210 -385 111.5 -355.5 c 128,-1,31
 13 -326 13 -326 -40.5 -270 c 128,-1,32
 -94 -214 -94 -214 -94 -137 c 0,33,34
 -94 -78 -94 -78 -61 -29 c 128,-1,35
 -28 20 -28 20 32 67 c 128,-1,36
 92 114 92 114 213 195 c 0,37,38
 311 261 311 261 363 302.5 c 128,-1,39
 415 344 415 344 443 388 c 128,-1,40
 471 432 471 432 471 485 c 0,41,42
 471 602 471 602 340 602 c 0,43,44
 273 602 273 602 223 582 c 1,45,46
 256 580 256 580 286.5 562.5 c 128,-1,47
 317 545 317 545 336.5 514.5 c 128,-1,48
 356 484 356 484 356 446 c 0,49,50
 356 406 356 406 333.5 374 c 128,-1,51
 311 342 311 342 272 323.5 c 128,-1,52
 233 305 233 305 184 305 c 0,53,54
 120 305 120 305 80.5 338 c 128,-1,55
 41 371 41 371 41 432 c 0,56,57
 41 512 41 512 107 560.5 c 128,-1,58
 173 609 173 609 268.5 629 c 128,-1,59
 364 649 364 649 461 649 c 0,60,61
 575 649 575 649 667 623 c 128,-1,62
 759 597 759 597 812.5 547 c 128,-1,63
 866 497 866 497 866 428 c 0,64,65
 866 367 866 367 825 311 c 128,-1,66
 784 255 784 255 725.5 209.5 c 128,-1,67
 667 164 667 164 575 102 c 0,68,69
 467 30 467 30 413 -12 c 128,-1,70
 359 -54 359 -54 330 -97 c 128,-1,71
 301 -140 301 -140 301 -193 c 0,72,73
 301 -263 301 -263 347.5 -298.5 c 128,-1,74
 394 -334 394 -334 469 -334 c 0,75,14
 549 -334 549 -334 598 -315 c 1,15,16
EndSplineSet
Substitution2: "'case' Case-Sensitive Forms lookup 25 subtable" questiondown.case
Substitution2: "'smcp' Lowercase to Small Capitals lookup 24 subtable" questiondown.smcp
Substitution2: "'c2sc' Capitals to Small Capitals lookup 23 subtable" questiondown.smcp
AlternateSubs2: "'aalt' Access All Alternates lookup 1 subtable" questiondown.smcp questiondown.case
EndChar
StartChar: AE
Encoding: 198 198 12
Width: 1864
GlyphClass: 2
Flags: W
AnchorPoint: "Anchor-5" 0 0 basechar 0
AnchorPoint: "Anchor-4" 1118 1450 basechar 0
AnchorPoint: "Anchor-3" 0 0 basechar 0
LayerCount: 2
Back
Fore
SplineSet
1974 1450 m 1,1,2
 1951 1387 1951 1387 1910 1254 c 2,3,-1
 1896 1208 l 2,4,5
 1878 1147 1878 1147 1870 1081 c 1,6,-1
 1825 1081 l 1,7,8
 1840 1167 1840 1167 1840 1226 c 0,9,10
 1840 1322 1840 1322 1797.5 1362.5 c 128,-1,11
 1755 1403 1755 1403 1659 1403 c 2,12,-1
 1571 1403 l 2,13,14
 1500 1403 1500 1403 1464.5 1391 c 128,-1,15
 1429 1379 1429 1379 1407.5 1344.5 c 128,-1,16
 1386 1310 1386 1310 1366 1233 c 2,17,-1
 1238 750 l 1,18,-1
 1356 750 l 2,19,20
 1414 750 1414 750 1452.5 780.5 c 128,-1,21
 1491 811 1491 811 1514.5 856.5 c 128,-1,22
 1538 902 1538 902 1567 979 c 1,23,-1
 1612 979 l 1,24,25
 1589 910 1589 910 1558 791 c 2,26,-1
 1542 729 l 2,27,28
 1517 637 1517 637 1489 479 c 1,29,-1
 1444 479 l 1,30,31
 1444 490 1444 490 1449 542 c 0,32,33
 1454 579 1454 579 1454 605 c 0,34,35
 1454 651 1454 651 1431.5 678 c 128,-1,36
 1409 705 1409 705 1348 709 c 1,37,-1
 1227 709 l 1,38,-1
 1096 217 l 2,39,40
 1078 147 1078 147 1078 117 c 0,41,42
 1078 88 1078 88 1091.5 73 c 128,-1,43
 1105 58 1105 58 1133 52.5 c 128,-1,44
 1161 47 1161 47 1212 47 c 2,45,-1
 1321 47 l 2,46,47
 1420 47 1420 47 1483.5 81 c 128,-1,48
 1547 115 1547 115 1593 192 c 128,-1,49
 1639 269 1639 269 1688 410 c 1,50,-1
 1733 410 l 1,51,52
 1716 368 1716 368 1690 262 c 1,53,54
 1658 154 1658 154 1636 0 c 1,55,56
 1497 6 1497 6 1174 6 c 0,57,58
 698 6 698 6 461 0 c 1,59,-1
 469 41 l 1,60,61
 543 44 543 44 579.5 57 c 128,-1,62
 616 70 616 70 638 105 c 128,-1,63
 660 140 660 140 680 217 c 2,64,-1
 811 709 l 1,65,-1
 488 709 l 1,66,-1
 61 193 l 2,67,68
 3 125 3 125 3 96 c 0,69,70
 3 51 3 51 129 41 c 1,71,-1
 129 0 l 1,72,73
 74 6 74 6 -47 6 c 0,74,75
 -136 6 -136 6 -184 0 c 1,76,-1
 -184 41 l 1,77,78
 -121 44 -121 44 -8 172 c 1,79,-1
 966 1351 l 1,80,81
 960 1382 960 1382 929 1394 c 128,-1,82
 898 1406 898 1406 829 1409 c 1,83,-1
 840 1450 l 1,84,85
 904 1448 904 1448 1044 1446 c 1,86,-1
 1157 1583 l 1,87,-1
 1210 1583 l 1,88,-1
 1097 1446 l 1,89,90
 1274 1444 1274 1444 1550 1444 c 0,91,0
 1845 1444 1845 1444 1974 1450 c 1,1,2
950 1233 m 2,92,93
 957 1257 957 1257 962 1282 c 1,94,-1
 521 750 l 1,95,-1
 822 750 l 1,96,-1
 950 1233 l 2,92,93
EndSplineSet
Substitution2: "'c2sc' Capitals to Small Capitals lookup 23 subtable" ae.smcp
Substitution2: "'aalt' Access All Alternates lookup 0 subtable" ae.smcp
Position2: "'cpsp' Capital Spacing lookup 0 subtable" dx=20 dy=0 dh=20 dv=0
EndChar
StartChar: Ccedilla
Encoding: 199 199 17
Width: 1450
GlyphClass: 2
Flags: W
AnchorPoint: "Anchor-5" 688 0 basechar 0
AnchorPoint: "Anchor-4" 1038 1450 basechar 0
AnchorPoint: "Anchor-3" 0 0 basechar 0
LayerCount: 2
Back
Fore
SplineSet
1441 979 m 1,1,-1
 1396 979 l 1,2,3
 1416 1097 1416 1097 1416 1156 c 0,4,5
 1416 1246 1416 1246 1381 1305 c 0,6,7
 1343 1370 1343 1370 1289 1395.5 c 128,-1,8
 1235 1421 1235 1421 1156 1421 c 0,9,10
 995 1421 995 1421 854.5 1287.5 c 128,-1,11
 714 1154 714 1154 630 932 c 128,-1,12
 546 710 546 710 546 457 c 0,13,14
 546 250 546 250 616.5 149.5 c 128,-1,15
 687 49 687 49 814 49 c 0,16,17
 883 49 883 49 955.5 80.5 c 128,-1,18
 1028 112 1028 112 1080 168 c 0,19,20
 1134 226 1134 226 1174 297 c 128,-1,21
 1214 368 1214 368 1265 492 c 1,22,-1
 1310 492 l 1,23,24
 1213 137 1213 137 1189 0 c 1,25,-1
 1144 0 l 1,26,27
 1150 44 1150 44 1150 70 c 0,28,29
 1150 122 1150 122 1124 122 c 0,30,31
 1108 122 1108 122 1082 104 c 0,32,33
 904 -20 904 -20 701 -28 c 1,34,-1
 662 -117 l 1,35,36
 724 -92 724 -92 789 -92 c 0,37,38
 862 -92 862 -92 904.5 -119 c 128,-1,39
 947 -146 947 -146 947 -201 c 0,40,41
 947 -265 947 -265 894 -306 c 128,-1,42
 841 -347 841 -347 756.5 -366 c 128,-1,43
 672 -385 672 -385 576 -385 c 0,44,45
 507 -385 507 -385 443.5 -373.5 c 128,-1,46
 380 -362 380 -362 339 -348 c 1,47,-1
 351 -315 l 1,48,49
 374 -321 374 -321 425.5 -328.5 c 128,-1,50
 477 -336 477 -336 517 -336 c 0,51,52
 685 -336 685 -336 685 -250 c 0,53,54
 685 -203 685 -203 628 -203 c 0,55,56
 596 -203 596 -203 564 -217 c 1,57,-1
 646 -29 l 1,58,59
 354 -22 354 -22 214.5 113 c 128,-1,60
 75 248 75 248 75 496 c 0,61,62
 75 742 75 742 210.5 969 c 128,-1,63
 346 1196 346 1196 584 1337.5 c 128,-1,64
 822 1479 822 1479 1113 1479 c 0,65,66
 1225 1479 1225 1479 1294 1443.5 c 128,-1,67
 1363 1408 1363 1408 1416 1346 c 0,68,69
 1431 1328 1431 1328 1446 1328 c 0,70,71
 1484 1328 1484 1328 1529 1450 c 1,72,-1
 1572 1450 l 1,73,0
 1504 1273 1504 1273 1441 979 c 1,1,-1
EndSplineSet
Substitution2: "'c2sc' Capitals to Small Capitals lookup 23 subtable" ccedilla.smcp
Substitution2: "'aalt' Access All Alternates lookup 0 subtable" ccedilla.smcp
Position2: "'cpsp' Capital Spacing lookup 0 subtable" dx=20 dy=0 dh=20 dv=0
EndChar
StartChar: Eth
Encoding: 208 208 21
Width: 1642
GlyphClass: 2
Flags: W
AnchorPoint: "Anchor-5" 0 0 basechar 0
AnchorPoint: "Anchor-4" 956 1450 basechar 0
AnchorPoint: "Anchor-3" 0 0 basechar 0
LayerCount: 2
Back
Fore
SplineSet
1451 1320 m 128,-1,1
 1620 1190 1620 1190 1620 936 c 0,2,3
 1620 714 1620 714 1513.5 499.5 c 128,-1,4
 1407 285 1407 285 1174 142.5 c 128,-1,5
 941 0 941 0 584 0 c 0,6,7
 565 0 565 0 491 2 c 0,8,9
 377 6 377 6 260 6 c 0,10,11
 35 6 35 6 -88 0 c 1,12,-1
 -82 41 l 1,13,14
 -12 44 -12 44 23.5 57 c 128,-1,15
 59 70 59 70 81 105.5 c 128,-1,16
 103 141 103 141 123 217 c 2,17,-1
 252 706 l 1,18,-1
 112 706 l 1,19,-1
 125 758 l 1,20,-1
 266 758 l 1,21,-1
 391 1233 l 2,22,23
 404 1282 404 1282 404 1313 c 0,24,25
 404 1357 404 1357 374.5 1381 c 128,-1,26
 345 1405 345 1405 272 1409 c 1,27,-1
 279 1450 l 1,28,29
 442 1443 442 1443 597 1443 c 2,30,-1
 672 1444 l 2,31,32
 843 1450 843 1450 975 1450 c 0,33,0
 1282 1450 1282 1450 1451 1320 c 128,-1,1
916.5 186.5 m 128,-1,35
 1053 336 1053 336 1125.5 562.5 c 128,-1,36
 1198 789 1198 789 1198 1010 c 0,37,38
 1198 1413 1198 1413 938 1413 c 0,39,40
 894 1413 894 1413 874.5 1403 c 128,-1,41
 855 1393 855 1393 844 1365.5 c 128,-1,42
 833 1338 833 1338 814 1264 c 2,43,-1
 807 1237 l 1,44,-1
 682 758 l 1,45,-1
 1009 758 l 1,46,-1
 997 706 l 1,47,-1
 668 706 l 1,48,-1
 539 213 l 2,49,50
 514 120 514 120 514 91 c 0,51,52
 514 61 514 61 533 49 c 128,-1,53
 552 37 552 37 600 37 c 0,54,34
 780 37 780 37 916.5 186.5 c 128,-1,35
EndSplineSet
Substitution2: "'c2sc' Capitals to Small Capitals lookup 23 subtable" eth.smcp
Substitution2: "'aalt' Access All Alternates lookup 0 subtable" eth.smcp
Position2: "'cpsp' Capital Spacing lookup 0 subtable" dx=20 dy=0 dh=20 dv=0
EndChar
StartChar: multiply
Encoding: 215 215 736
Width: 993
Flags: W
LayerCount: 2
Back
Fore
SplineSet
226 1085 m 1,0,-1
 280 1122 l 1,1,-1
 531 764 l 1,2,-1
 996 1126 l 1,3,-1
 1029 1081 l 1,4,-1
 564 721 l 1,5,-1
 820 367 l 1,6,-1
 769 330 l 1,7,-1
 515 684 l 1,8,-1
 56 328 l 1,9,-1
 26 373 l 1,10,-1
 482 727 l 1,11,-1
 226 1085 l 1,0,-1
EndSplineSet
EndChar
StartChar: Oslash
Encoding: 216 216 80
Width: 1657
GlyphClass: 2
Flags: W
AnchorPoint: "Anchor-5" 686 0 basechar 0
AnchorPoint: "Anchor-4" 829 1450 basechar 0
AnchorPoint: "Anchor-3" 0 0 basechar 0
LayerCount: 2
Back
Fore
SplineSet
1652 985 m 0,1,2
 1652 754 1652 754 1526.5 517.5 c 128,-1,3
 1401 281 1401 281 1176.5 126 c 128,-1,4
 952 -29 952 -29 673 -29 c 0,5,6
 424 -29 424 -29 268 72 c 1,7,-1
 52 -150 l 1,8,-1
 17 -121 l 1,9,-1
 232 98 l 1,10,11
 69 228 69 228 69 463 c 0,12,13
 69 695 69 695 193.5 932 c 128,-1,14
 318 1169 318 1169 542 1324 c 128,-1,15
 766 1479 766 1479 1046 1479 c 0,16,17
 1291 1479 1291 1479 1446 1381 c 1,18,-1
 1639 1583 l 1,19,-1
 1670 1556 l 1,20,-1
 1481 1357 l 1,21,0
 1652 1226 1652 1226 1652 985 c 0,1,2
778 1294.5 m 128,-1,23
 658 1147 658 1147 584.5 913 c 128,-1,24
 511 679 511 679 511 436 c 0,25,26
 511 384 511 384 516 326 c 1,27,-1
 1201 1142 l 1,28,29
 1185 1284 1185 1284 1139 1363 c 128,-1,30
 1093 1442 1093 1442 1027 1442 c 0,31,22
 898 1442 898 1442 778 1294.5 c 128,-1,23
940 155.5 m 128,-1,33
 1060 303 1060 303 1133.5 537 c 128,-1,34
 1207 771 1207 771 1207 1014 c 0,35,36
 1207 1038 1207 1038 1205 1082 c 1,37,-1
 523 267 l 1,38,39
 542 144 542 144 586.5 76 c 128,-1,40
 631 8 631 8 691 8 c 0,41,32
 820 8 820 8 940 155.5 c 128,-1,33
EndSplineSet
Substitution2: "'c2sc' Capitals to Small Capitals lookup 23 subtable" oslash.smcp
Substitution2: "'aalt' Access All Alternates lookup 0 subtable" oslash.smcp
Position2: "'cpsp' Capital Spacing lookup 0 subtable" dx=20 dy=0 dh=20 dv=0
EndChar
StartChar: Thorn
Encoding: 222 222 84
Width: 1430
GlyphClass: 2
Flags: W
AnchorPoint: "Anchor-5" 266 0 basechar 0
AnchorPoint: "Anchor-4" 705 1450 basechar 0
AnchorPoint: "Anchor-3" 610 0 basechar 0
LayerCount: 2
Back
Fore
SplineSet
519 117 m 256,1,2
 519 87 519 87 532.5 71.5 c 128,-1,3
 546 56 546 56 575 49.5 c 128,-1,4
 604 43 604 43 657 41 c 1,5,-1
 649 0 l 1,6,7
 517 6 517 6 266 6 c 0,8,9
 24 6 24 6 -96 0 c 1,10,-1
 -86 41 l 1,11,12
 -15 44 -15 44 21 57 c 128,-1,13
 57 70 57 70 79 105.5 c 128,-1,14
 101 141 101 141 121 217 c 2,15,-1
 391 1233 l 2,16,17
 408 1298 408 1298 408 1331 c 0,18,19
 408 1362 408 1362 394.5 1378 c 128,-1,20
 381 1394 381 1394 352 1400.5 c 128,-1,21
 323 1407 323 1407 270 1409 c 1,22,-1
 281 1450 l 1,23,24
 394 1444 394 1444 643 1444 c 0,25,26
 875 1444 875 1444 1028 1450 c 1,27,-1
 1018 1409 l 1,28,29
 943 1406 943 1406 906.5 1393 c 128,-1,30
 870 1380 870 1380 848.5 1345 c 128,-1,31
 827 1310 827 1310 807 1233 c 2,32,-1
 781 1135 l 1,33,34
 865 1137 865 1137 907 1137 c 0,35,36
 1084 1137 1084 1137 1202.5 1099 c 128,-1,37
 1321 1061 1321 1061 1379.5 991.5 c 128,-1,38
 1438 922 1438 922 1438 827 c 0,39,40
 1438 669 1438 669 1326 542.5 c 128,-1,41
 1214 416 1214 416 1012.5 343.5 c 128,-1,42
 811 271 811 271 551 270 c 1,43,-1
 537 217 l 2,44,0
 519 147 519 147 519 117 c 256,1,2
771 1098 m 1,45,-1
 562 311 l 1,46,-1
 563 311 l 2,47,48
 705 311 705 311 805 389.5 c 128,-1,49
 905 468 905 468 955.5 593.5 c 128,-1,50
 1006 719 1006 719 1006 860 c 0,51,52
 1006 928 1006 928 982.5 982 c 128,-1,53
 959 1036 959 1036 914 1067 c 128,-1,54
 869 1098 869 1098 807 1098 c 2,55,-1
 771 1098 l 1,45,-1
EndSplineSet
Substitution2: "'c2sc' Capitals to Small Capitals lookup 23 subtable" thorn.smcp
Substitution2: "'aalt' Access All Alternates lookup 0 subtable" thorn.smcp
Position2: "'cpsp' Capital Spacing lookup 0 subtable" dx=20 dy=0 dh=20 dv=0
EndChar
StartChar: germandbls
Encoding: 223 223 232
Width: 1327
GlyphClass: 2
Flags: W
LayerCount: 2
Back
Fore
SplineSet
750 1504 m 128,-1,1
 705 1437 705 1437 670 1303 c 2,2,-1
 233 -356 l 1,3,4
 21 -359 21 -359 -135 -385 c 1,5,-1
 246 1055 l 2,6,7
 296 1248 296 1248 376.5 1367 c 128,-1,8
 457 1486 457 1486 584.5 1544 c 128,-1,9
 712 1602 712 1602 903 1602 c 0,10,11
 1058 1602 1058 1602 1159 1573.5 c 128,-1,12
 1260 1545 1260 1545 1306 1499.5 c 128,-1,13
 1352 1454 1352 1454 1352 1401 c 0,14,15
 1352 1351 1352 1351 1325.5 1312 c 128,-1,16
 1299 1273 1299 1273 1256.5 1241.5 c 128,-1,17
 1214 1210 1214 1210 1129 1155 c 0,18,19
 1008 1080 1008 1080 920 1012 c 0,20,21
 864 968 864 968 837 940 c 128,-1,22
 810 912 810 912 803.5 896.5 c 128,-1,23
 797 881 797 881 797 864 c 0,24,25
 797 825 797 825 822 786 c 128,-1,26
 847 747 847 747 883 713.5 c 128,-1,27
 919 680 919 680 979 631 c 2,28,-1
 1022 596 l 1,29,-1
 1047 575 l 2,30,31
 1114 520 1114 520 1149 485 c 128,-1,32
 1184 450 1184 450 1205.5 406.5 c 128,-1,33
 1227 363 1227 363 1227 307 c 0,34,35
 1227 196 1227 196 1161 120 c 128,-1,36
 1095 44 1095 44 987.5 7.5 c 128,-1,37
 880 -29 880 -29 754 -29 c 0,38,39
 658 -29 658 -29 590.5 3.5 c 128,-1,40
 523 36 523 36 489 92 c 128,-1,41
 455 148 455 148 455 219 c 0,42,43
 455 268 455 268 473 311 c 128,-1,44
 491 354 491 354 524 380 c 128,-1,45
 557 406 557 406 600 406 c 0,46,47
 641 406 641 406 673 380.5 c 128,-1,48
 705 355 705 355 723 310 c 128,-1,49
 741 265 741 265 741 209 c 0,50,51
 741 156 741 156 722 101.5 c 128,-1,52
 703 47 703 47 670 16 c 1,53,54
 682 12 682 12 698 12 c 0,55,56
 729 12 729 12 754.5 36.5 c 128,-1,57
 780 61 780 61 794.5 105 c 128,-1,58
 809 149 809 149 809 203 c 0,59,60
 809 258 809 258 800 301.5 c 128,-1,61
 791 345 791 345 770 419 c 0,62,63
 768 426 768 426 765.5 434.5 c 128,-1,64
 763 443 763 443 760 453 c 0,65,66
 756 466 756 466 752 478 c 128,-1,67
 748 490 748 490 745 501 c 0,68,69
 720 582 720 582 706 638.5 c 128,-1,70
 692 695 692 695 692 743 c 256,71,72
 692 791 692 791 707 827.5 c 128,-1,73
 722 864 722 864 746.5 893.5 c 128,-1,74
 771 923 771 923 820 971 c 2,75,-1
 874 1026 l 2,76,77
 997 1153 997 1153 997 1389 c 0,78,79
 997 1483 997 1483 958 1527 c 128,-1,80
 919 1571 919 1571 860 1571 c 0,81,0
 795 1571 795 1571 750 1504 c 128,-1,1
EndSplineSet
Substitution2: "'smcp' Lowercase to Small Capitals lookup 24 subtable" germandbls.smcp
Substitution2: "'aalt' Access All Alternates lookup 0 subtable" germandbls.smcp
EndChar
StartChar: ae
Encoding: 230 230 144
Width: 1608
GlyphClass: 2
Flags: W
AnchorPoint: "Anchor-5" 0 0 basechar 0
AnchorPoint: "Anchor-4" 913 1053 basechar 0
AnchorPoint: "Anchor-3" 0 0 basechar 0
LayerCount: 2
Back
Fore
SplineSet
1529 696 m 128,-1,1
 1436 598 1436 598 1289 529 c 128,-1,2
 1142 460 1142 460 976 422 c 1,3,4
 969 359 969 359 969 317 c 0,5,6
 969 205 969 205 1012 162 c 128,-1,7
 1055 119 1055 119 1139 119 c 0,8,9
 1190 119 1190 119 1270.5 154 c 128,-1,10
 1351 189 1351 189 1425 262 c 1,11,-1
 1458 246 l 1,12,13
 1380 129 1380 129 1247 50 c 128,-1,14
 1114 -29 1114 -29 940 -29 c 0,15,16
 825 -29 825 -29 736 16 c 128,-1,17
 647 61 647 61 609 145 c 1,18,19
 538 60 538 60 437.5 15.5 c 128,-1,20
 337 -29 337 -29 229 -29 c 0,21,22
 102 -29 102 -29 38.5 36.5 c 128,-1,23
 -25 102 -25 102 -25 227 c 0,24,25
 -25 412 -25 412 105 605 c 128,-1,26
 235 798 235 798 436.5 924.5 c 128,-1,27
 638 1051 638 1051 838 1051 c 0,28,29
 951 1051 951 1051 992 983 c 1,30,31
 1168 1092 1168 1092 1368 1092 c 0,32,33
 1482 1092 1482 1092 1552 1046 c 128,-1,34
 1622 1000 1622 1000 1622 911 c 0,35,0
 1622 794 1622 794 1529 696 c 128,-1,1
1194.5 964 m 128,-1,37
 1123 875 1123 875 1063.5 736 c 128,-1,38
 1004 597 1004 597 981 457 c 1,39,40
 1106 517 1106 517 1165 571 c 0,41,42
 1257 654 1257 654 1306.5 764.5 c 128,-1,43
 1356 875 1356 875 1356 1001 c 0,44,45
 1356 1053 1356 1053 1323 1053 c 0,46,36
 1266 1053 1266 1053 1194.5 964 c 128,-1,37
632 524 m 128,-1,48
 678 656 678 656 763 770 c 128,-1,49
 848 884 848 884 961 962 c 1,50,51
 936 991 936 991 889 991 c 0,52,53
 778 991 778 991 653.5 882 c 128,-1,54
 529 773 529 773 444.5 599 c 128,-1,55
 360 425 360 425 360 240 c 0,56,57
 360 175 360 175 390 143 c 128,-1,58
 420 111 420 111 461 111 c 0,59,60
 498 111 498 111 529 125.5 c 128,-1,61
 560 140 560 140 597 178 c 1,62,63
 586 217 586 217 586 260 c 0,64,47
 586 392 586 392 632 524 c 128,-1,48
EndSplineSet
Substitution2: "'smcp' Lowercase to Small Capitals lookup 24 subtable" ae.smcp
Substitution2: "'aalt' Access All Alternates lookup 0 subtable" ae.smcp
EndChar
StartChar: ccedilla
Encoding: 231 231 149
Width: 991
GlyphClass: 2
Flags: W
AnchorPoint: "Anchor-5" 371 0 basechar 0
AnchorPoint: "Anchor-4" 680 1051 basechar 0
AnchorPoint: "Anchor-3" 0 0 basechar 0
LayerCount: 2
Back
Fore
SplineSet
672 874 m 128,-1,1
 701 930 701 930 748.5 969.5 c 128,-1,2
 796 1009 796 1009 852 1026 c 1,3,4
 824 1051 824 1051 782 1051 c 0,5,6
 683 1051 683 1051 591.5 941.5 c 128,-1,7
 500 832 500 832 443.5 659 c 128,-1,8
 387 486 387 486 387 307 c 0,9,10
 387 201 387 201 430.5 149.5 c 128,-1,11
 474 98 474 98 551 98 c 0,12,13
 616 98 616 98 676 135 c 128,-1,14
 736 172 736 172 797 262 c 1,15,-1
 838 246 l 1,16,17
 666 -23 666 -23 383 -29 c 1,18,-1
 302 -137 l 1,19,20
 376 -113 376 -113 429 -113 c 0,21,22
 494 -113 494 -113 535 -135 c 128,-1,23
 576 -157 576 -157 576 -201 c 0,24,25
 576 -265 576 -265 520 -306 c 128,-1,26
 464 -347 464 -347 375 -366 c 128,-1,27
 286 -385 286 -385 185 -385 c 0,28,29
 75 -385 75 -385 -12 -348 c 1,30,-1
 1 -315 l 1,31,32
 61 -336 61 -336 126 -336 c 0,33,34
 185 -336 185 -336 239.5 -318 c 128,-1,35
 294 -300 294 -300 294 -250 c 0,36,37
 294 -228 294 -228 278 -215.5 c 128,-1,38
 262 -203 262 -203 236 -203 c 0,39,40
 201 -203 201 -203 173 -217 c 1,41,-1
 323 -27 l 1,42,43
 177 -16 177 -16 90.5 65 c 128,-1,44
 4 146 4 146 4 295 c 0,45,46
 4 477 4 477 98.5 663 c 128,-1,47
 193 849 193 849 365 970.5 c 128,-1,48
 537 1092 537 1092 756 1092 c 0,49,50
 838 1092 838 1092 898.5 1063 c 128,-1,51
 959 1034 959 1034 990.5 985.5 c 128,-1,52
 1022 937 1022 937 1022 879 c 0,53,54
 1022 814 1022 814 989 751.5 c 128,-1,55
 956 689 956 689 900.5 649.5 c 128,-1,56
 845 610 845 610 782 610 c 0,57,58
 745 610 745 610 713.5 626.5 c 128,-1,59
 682 643 682 643 662.5 675.5 c 128,-1,60
 643 708 643 708 643 754 c 0,61,0
 643 818 643 818 672 874 c 128,-1,1
EndSplineSet
Substitution2: "'smcp' Lowercase to Small Capitals lookup 24 subtable" ccedilla.smcp
Substitution2: "'aalt' Access All Alternates lookup 0 subtable" ccedilla.smcp
EndChar
StartChar: eth
Encoding: 240 240 153
Width: 1139
GlyphClass: 2
Flags: W
LayerCount: 2
Back
Fore
SplineSet
1011 1123 m 128,-1,1
 1090 967 1090 967 1090 795 c 0,2,3
 1090 589 1090 589 1007 399.5 c 128,-1,4
 924 210 924 210 762 90.5 c 128,-1,5
 600 -29 600 -29 377 -29 c 0,6,7
 211 -29 211 -29 111.5 53.5 c 128,-1,8
 12 136 12 136 12 322 c 0,9,10
 12 486 12 486 89.5 664 c 128,-1,11
 167 842 167 842 310 961.5 c 128,-1,12
 453 1081 453 1081 637 1081 c 0,13,14
 672 1081 672 1081 693 1077 c 1,15,16
 670 1214 670 1214 616 1318 c 1,17,-1
 285 1171 l 1,18,-1
 272 1208 l 1,19,-1
 597 1352 l 1,20,21
 523 1478 523 1478 389 1567 c 1,22,-1
 414 1602 l 1,23,24
 606 1542 606 1542 758 1424 c 1,25,-1
 1057 1556 l 1,26,-1
 1069 1520 l 1,27,-1
 791 1398 l 1,28,0
 932 1279 932 1279 1011 1123 c 128,-1,1
566.5 147 m 128,-1,30
 631 282 631 282 670 482.5 c 128,-1,31
 709 683 709 683 709 862 c 0,32,33
 709 959 709 959 699 1036 c 1,34,35
 684 1040 684 1040 668 1040 c 0,36,37
 581 1040 581 1040 518.5 895.5 c 128,-1,38
 456 751 456 751 424.5 540.5 c 128,-1,39
 393 330 393 330 393 137 c 0,40,41
 393 82 393 82 396.5 56 c 128,-1,42
 400 30 400 30 408 21 c 128,-1,43
 416 12 416 12 432 12 c 0,44,29
 502 12 502 12 566.5 147 c 128,-1,30
EndSplineSet
Substitution2: "'smcp' Lowercase to Small Capitals lookup 24 subtable" eth.smcp
Substitution2: "'aalt' Access All Alternates lookup 0 subtable" eth.smcp
EndChar
StartChar: divide
Encoding: 247 247 726
Width: 1274
Flags: W
LayerCount: 2
Back
Fore
SplineSet
746 1101.5 m 128,-1,1
 789 1135 789 1135 835 1135 c 0,2,3
 874 1135 874 1135 898 1111.5 c 128,-1,4
 922 1088 922 1088 922 1052 c 0,5,6
 922 1039 922 1039 917 1022 c 0,7,8
 903 974 903 974 860 941.5 c 128,-1,9
 817 909 817 909 769 909 c 0,10,11
 731 909 731 909 707.5 931.5 c 128,-1,12
 684 954 684 954 684 990 c 0,13,14
 684 1004 684 1004 689 1022 c 0,15,0
 703 1068 703 1068 746 1101.5 c 128,-1,1
1191 758 m 1,16,-1
 1173 696 l 1,17,-1
 147 696 l 1,18,-1
 165 758 l 1,19,-1
 1191 758 l 1,16,-1
576 512 m 128,-1,21
 619 545 619 545 665 545 c 0,22,23
 704 545 704 545 728 522 c 128,-1,24
 752 499 752 499 752 463 c 0,25,26
 752 450 752 450 747 432 c 0,27,28
 733 384 733 384 690 350.5 c 128,-1,29
 647 317 647 317 599 317 c 0,30,31
 561 317 561 317 537.5 341 c 128,-1,32
 514 365 514 365 514 401 c 0,33,34
 514 414 514 414 519 432 c 0,35,20
 533 479 533 479 576 512 c 128,-1,21
EndSplineSet
EndChar
StartChar: oslash
Encoding: 248 248 216
Width: 1139
GlyphClass: 2
Flags: W
AnchorPoint: "Anchor-5" 369 0 basechar 0
AnchorPoint: "Anchor-4" 569 1053 basechar 0
AnchorPoint: "Anchor-3" 0 0 basechar 0
LayerCount: 2
Back
Fore
SplineSet
1035.5 954.5 m 128,-1,1
 1090 871 1090 871 1090 743 c 0,2,3
 1090 570 1090 570 1010 391 c 128,-1,4
 930 212 930 212 768.5 91.5 c 128,-1,5
 607 -29 607 -29 377 -29 c 0,6,7
 305 -29 305 -29 248 -14 c 1,8,-1
 139 -184 l 1,9,-1
 106 -166 l 1,10,-1
 210 -3 l 1,11,12
 113 33 113 33 62.5 115 c 128,-1,13
 12 197 12 197 12 319 c 0,14,15
 12 493 12 493 92 672 c 128,-1,16
 172 851 172 851 333 971.5 c 128,-1,17
 494 1092 494 1092 725 1092 c 0,18,19
 784 1092 784 1092 839 1081 c 1,20,-1
 942 1245 l 1,21,-1
 977 1229 l 1,22,-1
 876 1071 l 1,23,0
 981 1038 981 1038 1035.5 954.5 c 128,-1,1
580.5 916.5 m 128,-1,25
 500 782 500 782 434.5 584 c 128,-1,26
 369 386 369 386 355 208 c 1,27,-1
 749 968 l 1,28,29
 747 1017 747 1017 738 1034 c 128,-1,30
 729 1051 729 1051 715 1051 c 0,31,24
 661 1051 661 1051 580.5 916.5 c 128,-1,25
528.5 152.5 m 128,-1,33
 613 293 613 293 678 500.5 c 128,-1,34
 743 708 743 708 749 898 c 1,35,-1
 352 127 l 1,36,37
 352 64 352 64 361.5 38 c 128,-1,38
 371 12 371 12 391 12 c 0,39,32
 444 12 444 12 528.5 152.5 c 128,-1,33
EndSplineSet
Substitution2: "'smcp' Lowercase to Small Capitals lookup 24 subtable" oslash.smcp
Substitution2: "'aalt' Access All Alternates lookup 0 subtable" oslash.smcp
EndChar
StartChar: thorn
Encoding: 254 254 220
Width: 1241
GlyphClass: 2
Flags: W
LayerCount: 2
Back
Fore
SplineSet
1120 1006 m 128,-1,1
 1190 920 1190 920 1190 758 c 0,2,3
 1190 589 1190 589 1114 404.5 c 128,-1,4
 1038 220 1038 220 896.5 95.5 c 128,-1,5
 755 -29 755 -29 569 -29 c 0,6,7
 455 -29 455 -29 374 13 c 1,8,-1
 332 -137 l 2,9,10
 316 -196 316 -196 316 -227 c 0,11,12
 316 -285 316 -285 356 -305.5 c 128,-1,13
 396 -326 396 -326 485 -328 c 1,14,-1
 473 -371 l 1,15,-1
 404 -369 l 2,16,17
 227 -362 227 -362 117 -362 c 0,18,19
 11 -362 11 -362 -157 -369 c 0,20,21
 -201 -371 -201 -371 -213 -371 c 1,22,-1
 -201 -328 l 1,23,24
 -151 -328 -151 -328 -121 -316.5 c 128,-1,25
 -91 -305 -91 -305 -73 -278 c 128,-1,26
 -55 -251 -55 -251 -41 -201 c 2,27,-1
 324 1111 l 1,28,29
 270 988 270 988 200 889 c 128,-1,30
 130 790 130 790 31 682 c 1,31,-1
 8 709 l 1,32,33
 96 807 96 807 153 881.5 c 128,-1,34
 210 956 210 956 268 1064 c 128,-1,35
 326 1172 326 1172 384 1326 c 1,36,-1
 446 1550 l 1,37,38
 648 1568 648 1568 829 1628 c 1,39,-1
 613 861 l 1,40,41
 674 980 674 980 746.5 1036 c 128,-1,42
 819 1092 819 1092 909 1092 c 0,43,0
 1050 1092 1050 1092 1120 1006 c 128,-1,1
612 154.5 m 128,-1,45
 699 270 699 270 754 446 c 128,-1,46
 809 622 809 622 809 788 c 0,47,48
 809 858 809 858 803 894 c 128,-1,49
 797 930 797 930 786.5 942 c 128,-1,50
 776 954 776 954 760 954 c 0,51,52
 715 954 715 954 664 885 c 128,-1,53
 613 816 613 816 568 702 c 1,54,-1
 384 47 l 1,55,56
 410 39 410 39 436 39 c 0,57,44
 525 39 525 39 612 154.5 c 128,-1,45
EndSplineSet
Substitution2: "'smcp' Lowercase to Small Capitals lookup 24 subtable" thorn.smcp
Substitution2: "'aalt' Access All Alternates lookup 0 subtable" thorn.smcp
EndChar
StartChar: Aogonek
Encoding: 260 260 9
Width: 1370
GlyphClass: 2
Flags: W
AnchorPoint: "Anchor-5" 0 0 basechar 0
AnchorPoint: "Anchor-4" 967 1450 basechar 0
AnchorPoint: "Anchor-3" 1110 0 basechar 0
LayerCount: 2
Back
Fore
SplineSet
1012.5 -62.5 m 128,-1,1
 969 -102 969 -102 947.5 -145 c 128,-1,2
 926 -188 926 -188 926 -227 c 0,3,4
 926 -281 926 -281 985 -281 c 0,5,6
 1047 -281 1047 -281 1131 -242 c 1,7,-1
 1153 -276 l 1,8,9
 998 -385 998 -385 832 -385 c 0,10,11
 746 -385 746 -385 695.5 -352 c 128,-1,12
 645 -319 645 -319 645 -260 c 0,13,14
 645 -172 645 -172 768 -104.5 c 128,-1,15
 891 -37 891 -37 1080 4 c 1,16,17
 946 6 946 6 879 6 c 0,18,19
 641 6 641 6 530 0 c 1,20,-1
 539 41 l 1,21,22
 605 44 605 44 642 56.5 c 128,-1,23
 679 69 679 69 697.5 99.5 c 128,-1,24
 716 130 716 130 716 187 c 0,25,26
 716 204 716 204 715 213 c 2,27,-1
 697 549 l 1,28,-1
 295 549 l 1,29,-1
 96 268 l 2,30,31
 48 198 48 198 48 151 c 0,32,33
 48 55 48 55 236 41 c 1,34,-1
 227 0 l 1,35,36
 15 6 15 6 -63 6 c 0,37,38
 -133 6 -133 6 -197 0 c 1,39,-1
 -188 41 l 1,40,41
 -148 52 -148 52 -114 77.5 c 128,-1,42
 -80 103 -80 103 -40.5 150.5 c 128,-1,43
 -1 198 -1 198 61 285 c 2,44,-1
 897 1460 l 1,45,46
 937 1455 937 1455 975 1455 c 256,47,48
 1013 1455 1013 1455 1051 1460 c 1,49,-1
 1133 172 l 2,50,51
 1138 105 1138 105 1167 74 c 128,-1,52
 1196 43 1196 43 1233 41 c 1,53,-1
 1225 0 l 1,54,55
 1141 3 1141 3 1118 3 c 1,56,0
 1056 -23 1056 -23 1012.5 -62.5 c 128,-1,1
670 1079 m 1,57,-1
 324 590 l 1,58,-1
 695 590 l 1,59,-1
 670 1079 l 1,57,-1
EndSplineSet
Substitution2: "'c2sc' Capitals to Small Capitals lookup 23 subtable" aogonek.smcp
Substitution2: "'aalt' Access All Alternates lookup 0 subtable" aogonek.smcp
Position2: "'cpsp' Capital Spacing lookup 0 subtable" dx=20 dy=0 dh=20 dv=0
EndChar
StartChar: aogonek
Encoding: 261 261 141
Width: 1192
GlyphClass: 2
Flags: W
AnchorPoint: "Anchor-5" 0 0 basechar 0
AnchorPoint: "Anchor-4" 754 1053 basechar 0
AnchorPoint: "Anchor-3" 899 0 basechar 0
LayerCount: 2
Back
Fore
SplineSet
1106 332 m 1,0,-1
 1055 182 l 2,1,2
 1002 32 1002 32 875 -12 c 1,3,4
 797 -53 797 -53 756 -113.5 c 128,-1,5
 715 -174 715 -174 715 -231 c 0,6,7
 715 -281 715 -281 762 -281 c 0,8,9
 790 -281 790 -281 822.5 -263.5 c 128,-1,10
 855 -246 855 -246 883 -219 c 1,11,-1
 913 -246 l 1,12,13
 797 -385 797 -385 620 -385 c 0,14,15
 535 -385 535 -385 484.5 -352 c 128,-1,16
 434 -319 434 -319 434 -260 c 0,17,18
 434 -189 434 -189 518 -130 c 128,-1,19
 602 -71 602 -71 741 -28 c 1,20,21
 632 -24 632 -24 584 43 c 0,22,23
 550 91 550 91 550 169 c 0,24,25
 550 192 550 192 551 205 c 1,26,27
 502 78 502 78 424 24.5 c 128,-1,28
 346 -29 346 -29 240 -29 c 0,29,30
 113 -29 113 -29 49.5 36.5 c 128,-1,31
 -14 102 -14 102 -14 227 c 0,32,33
 -14 420 -14 420 89 622.5 c 128,-1,34
 192 825 192 825 347 958.5 c 128,-1,35
 502 1092 502 1092 643 1092 c 0,36,37
 759 1092 759 1092 771 974 c 1,38,-1
 797 1061 l 1,39,40
 1000 1064 1000 1064 1167 1092 c 1,41,-1
 891 174 l 2,42,43
 882 147 882 147 882 124 c 0,44,45
 882 88 882 88 915 88 c 0,46,47
 976 88 976 88 1024 217 c 2,48,-1
 1067 332 l 1,49,-1
 1106 332 l 1,0,-1
499 168.5 m 128,-1,51
 540 226 540 226 590 374 c 1,52,-1
 750 904 l 1,53,54
 752 926 752 926 752 934 c 0,55,56
 752 991 752 991 713 991 c 0,57,58
 655 991 655 991 572.5 872.5 c 128,-1,59
 490 754 490 754 430.5 574 c 128,-1,60
 371 394 371 394 371 219 c 0,61,62
 371 159 371 159 381 135 c 128,-1,63
 391 111 391 111 418 111 c 0,64,50
 458 111 458 111 499 168.5 c 128,-1,51
EndSplineSet
Substitution2: "'smcp' Lowercase to Small Capitals lookup 24 subtable" aogonek.smcp
Substitution2: "'aalt' Access All Alternates lookup 0 subtable" aogonek.smcp
EndChar
StartChar: dcroat
Encoding: 273 273 155
Width: 1235
GlyphClass: 2
Flags: W
LayerCount: 2
Back
Fore
SplineSet
932 126 m 0,1,2
 932 88 932 88 967 88 c 0,3,4
 1027 88 1027 88 1075 217 c 2,5,-1
 1118 332 l 1,6,-1
 1157 332 l 1,7,-1
 1106 182 l 2,8,9
 1034 -29 1034 -29 813 -29 c 0,10,11
 683 -29 683 -29 629 49 c 0,12,13
 599 93 599 93 599 164 c 0,14,15
 599 206 599 206 609 255 c 1,16,17
 544 109 544 109 463.5 40 c 128,-1,18
 383 -29 383 -29 262 -29 c 0,19,20
 188 -29 188 -29 128.5 2.5 c 128,-1,21
 69 34 69 34 33.5 101 c 128,-1,22
 -2 168 -2 168 -2 270 c 0,23,24
 -2 432 -2 432 81.5 626 c 128,-1,25
 165 820 165 820 323 956 c 128,-1,26
 481 1092 481 1092 692 1092 c 0,27,28
 791 1092 791 1092 817 1041 c 1,29,-1
 871 1245 l 1,30,-1
 553 1245 l 1,31,-1
 565 1286 l 1,32,-1
 882 1286 l 1,33,-1
 903 1366 l 2,34,35
 913 1403 913 1403 913 1423 c 0,36,37
 913 1464 913 1464 881 1482.5 c 128,-1,38
 849 1501 849 1501 774 1501 c 1,39,-1
 788 1544 l 1,40,41
 1096 1547 1096 1547 1343 1628 c 1,42,-1
 1249 1286 l 1,43,-1
 1413 1286 l 1,44,-1
 1401 1245 l 1,45,-1
 1237 1245 l 1,46,-1
 942 174 l 2,47,0
 932 145 932 145 932 126 c 0,1,2
499.5 142.5 m 128,-1,49
 540 187 540 187 588 285 c 128,-1,50
 636 383 636 383 682 532 c 1,51,-1
 744 766 l 1,52,-1
 745 770 l 1,53,-1
 745 769 l 1,54,-1
 804 994 l 1,55,56
 797 1020 797 1020 782.5 1032 c 128,-1,57
 768 1044 768 1044 739 1044 c 0,58,59
 676 1044 676 1044 590 922.5 c 128,-1,60
 504 801 504 801 442.5 609 c 128,-1,61
 381 417 381 417 381 215 c 0,62,63
 381 153 381 153 391.5 125.5 c 128,-1,64
 402 98 402 98 430 98 c 0,65,48
 459 98 459 98 499.5 142.5 c 128,-1,49
EndSplineSet
Substitution2: "'smcp' Lowercase to Small Capitals lookup 24 subtable" dcroat.smcp
Substitution2: "'aalt' Access All Alternates lookup 0 subtable" dcroat.smcp
EndChar
